<svg width="60" height="60" viewBox="0 0 60 60" fill="none" xmlns="http://www.w3.org/2000/svg">
<circle opacity="0.15" cx="30" cy="30" r="30" fill="#0171C3"/>
<path d="M45 39.5318C45 40.0726 44.8798 40.6284 44.6244 41.1693C44.3691 41.7101 44.0386 42.2208 43.6029 42.7016C42.8668 43.5128 42.0556 44.0986 41.1392 44.4742C40.2379 44.8498 39.2614 45.0451 38.2098 45.0451C36.6775 45.0451 35.0401 44.6845 33.3125 43.9484C31.5849 43.2123 29.8573 42.2208 28.1447 40.974C26.4171 39.7121 24.7797 38.315 23.2173 36.7677C21.67 35.2053 20.2729 33.5679 19.026 31.8553C17.7942 30.1427 16.8027 28.4301 16.0816 26.7326C15.3605 25.02 15 23.3826 15 21.8202C15 20.7987 15.1803 19.8222 15.5408 18.9209C15.9014 18.0045 16.4722 17.1632 17.2684 16.4121C18.2298 15.4657 19.2814 15 20.3931 15C20.8137 15 21.2344 15.0901 21.6099 15.2704C22.0005 15.4507 22.346 15.7211 22.6164 16.1117L26.1017 21.024C26.3721 21.3996 26.5674 21.7451 26.7026 22.0756C26.8378 22.3911 26.9129 22.7066 26.9129 22.992C26.9129 23.3525 26.8077 23.7131 26.5974 24.0586C26.4021 24.4041 26.1167 24.7646 25.7561 25.1252L24.6144 26.312C24.4492 26.4772 24.3741 26.6725 24.3741 26.9129C24.3741 27.0331 24.3891 27.1382 24.4191 27.2584C24.4642 27.3786 24.5093 27.4687 24.5393 27.5588C24.8097 28.0546 25.2754 28.7006 25.9364 29.4817C26.6124 30.2629 27.3335 31.0591 28.1147 31.8553C28.9259 32.6515 29.7071 33.3876 30.5033 34.0636C31.2844 34.7246 31.9304 35.1753 32.4412 35.4457C32.5163 35.4757 32.6064 35.5208 32.7116 35.5658C32.8317 35.6109 32.9519 35.6259 33.0871 35.6259C33.3425 35.6259 33.5378 35.5358 33.7031 35.3706L34.8448 34.2439C35.2203 33.8683 35.5809 33.5829 35.9264 33.4026C36.2719 33.1923 36.6174 33.0871 36.993 33.0871C37.2784 33.0871 37.5789 33.1472 37.9094 33.2824C38.2399 33.4176 38.5854 33.6129 38.9609 33.8683L43.9334 37.3986C44.324 37.669 44.5944 37.9845 44.7596 38.36C44.9099 38.7356 45 39.1112 45 39.5318Z" stroke="#0171C3" stroke-width="1.2" stroke-miterlimit="10" stroke-linecap="round" stroke-linejoin="round"/>
<path d="M34.5293 20.9615L37.5338 23.966L43.5428 17.957" stroke="#0171C3" stroke-width="1.2" stroke-linecap="round" stroke-linejoin="round"/>
</svg>
