<svg width="60" height="60" viewBox="0 0 60 60" fill="none" xmlns="http://www.w3.org/2000/svg">
<circle opacity="0.15" cx="30" cy="30" r="30" fill="#0171C3"/>
<path d="M44.955 39.495C44.955 40.035 44.835 40.59 44.58 41.13C44.325 41.67 43.995 42.18 43.56 42.66C42.825 43.47 42.015 44.055 41.1 44.43C40.2 44.805 39.225 45 38.175 45C36.645 45 35.01 44.64 33.285 43.905C31.56 43.17 29.835 42.18 28.125 40.935C26.4 39.675 24.765 38.28 23.205 36.735C21.66 35.175 20.265 33.54 19.02 31.83C17.79 30.12 16.8 28.41 16.08 26.715C15.36 25.005 15 23.37 15 21.81C15 20.79 15.18 19.815 15.54 18.915C15.9 18 16.47 17.16 17.265 16.41C18.225 15.465 19.275 15 20.385 15C20.805 15 21.225 15.09 21.6 15.27C21.99 15.45 22.335 15.72 22.605 16.11L26.085 21.015C26.355 21.39 26.55 21.735 26.685 22.065C26.82 22.38 26.895 22.695 26.895 22.98C26.895 23.34 26.79 23.7 26.58 24.045C26.385 24.39 26.1 24.75 25.74 25.11L24.6 26.295C24.435 26.46 24.36 26.655 24.36 26.895C24.36 27.015 24.375 27.12 24.405 27.24C24.45 27.36 24.495 27.45 24.525 27.54C24.795 28.035 25.26 28.68 25.92 29.46C26.595 30.24 27.315 31.035 28.095 31.83C28.905 32.625 29.685 33.36 30.48 34.035C31.26 34.695 31.905 35.145 32.415 35.415C32.49 35.445 32.58 35.49 32.685 35.535C32.805 35.58 32.925 35.595 33.06 35.595C33.315 35.595 33.51 35.505 33.675 35.34L34.815 34.215C35.19 33.84 35.55 33.555 35.895 33.375C36.24 33.165 36.585 33.06 36.96 33.06C37.245 33.06 37.545 33.12 37.875 33.255C38.205 33.39 38.55 33.585 38.925 33.84L43.89 37.365C44.28 37.635 44.55 37.95 44.715 38.325C44.865 38.7 44.955 39.075 44.955 39.495Z" stroke="#0171C3" stroke-width="1.5" stroke-linecap="round" stroke-linejoin="round"/>
<path d="M39.75 25.4922C39.75 24.5922 39.045 23.2122 37.995 22.0872C37.035 21.0522 35.76 20.2422 34.5 20.2422" stroke="#0171C3" stroke-width="1.5" stroke-linecap="round" stroke-linejoin="round"/>
<path d="M45 25.5C45 19.695 40.305 15 34.5 15" stroke="#0171C3" stroke-width="1.5" stroke-linecap="round" stroke-linejoin="round"/>
</svg>
