<svg width="60" height="60" viewBox="0 0 60 60" fill="none" xmlns="http://www.w3.org/2000/svg">
<circle cx="30" cy="30" r="30" fill="#FCE8EA"/>
<path d="M40.6255 29.1328V23.8078C40.6255 18.7703 39.4505 17.5078 34.7255 17.5078H25.2755C20.5505 17.5078 19.3755 18.7703 19.3755 23.8078V37.8828C19.3755 41.2078 21.2005 41.9953 23.413 39.6203L23.4255 39.6078C24.4505 38.5203 26.013 38.6078 26.9005 39.7953L28.163 41.4828" stroke="#DE3C3C" stroke-width="1.5" stroke-linecap="round" stroke-linejoin="round"/>
<path d="M37.75 41.75C39.9592 41.75 41.75 39.9592 41.75 37.75C41.75 35.5409 39.9592 33.75 37.75 33.75C35.5409 33.75 33.75 35.5409 33.75 37.75C33.75 39.9592 35.5409 41.75 37.75 41.75Z" stroke="#DE3C3C" stroke-width="1.5" stroke-linecap="round" stroke-linejoin="round"/>
<path d="M42.5 42.5L41.25 41.25" stroke="#DE3C3C" stroke-width="1.5" stroke-linecap="round" stroke-linejoin="round"/>
<path d="M25.0005 23.7422H35.0005" stroke="#DE3C3C" stroke-width="1.5" stroke-linecap="round" stroke-linejoin="round"/>
<path d="M26.25 28.7578H33.75" stroke="#DE3C3C" stroke-width="1.5" stroke-linecap="round" stroke-linejoin="round"/>
</svg>
