<svg width="60" height="60" viewBox="0 0 60 60" fill="none" xmlns="http://www.w3.org/2000/svg">
<circle cx="30" cy="30" r="30" fill="#FAF2E6"/>
<path fill-rule="evenodd" clip-rule="evenodd" d="M29.9999 15C30.427 15 30.8112 15.2595 30.9707 15.6556L34.6524 24.7992L44.0465 25.6382C44.46 25.6751 44.8125 25.9529 44.9451 26.3462C45.0777 26.7396 44.9653 27.1741 44.6586 27.4538L37.4877 33.9929L39.6449 43.727C39.7364 44.14 39.5703 44.5675 39.2239 44.8103C38.8775 45.0532 38.419 45.0636 38.062 44.8367L30 39.7146L21.938 44.8367C21.5809 45.0636 21.1224 45.0532 20.776 44.8103C20.4296 44.5675 20.2635 44.14 20.355 43.727L22.5123 33.9928L15.3414 27.4538C15.0347 27.1741 14.9223 26.7396 15.0549 26.3462C15.1875 25.9529 15.54 25.6751 15.9535 25.6382L25.3477 24.7992L29.0292 15.6556C29.1887 15.2595 29.5729 15 29.9999 15ZM30 18.8484L27.0499 26.1754C26.903 26.5403 26.5639 26.7919 26.1722 26.8269L18.5106 27.5111L24.3703 32.8545C24.6472 33.107 24.7679 33.4883 24.6868 33.8542L22.9441 41.7177L29.4387 37.5915C29.7812 37.3739 30.2187 37.3739 30.5611 37.5915L37.0558 41.7178L35.3132 33.8542C35.2321 33.4883 35.3528 33.107 35.6297 32.8545L41.4894 27.5111L33.8279 26.8269C33.4362 26.7919 33.0971 26.5403 32.9502 26.1754L30 18.8484Z" fill="#FAB143"/>
</svg>
