<svg width="60" height="60" viewBox="0 0 60 60" fill="none" xmlns="http://www.w3.org/2000/svg">
<circle cx="30" cy="30" r="30" fill="#E3FCF2"/>
<path fill-rule="evenodd" clip-rule="evenodd" d="M28.4637 16.5207C29.0701 16.1793 29.7542 16 30.45 16C31.1458 16 31.83 16.1793 32.4363 16.5207C33.0427 16.8621 33.5508 17.354 33.9117 17.9489L33.9156 17.9554L45.3465 37.0384L45.3574 37.057C45.7109 37.6693 45.898 38.3634 45.9 39.0703C45.902 39.7773 45.7188 40.4724 45.3687 41.0866C45.0186 41.7008 44.5138 42.2126 43.9045 42.5711C43.2952 42.9296 42.6027 43.1224 41.8958 43.1301L41.8809 43.1303L19.0042 43.1302C18.2973 43.1225 17.6048 42.9296 16.9955 42.5711C16.3862 42.2126 15.8814 41.7008 15.5313 41.0866C15.1812 40.4724 14.998 39.7773 15 39.0703C15.002 38.3634 15.1891 37.6693 15.5426 37.057L15.5535 37.0384L26.9845 17.9554L26.9883 17.9489C27.3492 17.354 27.8573 16.8621 28.4637 16.5207ZM29.2977 19.3461L17.8756 38.4146C17.7606 38.6167 17.6998 38.8452 17.6992 39.0779C17.6985 39.3135 17.7596 39.5452 17.8763 39.75C17.9929 39.9547 18.1612 40.1253 18.3643 40.2448C18.5656 40.3633 18.7942 40.4274 19.0277 40.4311H41.8723C42.1058 40.4274 42.3344 40.3633 42.5357 40.2448C42.7388 40.1253 42.9071 39.9547 43.0237 39.75C43.1404 39.5452 43.2015 39.3135 43.2008 39.0779C43.2002 38.8452 43.1394 38.6168 43.0245 38.4146L31.6039 19.3488L31.6023 19.3461C31.4821 19.149 31.3133 18.986 31.1121 18.8727C30.91 18.7589 30.6819 18.6992 30.45 18.6992C30.2181 18.6992 29.99 18.7589 29.7879 18.8727C29.5867 18.986 29.4179 19.149 29.2977 19.3461Z" fill="#3BD999"/>
<path fill-rule="evenodd" clip-rule="evenodd" d="M30.45 24.2345C31.1953 24.2345 31.7996 24.8388 31.7996 25.5841V30.9824C31.7996 31.7278 31.1953 32.332 30.45 32.332C29.7046 32.332 29.1004 31.7278 29.1004 30.9824V25.5841C29.1004 24.8388 29.7046 24.2345 30.45 24.2345Z" fill="#3BD999"/>
<path fill-rule="evenodd" clip-rule="evenodd" d="M29.1004 36.3807C29.1004 35.6354 29.7046 35.0312 30.45 35.0312H30.4635C31.2088 35.0312 31.813 35.6354 31.813 36.3807C31.813 37.1261 31.2088 37.7303 30.4635 37.7303H30.45C29.7046 37.7303 29.1004 37.1261 29.1004 36.3807Z" fill="#3BD999"/>
</svg>
