<svg width="60" height="60" viewBox="0 0 60 60" fill="none" xmlns="http://www.w3.org/2000/svg">
<circle opacity="0.15" cx="30" cy="30" r="30" fill="#0171C3"/>
<path fill-rule="evenodd" clip-rule="evenodd" d="M29.4697 25.6463C29.4697 25.0684 29.9382 24.5998 30.5162 24.5998H37.8417C38.4197 24.5998 38.8883 25.0684 38.8883 25.6463C38.8883 26.2243 38.4197 26.6929 37.8417 26.6929H30.5162C29.9382 26.6929 29.4697 26.2243 29.4697 25.6463Z" fill="#0171C3"/>
<path fill-rule="evenodd" clip-rule="evenodd" d="M27.0841 22.8079C27.4928 23.2166 27.4928 23.8792 27.0841 24.2879L23.9445 27.4274C23.5359 27.8361 22.8732 27.8361 22.4646 27.4274L21.418 26.3809C21.0094 25.9722 21.0094 25.3096 21.418 24.9009C21.8267 24.4922 22.4893 24.4922 22.898 24.9009L23.2045 25.2074L25.6041 22.8079C26.0128 22.3992 26.6754 22.3992 27.0841 22.8079Z" fill="#0171C3"/>
<path fill-rule="evenodd" clip-rule="evenodd" d="M29.4697 35.4165C29.4697 34.8385 29.9382 34.37 30.5162 34.37H37.8417C38.4197 34.37 38.8883 34.8385 38.8883 35.4165C38.8883 35.9945 38.4197 36.463 37.8417 36.463H30.5162C29.9382 36.463 29.4697 35.9945 29.4697 35.4165Z" fill="#0171C3"/>
<path fill-rule="evenodd" clip-rule="evenodd" d="M27.0841 32.578C27.4928 32.9867 27.4928 33.6493 27.0841 34.058L23.9445 37.1976C23.5359 37.6063 22.8732 37.6063 22.4646 37.1976L21.418 36.1511C21.0094 35.7424 21.0094 35.0798 21.418 34.6711C21.8267 34.2624 22.4893 34.2624 22.898 34.6711L23.2045 34.9776L25.6041 32.578C26.0128 32.1694 26.6754 32.1694 27.0841 32.578Z" fill="#0171C3"/>
<path fill-rule="evenodd" clip-rule="evenodd" d="M17.574 17.574C19.4361 15.7119 22.2224 15 25.814 15H34.1861C37.7777 15 40.5641 15.7119 42.4261 17.574C44.2882 19.436 45.0001 22.2224 45.0001 25.814V34.186C45.0001 37.7776 44.2882 40.564 42.4261 42.426C40.5641 44.2881 37.7777 45 34.1861 45H25.814C22.2224 45 19.4361 44.2881 17.574 42.426C15.712 40.564 15.0001 37.7776 15.0001 34.186V25.814C15.0001 22.2224 15.712 19.436 17.574 17.574ZM19.054 19.0539C17.7765 20.3314 17.0931 22.4288 17.0931 25.814V34.186C17.0931 37.5712 17.7765 39.6686 19.054 40.9461C20.3315 42.2235 22.4289 42.907 25.814 42.907H34.1861C37.5713 42.907 39.6686 42.2235 40.9461 40.9461C42.2236 39.6686 42.907 37.5712 42.907 34.186V25.814C42.907 22.4288 42.2236 20.3314 40.9461 19.0539C39.6686 17.7765 37.5713 17.093 34.1861 17.093H25.814C22.4289 17.093 20.3315 17.7765 19.054 19.0539Z" fill="#0171C3"/>
</svg>
