<svg width="60" height="60" viewBox="0 0 60 60" fill="none" xmlns="http://www.w3.org/2000/svg">
<circle cx="30" cy="30" r="30" fill="#FAF2E6"/>
<path fill-rule="evenodd" clip-rule="evenodd" d="M30 17.7273C23.222 17.7273 17.7273 23.222 17.7273 30C17.7273 36.778 23.222 42.2727 30 42.2727C36.778 42.2727 42.2727 36.778 42.2727 30C42.2727 23.222 36.778 17.7273 30 17.7273ZM15 30C15 21.7157 21.7157 15 30 15C38.2843 15 45 21.7157 45 30C45 38.2843 38.2843 45 30 45C21.7157 45 15 38.2843 15 30Z" fill="#FAB143"/>
<path fill-rule="evenodd" clip-rule="evenodd" d="M30 23.1818C30.7531 23.1818 31.3636 23.7923 31.3636 24.5455V30C31.3636 30.7531 30.7531 31.3636 30 31.3636C29.2469 31.3636 28.6364 30.7531 28.6364 30V24.5455C28.6364 23.7923 29.2469 23.1818 30 23.1818Z" fill="#FAB143"/>
<path fill-rule="evenodd" clip-rule="evenodd" d="M28.6364 35.4545C28.6364 34.7014 29.2469 34.0909 30 34.0909H30.0136C30.7668 34.0909 31.3773 34.7014 31.3773 35.4545C31.3773 36.2077 30.7668 36.8182 30.0136 36.8182H30C29.2469 36.8182 28.6364 36.2077 28.6364 35.4545Z" fill="#FAB143"/>
</svg>
