<svg width="60" height="60" viewBox="0 0 60 60" fill="none" xmlns="http://www.w3.org/2000/svg">
<circle cx="30" cy="30" r="30" fill="#FAF2E6"/>
<path fill-rule="evenodd" clip-rule="evenodd" d="M23.4833 15.3065C23.6795 15.1103 23.9457 15 24.2233 15H35.7767C36.0543 15 36.3205 15.1103 36.5167 15.3065L44.6935 23.4833C44.8897 23.6795 45 23.9457 45 24.2233V35.7767C45 36.0543 44.8897 36.3205 44.6935 36.5167L36.5167 44.6935C36.3205 44.8897 36.0543 45 35.7767 45H24.2233C23.9457 45 23.6795 44.8897 23.4833 44.6935L15.3065 36.5167C15.1103 36.3205 15 36.0543 15 35.7767V24.2233C15 23.9457 15.1103 23.6795 15.3065 23.4833L23.4833 15.3065ZM24.6567 17.093L17.093 24.6567V35.3433L24.6567 42.907H35.3433L42.907 35.3433V24.6567L35.3433 17.093H24.6567Z" fill="#FAB143"/>
<path fill-rule="evenodd" clip-rule="evenodd" d="M30 23.3735C30.578 23.3735 31.0465 23.842 31.0465 24.42V30.0014C31.0465 30.5793 30.578 31.0479 30 31.0479C29.422 31.0479 28.9535 30.5793 28.9535 30.0014V24.42C28.9535 23.842 29.422 23.3735 30 23.3735Z" fill="#FAB143"/>
<path fill-rule="evenodd" clip-rule="evenodd" d="M28.9535 35.58C28.9535 35.0021 29.422 34.5335 30 34.5335H30.014C30.5919 34.5335 31.0605 35.0021 31.0605 35.58C31.0605 36.158 30.5919 36.6265 30.014 36.6265H30C29.422 36.6265 28.9535 36.158 28.9535 35.58Z" fill="#FAB143"/>
</svg>
