<svg width="60" height="60" viewBox="0 0 60 60" fill="none" xmlns="http://www.w3.org/2000/svg">
<circle cx="30" cy="30" r="30" fill="#E3FCF2"/>
<path d="M33.188 17.5039H26.813C24.563 17.5039 24.063 18.6289 23.7755 20.0164L22.7505 24.9164H37.2505L36.2255 20.0164C35.938 18.6289 35.438 17.5039 33.188 17.5039Z" stroke="#3BD999" stroke-width="1.5" stroke-linecap="round" stroke-linejoin="round"/>
<path d="M39.0502 32.9063C39.1502 33.9688 38.3002 34.8813 37.2127 34.8813H35.5127C34.5377 34.8813 34.4002 34.4688 34.2252 33.9438L34.0377 33.4062C33.7877 32.6687 33.6252 32.1687 32.3127 32.1687H27.6752C26.3752 32.1687 26.1752 32.7312 25.9502 33.4062L25.7627 33.9438C25.5877 34.4563 25.4502 34.8813 24.4752 34.8813H22.7752C21.6877 34.8813 20.8377 33.9688 20.9377 32.9063L21.4502 27.3813C21.5752 26.0188 21.8377 24.9062 24.2127 24.9062H35.7752C38.1502 24.9062 38.4127 26.0188 38.5377 27.3813L39.0502 32.9063Z" stroke="#3BD999" stroke-width="1.5" stroke-linecap="round" stroke-linejoin="round"/>
<path d="M22.7504 22.1914H21.8379" stroke="#3BD999" stroke-width="1.5" stroke-linecap="round" stroke-linejoin="round"/>
<path d="M38.1627 22.1914H37.2502" stroke="#3BD999" stroke-width="1.5" stroke-linecap="round" stroke-linejoin="round"/>
<path d="M24.5625 28.543H27.275" stroke="#3BD999" stroke-width="1.5" stroke-linecap="round" stroke-linejoin="round"/>
<path d="M32.7253 28.543H35.4379" stroke="#3BD999" stroke-width="1.5" stroke-linecap="round" stroke-linejoin="round"/>
<path d="M30 36.25V37.5" stroke="#3BD999" stroke-width="1.5" stroke-linecap="round" stroke-linejoin="round"/>
<path d="M30 41.25V42.5" stroke="#3BD999" stroke-width="1.5" stroke-linecap="round" stroke-linejoin="round"/>
<path d="M18.7498 37.5L17.4998 42.5" stroke="#3BD999" stroke-width="1.5" stroke-linecap="round" stroke-linejoin="round"/>
<path d="M41.25 37.5L42.5 42.5" stroke="#3BD999" stroke-width="1.5" stroke-linecap="round" stroke-linejoin="round"/>
</svg>
