<svg width="60" height="60" viewBox="0 0 60 60" fill="none" xmlns="http://www.w3.org/2000/svg">
<circle cx="30" cy="30" r="30" fill="#FAF2E6"/>
<path fill-rule="evenodd" clip-rule="evenodd" d="M21.9767 30.2248C21.9767 29.6469 22.4453 29.1783 23.0233 29.1783H26.7628C28.366 29.1783 29.4698 30.4355 29.4698 31.8853V33.9644C29.4698 35.4143 28.366 36.6714 26.7628 36.6714H24.6837C23.1988 36.6714 21.9767 35.4494 21.9767 33.9644V30.2248ZM24.0698 31.2713V33.9644C24.0698 34.2934 24.3547 34.5784 24.6837 34.5784H26.7628C27.141 34.5784 27.3767 34.3286 27.3767 33.9644V31.8853C27.3767 31.5212 27.141 31.2713 26.7628 31.2713H24.0698Z" fill="#FAB143"/>
<path fill-rule="evenodd" clip-rule="evenodd" d="M26.8399 23.8457C27.1345 24.343 26.9702 24.9849 26.4729 25.2795C25.3604 25.9385 24.8738 26.3033 24.5729 26.8405C24.2595 27.4001 24.0698 28.2981 24.0698 30.2256C24.0698 30.8036 23.6012 31.2721 23.0233 31.2721C22.4453 31.2721 21.9767 30.8028 21.9767 30.2248C21.9767 28.2593 22.1498 26.8837 22.7468 25.8177C23.3564 24.7293 24.3279 24.1174 25.4062 23.4787C25.9034 23.1841 26.5454 23.3485 26.8399 23.8457Z" fill="#FAB143"/>
<path fill-rule="evenodd" clip-rule="evenodd" d="M30.5441 30.2248C30.5441 29.6469 31.0127 29.1783 31.5906 29.1783H35.3302C36.9334 29.1783 38.0371 30.4355 38.0371 31.8853V33.9644C38.0371 35.4143 36.9334 36.6714 35.3302 36.6714H33.2511C31.7661 36.6714 30.5441 35.4494 30.5441 33.9644V30.2248ZM32.6371 31.2713V33.9644C32.6371 34.2934 32.9221 34.5784 33.2511 34.5784H35.3302C35.7084 34.5784 35.9441 34.3286 35.9441 33.9644V31.8853C35.9441 31.5212 35.7084 31.2713 35.3302 31.2713H32.6371Z" fill="#FAB143"/>
<path fill-rule="evenodd" clip-rule="evenodd" d="M35.4073 23.8457C35.7019 24.343 35.5375 24.9849 35.0403 25.2795C33.9278 25.9385 33.4412 26.3033 33.1403 26.8405C32.8269 27.4001 32.6371 28.2981 32.6371 30.2256C32.6371 30.8036 32.1686 31.2721 31.5906 31.2721C31.0127 31.2721 30.5441 30.8028 30.5441 30.2248C30.5441 28.2593 30.7172 26.8837 31.3142 25.8177C31.9238 24.7293 32.8953 24.1174 33.9735 23.4787C34.4708 23.1841 35.1127 23.3485 35.4073 23.8457Z" fill="#FAB143"/>
<path fill-rule="evenodd" clip-rule="evenodd" d="M30 17.093C22.8717 17.093 17.093 22.8717 17.093 30C17.093 37.1283 22.8717 42.907 30 42.907C37.1283 42.907 42.907 37.1283 42.907 30C42.907 22.8717 37.1283 17.093 30 17.093ZM15 30C15 21.7157 21.7157 15 30 15C38.2843 15 45 21.7157 45 30C45 38.2843 38.2843 45 30 45C21.7157 45 15 38.2843 15 30Z" fill="#FAB143"/>
</svg>
