<svg width="60" height="60" viewBox="0 0 60 60" fill="none" xmlns="http://www.w3.org/2000/svg">
<circle cx="30" cy="30" r="30" fill="#FCE8EA"/>
<path fill-rule="evenodd" clip-rule="evenodd" d="M15 30C15 21.7476 21.7476 15 30 15C38.2524 15 45 21.7476 45 30C45 38.2524 38.2524 45 30 45C21.7476 45 15 38.2524 15 30ZM30 17.093C22.9036 17.093 17.093 22.9036 17.093 30C17.093 37.0964 22.9036 42.907 30 42.907C37.0964 42.907 42.907 37.0964 42.907 30C42.907 22.9036 37.0964 17.093 30 17.093Z" fill="#DE3C3C"/>
<path fill-rule="evenodd" clip-rule="evenodd" d="M36.671 25.309C37.0794 25.718 37.0788 26.3806 36.6697 26.789L28.7581 34.6866C28.3493 35.0947 27.6872 35.0944 27.2788 34.686L23.3299 30.7372C22.9213 30.3285 22.9213 29.6659 23.3299 29.2572C23.7386 28.8485 24.4012 28.8485 24.8099 29.2572L28.0194 32.4667L35.1911 25.3077C35.6001 24.8994 36.2627 24.8999 36.671 25.309Z" fill="#DE3C3C"/>
</svg>
