<svg width="60" height="60" viewBox="0 0 60 60" fill="none" xmlns="http://www.w3.org/2000/svg">
<circle cx="30" cy="30" r="30" fill="#FAF2E6"/>
<path d="M17.5005 27.4828V26.2578C17.5005 20.0078 20.0005 17.5078 26.2505 17.5078H33.7505C40.0005 17.5078 42.5005 20.0078 42.5005 26.2578V33.7578C42.5005 40.0078 40.0005 42.5078 33.7505 42.5078H32.5005" stroke="#FAB143" stroke-width="1.5" stroke-linecap="round" stroke-linejoin="round"/>
<path d="M31.2495 28.7438L37.512 22.4688H32.4995" stroke="#FAB143" stroke-width="1.5" stroke-linecap="round" stroke-linejoin="round"/>
<path d="M37.5125 22.4688V27.4812" stroke="#FAB143" stroke-width="1.5" stroke-linecap="round" stroke-linejoin="round"/>
<path d="M28.7505 35.1797V38.5547C28.7505 41.3672 27.6255 42.4922 24.813 42.4922H21.438C18.6255 42.4922 17.5005 41.3672 17.5005 38.5547V35.1797C17.5005 32.3672 18.6255 31.2422 21.438 31.2422H24.813C27.6255 31.2422 28.7505 32.3672 28.7505 35.1797Z" stroke="#FAB143" stroke-width="1.5" stroke-linecap="round" stroke-linejoin="round"/>
</svg>
