<svg width="60" height="60" viewBox="0 0 60 60" fill="none" xmlns="http://www.w3.org/2000/svg">
<circle cx="30" cy="30" r="30" fill="#FAF2E6"/>
<path d="M33.75 25.4637V24.2637C33.75 20.5387 31.1625 19.1137 28.0125 21.0887L24.3625 23.3762C23.9625 23.6137 23.5 23.7512 23.0375 23.7512H21.25C18.75 23.7512 17.5 25.0012 17.5 27.5012V32.5012C17.5 35.0012 18.75 36.2512 21.25 36.2512H23.75" stroke="#FAB143" stroke-width="1.5" stroke-linecap="round" stroke-linejoin="round"/>
<path d="M28.0127 38.9125C31.1627 40.8875 33.7502 39.45 33.7502 35.7375V31.1875" stroke="#FAB143" stroke-width="1.5" stroke-linecap="round" stroke-linejoin="round"/>
<path d="M38.5125 26.7773C39.6375 29.4648 39.3 32.6023 37.5 35.0023" stroke="#FAB143" stroke-width="1.5" stroke-linecap="round" stroke-linejoin="round"/>
<path d="M41.4376 24.75C43.2751 29.1125 42.7251 34.2125 39.7876 38.125" stroke="#FAB143" stroke-width="1.5" stroke-linecap="round" stroke-linejoin="round"/>
<path d="M42.5 17.5L17.5 42.5" stroke="#FAB143" stroke-width="1.5" stroke-linecap="round" stroke-linejoin="round"/>
</svg>
