<svg width="60" height="60" viewBox="0 0 60 60" fill="none" xmlns="http://www.w3.org/2000/svg">
<circle cx="30" cy="30" r="30" fill="#FCE8EA"/>
<path d="M39.7993 44.8058C39.3393 44.8046 38.884 44.7123 38.4599 44.5343C38.0357 44.3563 37.6511 44.0961 37.3283 43.7688L29.68 36.1758L22.0317 43.7738C21.5405 44.2715 20.9106 44.6098 20.224 44.7447C19.5374 44.8796 18.8261 44.8049 18.1827 44.5301C17.5329 44.2691 16.9771 43.8185 16.5877 43.2372C16.1984 42.6558 15.9936 41.9707 16.0002 41.2714V21.2095C16.0002 19.5627 16.6553 17.9833 17.8214 16.8187C18.9875 15.6542 20.5691 15 22.2183 15H37.1417C37.9583 15 38.7669 15.1606 39.5213 15.4727C40.2757 15.7847 40.9612 16.2421 41.5386 16.8187C42.116 17.3953 42.574 18.0799 42.8865 18.8333C43.199 19.5866 43.3598 20.3941 43.3598 21.2095V41.2714C43.3668 41.9702 43.1628 42.6548 42.7743 43.2361C42.3859 43.8174 41.8311 44.2683 41.1822 44.5301C40.7443 44.7131 40.2741 44.8068 39.7993 44.8058ZM22.2183 17.4838C21.2288 17.4838 20.2798 17.8764 19.5801 18.5751C18.8805 19.2738 18.4874 20.2214 18.4874 21.2095V41.2714C18.4869 41.4783 18.5479 41.6807 18.6626 41.8531C18.7773 42.0254 18.9406 42.16 19.1318 42.2397C19.3231 42.3195 19.5337 42.3408 19.737 42.3011C19.9404 42.2614 20.1274 42.1623 20.2745 42.0165L28.8095 33.5454C29.0425 33.3141 29.3577 33.1843 29.6862 33.1843C30.0148 33.1843 30.33 33.3141 30.563 33.5454L39.088 42.014C39.235 42.1598 39.4221 42.2589 39.6254 42.2986C39.8288 42.3383 40.0394 42.317 40.2306 42.2372C40.4219 42.1575 40.5851 42.023 40.6998 41.8506C40.8145 41.6783 40.8755 41.4758 40.8751 41.2689V21.2095C40.8751 20.2214 40.482 19.2738 39.7823 18.5751C39.0827 17.8764 38.1337 17.4838 37.1442 17.4838H22.2183Z" fill="#DE3C3C"/>
</svg>
