<svg width="60" height="60" viewBox="0 0 60 60" fill="none" xmlns="http://www.w3.org/2000/svg">
<circle opacity="0.15" cx="30" cy="30" r="30" fill="#0171C3"/>
<path d="M39.741 20.5329C38.276 18.5478 36.2993 16.9978 34.022 16.0485C31.7447 15.0993 29.2524 14.7864 26.8111 15.1433C24.4366 15.4808 22.1918 16.4338 20.2996 17.9075C18.4074 19.3812 16.9337 21.3244 16.025 23.5439C15.1162 25.7634 14.804 28.1821 15.1193 30.5596C15.4347 32.9372 16.3666 35.1908 17.8225 37.0967C18.4424 37.9511 18.767 38.9842 18.7472 40.0396V41.253C18.7472 42.2473 19.1422 43.2008 19.8453 43.9039C20.5483 44.6069 21.5019 45.0019 22.4961 45.0019H31.2435C32.2378 45.0019 33.1913 44.6069 33.8944 43.9039C34.5974 43.2008 34.9924 42.2473 34.9924 41.253H35.6097C37.1241 41.2493 38.5858 40.6974 39.7246 39.6992C40.8634 38.701 41.6021 37.3242 41.8041 35.8234L42.0778 33.7552H42.4902C42.8203 33.7622 43.1484 33.7023 43.4548 33.5792C43.7612 33.4561 44.0395 33.2723 44.273 33.0388C44.5065 32.8053 44.6903 32.527 44.8134 32.2206C44.9366 31.9142 44.9964 31.5861 44.9895 31.256C44.9895 29.4815 41.3255 22.4898 39.741 20.5329ZM40.9819 31.256C40.6789 31.2561 40.3863 31.3663 40.1585 31.566C39.9307 31.7658 39.7832 32.0415 39.7435 32.3419L39.3261 35.4972C39.2047 36.3975 38.7614 37.2233 38.0782 37.822C37.395 38.4206 36.5181 38.7516 35.6097 38.7538H33.7428C33.4114 38.7538 33.0935 38.8854 32.8592 39.1198C32.6248 39.3541 32.4932 39.672 32.4932 40.0034V41.253C32.4932 41.5844 32.3615 41.9023 32.1271 42.1366C31.8928 42.371 31.5749 42.5026 31.2435 42.5026H22.4961C22.1647 42.5026 21.8469 42.371 21.6125 42.1366C21.3781 41.9023 21.2465 41.5844 21.2465 41.253V40.0396C21.2654 38.4353 20.7604 36.8685 19.8082 35.5772C18.6183 34.0186 17.8567 32.176 17.5987 30.2323C17.3408 28.2885 17.5955 26.311 18.3377 24.4961C19.0798 22.6811 20.2836 21.0917 21.8296 19.8856C23.3756 18.6794 25.21 17.8984 27.151 17.62C27.681 17.5465 28.2154 17.5097 28.7505 17.5101C30.5064 17.5077 32.2382 17.9192 33.8053 18.7112C35.3725 19.5033 36.7309 20.6535 37.7703 22.0687C39.744 24.9084 41.3311 27.9979 42.4902 31.256H40.9819ZM35.2423 25.0216C35.1606 24.8792 35.0516 24.7542 34.9215 24.654C34.7915 24.5537 34.6429 24.4801 34.4844 24.4372C34.3259 24.3944 34.1605 24.3832 33.9976 24.4044C33.8348 24.4255 33.6777 24.4786 33.5353 24.5605L32.3082 25.2653C31.6718 24.6202 30.8717 24.1605 29.9939 23.9357V22.5086C29.9939 22.1772 29.8622 21.8593 29.6279 21.625C29.3935 21.3906 29.0757 21.2589 28.7443 21.2589C28.4128 21.2589 28.095 21.3906 27.8606 21.625C27.6263 21.8593 27.4946 22.1772 27.4946 22.5086V23.9357C26.6155 24.1599 25.814 24.6196 25.1766 25.2653L23.9494 24.5605C23.8072 24.4784 23.6501 24.4252 23.4873 24.4038C23.3244 24.3825 23.159 24.3934 23.0003 24.436C22.8417 24.4786 22.693 24.552 22.5628 24.652C22.4325 24.7521 22.3232 24.8768 22.2412 25.0191C22.1591 25.1614 22.1059 25.3184 22.0846 25.4813C22.0632 25.6441 22.0741 25.8096 22.1167 25.9682C22.1593 26.1268 22.2327 26.2755 22.3328 26.4057C22.4328 26.536 22.5575 26.6453 22.6998 26.7273L23.9407 27.4409C23.8165 27.8686 23.7509 28.3113 23.7458 28.7567C23.7521 29.2023 23.8189 29.645 23.9444 30.0726L22.7036 30.7861C22.4162 30.9518 22.2065 31.2249 22.1205 31.5453C22.0345 31.8656 22.0792 32.207 22.2449 32.4944C22.4107 32.7817 22.6837 32.9915 23.0041 33.0775C23.3244 33.1635 23.6658 33.1187 23.9532 32.953L25.1803 32.2482C25.8168 32.8933 26.6168 33.3529 27.4946 33.5778V35.0049C27.4946 35.3363 27.6263 35.6541 27.8606 35.8885C28.095 36.1228 28.4128 36.2545 28.7443 36.2545C29.0757 36.2545 29.3935 36.1228 29.6279 35.8885C29.8622 35.6541 29.9939 35.3363 29.9939 35.0049V33.5778C30.8731 33.3535 31.6745 32.8939 32.312 32.2482L33.5391 32.953C33.6814 33.035 33.8384 33.0883 34.0013 33.1096C34.1641 33.131 34.3296 33.12 34.4882 33.0775C34.6468 33.0349 34.7955 32.9615 34.9258 32.8614C35.056 32.7614 35.1653 32.6366 35.2473 32.4944C35.3294 32.3521 35.3826 32.195 35.404 32.0322C35.4253 31.8693 35.4144 31.7039 35.3718 31.5453C35.3292 31.3866 35.2558 31.2379 35.1558 31.1077C35.0557 30.9774 34.931 30.8682 34.7887 30.7861L33.5478 30.0726C33.6721 29.6448 33.7377 29.2021 33.7428 28.7567C33.7364 28.3111 33.6696 27.8685 33.5441 27.4409L34.785 26.7273C35.0716 26.5616 35.2808 26.2889 35.3666 25.9691C35.4523 25.6493 35.4076 25.3085 35.2423 25.0216ZM28.7443 31.256C28.25 31.256 27.7668 31.1094 27.3558 30.8348C26.9448 30.5602 26.6244 30.1698 26.4353 29.7131C26.2461 29.2565 26.1966 28.7539 26.293 28.2691C26.3895 27.7843 26.6275 27.339 26.977 26.9895C27.3266 26.64 27.7719 26.4019 28.2567 26.3055C28.7415 26.209 29.244 26.2585 29.7007 26.4477C30.1574 26.6369 30.5477 26.9572 30.8223 27.3682C31.0969 27.7792 31.2435 28.2624 31.2435 28.7567C31.2435 29.4196 30.9802 30.0553 30.5115 30.524C30.0428 30.9927 29.4071 31.256 28.7443 31.256Z" fill="#0171C3"/>
</svg>
