<svg width="60" height="60" viewBox="0 0 60 60" fill="none" xmlns="http://www.w3.org/2000/svg">
<circle cx="30" cy="30" r="30" fill="#E3FCF2"/>
<path d="M29.9998 34.375C32.7623 34.375 34.9998 32.1375 34.9998 29.375V22.5C34.9998 19.7375 32.7623 17.5 29.9998 17.5C27.2373 17.5 24.9998 19.7375 24.9998 22.5V29.375C24.9998 32.1375 27.2373 34.375 29.9998 34.375Z" stroke="#3BD999" stroke-width="1.5" stroke-linecap="round" stroke-linejoin="round"/>
<path d="M20.4375 27.0625V29.1875C20.4375 34.4625 24.725 38.75 30 38.75C35.275 38.75 39.5625 34.4625 39.5625 29.1875V27.0625" stroke="#3BD999" stroke-width="1.5" stroke-linecap="round" stroke-linejoin="round"/>
<path d="M28.2627 23.0359C29.3877 22.6234 30.6127 22.6234 31.7377 23.0359" stroke="#3BD999" stroke-width="1.5" stroke-linecap="round" stroke-linejoin="round"/>
<path d="M29.0002 25.6898C29.6627 25.5148 30.3502 25.5148 31.0127 25.6898" stroke="#3BD999" stroke-width="1.5" stroke-linecap="round" stroke-linejoin="round"/>
<path d="M30 38.75V42.5" stroke="#3BD999" stroke-width="1.5" stroke-linecap="round" stroke-linejoin="round"/>
</svg>
