<svg width="583" height="717" viewBox="0 0 583 717" fill="none" xmlns="http://www.w3.org/2000/svg">
<path d="M225.252 589.785L208.926 587.258L202.902 600.23L219.238 602.757C219.514 605.741 220.853 608.69 223.252 611.412L211.296 618.319L227.745 627.819L239.702 620.917C244.581 622.317 249.618 623.095 254.693 623.23L259.073 632.664L281.541 629.187L277.166 619.758C279.26 618.975 281.288 618.022 283.227 616.908C284.973 615.916 286.615 614.751 288.129 613.431L304.46 615.958L310.493 602.981L294.157 600.454C293.881 597.471 292.542 594.521 290.143 591.799L302.099 584.892L285.65 575.392L273.693 582.294C268.814 580.893 263.777 580.116 258.702 579.981L254.327 570.547L231.854 574.005L236.229 583.434C234.135 584.218 232.108 585.171 230.168 586.284C228.417 587.284 226.77 588.457 225.252 589.785ZM243.369 593.903C250.731 589.657 262.668 589.657 270.026 593.903C277.384 598.15 277.389 605.047 270.026 609.298C262.664 613.55 250.731 613.573 243.369 609.298C236.006 605.023 236.006 598.155 243.369 593.903Z" fill="#0171C3"/>
<path d="M241.262 607.826C236.098 603.579 236.796 597.679 243.371 593.884C250.733 589.638 262.67 589.638 270.028 593.884C275.9 597.276 277.082 602.339 273.596 606.41C272.577 605.265 271.37 604.301 270.028 603.56C262.67 599.285 250.733 599.285 243.371 603.56C242.03 604.301 240.825 605.265 239.808 606.41C240.251 606.923 240.737 607.396 241.262 607.826Z" fill="#001B34"/>
<path d="M283.224 616.915C284.97 615.92 286.613 614.751 288.126 613.428L304.457 615.955L310.452 603.059H310.49L310.452 603.149H310.49L310.452 603.239H310.49L310.452 603.329H310.49L310.452 603.42H310.49L310.452 603.505H310.49L310.452 603.595H310.49L310.452 603.686H310.49L310.452 603.776H310.49L310.452 603.866H310.49L310.452 603.956H310.49L310.452 604.047H310.49L310.452 604.132H310.49L310.452 604.218H310.49L310.452 604.308H310.49L310.452 604.398H310.49L310.452 604.488H310.49L310.452 604.579H310.49L310.452 604.669H310.49L310.452 604.759H310.49L310.452 604.845H310.49L310.452 604.935H310.49L310.452 605.025H310.49L310.452 605.115H310.49L310.452 605.206H310.49L310.452 605.296H310.49L310.452 605.386H310.49L310.452 605.472H310.49L310.452 605.557H310.49L310.452 605.647H310.49L310.452 605.738H310.49L310.452 605.828H310.49L310.452 605.918H310.49L310.452 606.008H310.49L310.452 606.099H310.49L310.452 606.184H310.49L310.452 606.27H310.49L310.452 606.36H310.49L310.452 606.45H310.49L310.452 606.54H310.49L310.452 606.631H310.49L310.452 606.721H310.49L310.452 606.806H310.49L310.452 606.892H310.49L310.452 606.982H310.49L310.452 607.072H310.49L310.452 607.163H310.49L310.452 607.253H310.49L310.452 607.343H310.49L310.452 607.433H310.49L310.452 607.519H310.49L310.452 607.604H310.49L310.452 607.695H310.49L310.452 607.785H310.49L310.452 607.875H310.49L310.452 607.965H310.49L310.452 608.056H310.49L310.452 608.146H310.49L310.452 608.231H310.49L310.452 608.322H310.49L310.452 608.412H310.49L310.452 608.502H310.49L310.452 608.592H310.49L310.452 608.683H310.49L310.452 608.773H310.49L310.452 608.858H310.49L310.452 608.944H310.49L310.452 609.034H310.49L310.452 609.124H310.49L310.452 609.215H310.49L310.452 609.305H310.49L310.452 609.395H310.49L310.452 609.485H310.49L310.452 609.571H310.49L310.452 609.661H310.49L310.452 609.752H310.49L310.452 609.842H310.49L310.452 609.932H310.49L310.452 610.022H310.49L310.452 610.113H310.49L310.452 610.198H310.49L310.452 610.284H310.49L310.452 610.374H310.49L310.452 610.464H310.49L310.452 610.554H310.49L310.452 610.645H310.49L310.452 610.735H310.49L310.452 610.825H310.49L310.452 610.911H310.49L310.452 611.001H310.49L310.452 611.091H310.49L310.452 611.181H310.49L310.452 611.272H310.49L310.452 611.362H310.49L310.452 611.452H310.49L310.452 611.538H310.49L310.452 611.623H310.49L310.452 611.713H310.49L310.452 611.804H310.49L310.452 611.894H310.49L310.452 611.984H310.49L304.471 624.957L288.126 623.076C286.608 624.402 284.961 625.573 283.21 626.572C282.459 627.004 281.68 627.408 280.882 627.797L281.523 629.18L277.148 619.751C279.248 618.973 281.28 618.024 283.224 616.915Z" fill="#001B34"/>
<path d="M227.747 627.806L239.703 620.904C244.582 622.304 249.619 623.081 254.694 623.217L259.074 632.651L281.542 629.174H281.499L281.542 629.259H281.499L281.542 629.349H281.48L281.523 629.44H281.48L281.523 629.53H281.48L281.523 629.62H281.48L281.523 629.71H281.48L281.523 629.801H281.48L281.523 629.886H281.48L281.523 629.972H281.48L281.523 630.062H281.48L281.523 630.152H281.48L281.523 630.242H281.48L281.523 630.333H281.48L281.523 630.423H281.48L281.523 630.513H281.48L281.523 630.599H281.48L281.523 630.689H281.48L281.523 630.779H281.48L281.523 630.869H281.48L281.523 630.96H281.48L281.523 631.05H281.48L281.523 631.14H281.48L281.523 631.226H281.48L281.523 631.311H281.48L281.523 631.401H281.48L281.523 631.492H281.48L281.523 631.582H281.48L281.523 631.672H281.48L281.523 631.762H281.48L281.523 631.853H281.48L281.523 631.938H281.48L281.523 632.028H281.48L281.523 632.119H281.48L281.523 632.209H281.48L281.523 632.299H281.48L281.523 632.389H281.48L281.523 632.48H281.48L281.523 632.565H281.48L281.523 632.651H281.48L281.523 632.741H281.48L281.523 632.831H281.48L281.523 632.921H281.48L281.523 633.012H281.48L281.523 633.102H281.48L281.523 633.192H281.48L281.523 633.278H281.48L281.523 633.368H281.48L281.523 633.458H281.48L281.523 633.548H281.48L281.523 633.639H281.48L281.523 633.729H281.48L281.523 633.819H281.48L281.523 633.905H281.48L281.523 633.99H281.48L281.523 634.08H281.48L281.523 634.171H281.48L281.523 634.261H281.48L281.523 634.351H281.48L281.523 634.441H281.48L281.523 634.532H281.48L281.523 634.617H281.48L281.523 634.703H281.48L281.523 634.793H281.48L281.523 634.883H281.48L281.523 634.973H281.48L281.523 635.064H281.48L281.523 635.154H281.48L281.523 635.239H281.48L281.523 635.325H281.48L281.523 635.415H281.48L281.523 635.505H281.48L281.523 635.596H281.48L281.523 635.686H281.48L281.523 635.776H281.48L281.523 635.866H281.48L281.523 635.952H281.48L281.523 636.037H281.48L281.523 636.128H281.48L281.523 636.218H281.48L281.523 636.308H281.48L281.523 636.398H281.48L281.523 636.489H281.48L281.523 636.574H281.48L281.523 636.66H281.48L281.523 636.75H281.48L281.523 636.84H281.48L281.523 636.93H281.48L281.523 637.021H281.48L281.523 637.111H281.48L281.523 637.201H281.48L281.523 637.287H281.48L281.523 637.372H281.48L281.523 637.462H281.48L281.523 637.553H281.48L281.523 637.643H281.48L281.523 637.733H281.48L281.523 637.824H281.48L281.523 637.914H281.48L281.523 637.999H281.48L281.523 638.09H281.48L281.523 638.18L259.055 641.652L254.694 632.898C249.619 632.758 244.582 631.979 239.703 630.58L227.747 637.482L211.297 627.981L211.382 627.934L211.297 627.886L211.382 627.839L211.297 627.791L211.382 627.744L211.297 627.696L211.382 627.644L211.297 627.596L211.382 627.549L211.297 627.501L211.382 627.454L211.297 627.406L211.382 627.359L211.297 627.311L211.382 627.264L211.297 627.217L211.382 627.169L211.297 627.121L211.382 627.074L211.297 627.026L211.382 626.979L211.297 626.927L211.382 626.879L211.297 626.832L211.382 626.784L211.297 626.737L211.382 626.689L211.297 626.642L211.382 626.594L211.297 626.547L211.382 626.499L211.297 626.452L211.382 626.404L211.297 626.357L211.382 626.309L211.297 626.262L211.382 626.209L211.297 626.162L211.382 626.114L211.297 626.067L211.382 626.019L211.297 625.972L211.382 625.924L211.297 625.877L211.382 625.829L211.297 625.782L211.382 625.734L211.297 625.687L211.382 625.639L211.297 625.592L211.382 625.544L211.297 625.492L211.382 625.445L211.297 625.397L211.382 625.35L211.297 625.302L211.382 625.255L211.297 625.207L211.382 625.16L211.297 625.112L211.382 625.065L211.297 625.017L211.382 624.97L211.297 624.922L211.382 624.875L211.297 624.827L211.382 624.775L211.297 624.727L211.382 624.68L211.297 624.632L211.382 624.585L211.297 624.537L211.382 624.49L211.297 624.442L211.382 624.395L211.297 624.347L211.382 624.3L211.297 624.252L211.382 624.205L211.297 624.157L211.382 624.11L211.297 624.058L211.382 624.01L211.297 623.963L211.382 623.915L211.297 623.868L211.382 623.82L211.297 623.773L211.382 623.725L211.297 623.678L211.382 623.63L211.297 623.583L211.382 623.535L211.297 623.488L211.382 623.44L211.297 623.393L211.382 623.345L211.297 623.293L211.382 623.245L211.297 623.198L211.382 623.15L211.297 623.103L211.382 623.055L211.297 623.008L211.382 622.96L211.297 622.913L211.382 622.865L211.297 622.818L211.382 622.77L211.297 622.723L211.382 622.675L211.297 622.628L211.382 622.576L211.297 622.528L211.382 622.481L211.297 622.433L211.382 622.386L211.297 622.338L211.382 622.291L211.297 622.243L211.382 622.196L211.297 622.148L211.382 622.101L211.297 622.053L211.382 622.006L211.297 621.958L211.382 621.911L211.297 621.858L211.382 621.811L211.297 621.763L211.382 621.716L211.297 621.668L211.382 621.621L211.297 621.573L211.382 621.526L211.297 621.478L211.382 621.431L211.297 621.383L211.382 621.336L211.297 621.288L211.382 621.241L211.297 621.193L211.382 621.141L211.297 621.094L211.382 621.046L211.297 620.999L211.382 620.951L211.297 620.904L211.382 620.856L211.297 620.809L211.382 620.761L211.297 620.714L211.382 620.666L211.297 620.619L211.382 620.571L211.297 620.524L211.382 620.476L211.297 620.424L211.382 620.376L211.297 620.329L211.382 620.281L211.297 620.234L211.382 620.186L211.297 620.139L211.382 620.091L211.297 620.044L211.382 619.996L211.297 619.949L211.382 619.901L211.297 619.854L211.382 619.806L211.297 619.759L211.382 619.711L211.297 619.659L211.382 619.612L211.297 619.564L211.382 619.517L211.297 619.469L211.382 619.422L211.297 619.374L211.382 619.327L211.297 619.279L211.382 619.232L211.297 619.184L211.382 619.137L211.297 619.089L211.382 619.041L211.297 618.989L211.382 618.942L211.297 618.894L211.382 618.847L211.297 618.799L211.382 618.752L211.297 618.704L211.382 618.657L211.297 618.609L211.382 618.562L211.297 618.514L211.382 618.467L211.297 618.419L211.382 618.372L211.297 618.324L227.747 627.806Z" fill="#001B34"/>
<path d="M202.945 600.215H202.902L219.238 602.742C219.514 605.725 220.853 608.675 223.252 611.397L219.414 613.615C219.338 613.211 219.276 612.808 219.238 612.404L202.902 609.872L202.945 609.787H202.902L202.945 609.701H202.902L202.945 609.611H202.902L202.945 609.521H202.902L202.945 609.43H202.902L202.945 609.34H202.902L202.945 609.25H202.902L202.945 609.16H202.902L202.945 609.074H202.902L202.945 608.984H202.902L202.945 608.893H202.902L202.945 608.803H202.902L202.945 608.713H202.902L202.945 608.623H202.902L202.945 608.532H202.902L202.945 608.447H202.902L202.945 608.361H202.902L202.945 608.271H202.902L202.945 608.181H202.902L202.945 608.091H202.902L202.945 608H202.902L202.945 607.91H202.902L202.945 607.82H202.902L202.945 607.734H202.902L202.945 607.644H202.902L202.945 607.554H202.902L202.945 607.464H202.902L202.945 607.373H202.902L202.945 607.283H202.902L202.945 607.193H202.902L202.945 607.107H202.902L202.945 607.022H202.902L202.945 606.932H202.902L202.945 606.841H202.902L202.945 606.751H202.902L202.945 606.661H202.902L202.945 606.571H202.902L202.945 606.48H202.902L202.945 606.395H202.902L202.945 606.309H202.902L202.945 606.219H202.902L202.945 606.129H202.902L202.945 606.039H202.902L202.945 605.948H202.902L202.945 605.858H202.902L202.945 605.773H202.902L202.945 605.687H202.902L202.945 605.597H202.902L202.945 605.507H202.902L202.945 605.416H202.902L202.945 605.326H202.902L202.945 605.236H202.902L202.945 605.146H202.902L202.945 605.06H202.902L202.945 604.975H202.902L202.945 604.884H202.902L202.945 604.794H202.902L202.945 604.704H202.902L202.945 604.614H202.902L202.945 604.523H202.902L202.945 604.438H202.902L202.945 604.352H202.902L202.945 604.262H202.902L202.945 604.172H202.902L202.945 604.082H202.902L202.945 603.991H202.902L202.945 603.901H202.902L202.945 603.811H202.902L202.945 603.725H202.902L202.945 603.64H202.902L202.945 603.549H202.902L202.945 603.459H202.902L202.945 603.369H202.902L202.945 603.279H202.902L202.945 603.188H202.902L202.945 603.098H202.902L202.945 603.013H202.902L202.945 602.922H202.902L202.945 602.832H202.902L202.945 602.742H202.902L202.945 602.652H202.902L202.945 602.561H202.902L202.945 602.471H202.902L202.945 602.386H202.902L202.945 602.3H202.902L202.945 602.21H202.902L202.945 602.12H202.902L202.945 602.029H202.902L202.945 601.939H202.902L202.945 601.849H202.902L202.945 601.759H202.902L202.945 601.673H202.902L202.945 601.583H202.902L202.945 601.493H202.902L202.945 601.402H202.902L202.945 601.312H202.902L202.945 601.222H202.902L202.945 601.132H202.902L202.945 601.046H202.902L202.945 600.961H202.902L202.945 600.215Z" fill="#001B34"/>
<path d="M232.508 585.037L231.867 583.655H231.91L231.867 583.564H231.91L231.867 583.474H231.91L231.867 583.389H231.91L231.867 583.303H231.91L231.867 583.213H231.91L231.867 583.122H231.91L231.867 583.032H231.91L231.867 582.942H231.91L231.867 582.852H231.91L231.867 582.761H231.91L231.867 582.676H231.91L231.867 582.59H231.91L231.867 582.5H231.91L231.867 582.41H231.91L231.867 582.32H231.91L231.867 582.229H231.91L231.867 582.139H231.91L231.867 582.054H231.91L231.867 581.968H231.91L231.867 581.878H231.91L231.867 581.788H231.91L231.867 581.697H231.91L231.867 581.607H231.91L231.867 581.517H231.91L231.867 581.427H231.91L231.867 581.341H231.91L231.867 581.256H231.91L231.867 581.165H231.91L231.867 581.075H231.91L231.867 580.985H231.91L231.867 580.895H231.91L231.867 580.804H231.91L231.867 580.714H231.91L231.867 580.629H231.91L231.867 580.538H231.91L231.867 580.448H231.91L231.867 580.358H231.91L231.867 580.268H231.91L231.867 580.177H231.91L231.867 580.087H231.91L231.867 580.002H231.91L231.867 579.916H231.91L231.867 579.826H231.91L231.867 579.736H231.91L231.867 579.645H231.91L231.867 579.555H231.91L231.867 579.465H231.91L231.867 579.375H231.91L231.867 579.289H231.91L231.867 579.199H231.91L231.867 579.109H231.91L231.867 579.018H231.91L231.867 578.928H231.91L231.867 578.838H231.91L231.867 578.748H231.91L231.867 578.662H231.91L231.867 578.577H231.91L231.867 578.486H231.91L231.867 578.396H231.91L231.867 578.306H231.91L231.867 578.215H231.91L231.867 578.125H231.91L231.867 578.035H231.91L231.867 577.949H231.91L231.867 577.864H231.91L231.867 577.774H231.91L231.867 577.683H231.91L231.867 577.593H231.91L231.867 577.503H231.91L231.867 577.413H231.91L231.867 577.327H231.91L231.867 577.242H231.91L231.867 577.151H231.91L231.867 577.061H231.91L231.867 576.971H231.91L231.867 576.881H231.91L231.867 576.79H231.91L231.867 576.7H231.91L231.867 576.615H231.91L231.867 576.529H231.91L231.867 576.439H231.91L231.867 576.349H231.91L231.867 576.258H231.91L231.867 576.168H231.91L231.867 576.078H231.91L231.867 575.988H231.91L231.867 575.902H231.91L231.867 575.812H231.91L231.867 575.722H231.91L231.867 575.631H231.91L231.867 575.541H231.91L231.867 575.451H231.91L231.867 575.361H231.91L231.867 575.275H231.91L231.867 575.19H231.91L231.867 575.099H231.91L231.867 575.009H231.91L231.867 574.919H231.91L231.867 574.829H231.91L231.867 574.738H231.91L236.242 584.077C234.955 584.552 233.71 585.103 232.508 585.688V585.037Z" fill="#001B34"/>
<path d="M293.983 599.229C293.397 596.447 292.071 593.875 290.145 591.786L302.101 584.879L302.02 584.931L302.101 584.979L302.02 585.026L302.101 585.074L302.02 585.121L302.101 585.169L302.02 585.216L302.101 585.264L302.02 585.311L302.101 585.359L302.02 585.406L302.101 585.454L302.02 585.501L302.101 585.549L302.02 585.596L302.101 585.648L302.02 585.696L302.101 585.743L302.02 585.791L302.101 585.838L302.02 585.886L302.101 585.933L302.02 585.981L302.101 586.028L302.02 586.076L302.101 586.123L302.02 586.171L302.101 586.218L302.02 586.266L302.101 586.313L302.02 586.366L302.101 586.413L302.02 586.461L302.101 586.508L302.02 586.556L302.101 586.603L302.02 586.651L302.101 586.698L302.02 586.746L302.101 586.793L302.02 586.841L302.101 586.888L302.02 586.936L302.101 586.983L302.02 587.031L302.101 587.083L302.02 587.13L302.101 587.178L302.02 587.225L302.101 587.273L302.02 587.32L302.101 587.368L302.02 587.415L302.101 587.463L302.02 587.51L302.101 587.558L302.02 587.605L302.101 587.653L302.02 587.7L302.101 587.748L302.02 587.8L302.101 587.848L302.02 587.895L302.101 587.943L302.02 587.99L302.101 588.038L302.02 588.085L302.101 588.133L302.02 588.18L302.101 588.228L302.02 588.275L302.101 588.323L302.02 588.37L302.101 588.418L302.02 588.465L302.101 588.518L302.02 588.565L302.101 588.612L302.02 588.66L302.101 588.707L302.02 588.755L302.101 588.803L302.02 588.85L302.101 588.897L302.02 588.945L302.101 588.993L302.02 589.04L302.101 589.088L302.02 589.135L302.101 589.182L302.02 589.235L302.101 589.282L302.02 589.33L302.101 589.377L302.02 589.425L302.101 589.472L302.02 589.52L302.101 589.567L302.02 589.615L302.101 589.662L302.02 589.71L302.101 589.757L302.02 589.805L302.101 589.852L302.02 589.9L302.101 589.947L302.02 590L302.101 590.047L302.02 590.095L302.101 590.142L302.02 590.19L302.101 590.237L302.02 590.285L302.101 590.332L302.02 590.38L302.101 590.427L302.02 590.475L302.101 590.522L302.02 590.57L302.101 590.617L302.02 590.669L302.101 590.717L302.02 590.764L302.101 590.812L302.02 590.859L302.101 590.907L302.02 590.954L302.101 591.002L302.02 591.049L302.101 591.097L302.02 591.144L302.101 591.192L302.02 591.239L302.101 591.287L302.02 591.334L302.101 591.382L302.02 591.434L302.101 591.482L302.02 591.529L302.101 591.577L302.02 591.624L302.101 591.672L302.02 591.719L302.101 591.767L302.02 591.814L302.101 591.862L302.02 591.909L302.101 591.957L302.02 592.004L302.101 592.052L302.02 592.099L302.101 592.151L302.02 592.199L302.101 592.246L302.02 592.294L302.101 592.341L302.02 592.389L302.101 592.436L302.02 592.484L302.101 592.531L302.02 592.579L302.101 592.626L302.02 592.674L302.101 592.721L302.02 592.769L302.101 592.816L302.02 592.869L302.101 592.916L302.02 592.964L302.101 593.011L302.02 593.059L302.101 593.106L302.02 593.154L302.101 593.201L302.02 593.249L302.101 593.296L302.02 593.344L302.101 593.391L302.02 593.439L302.101 593.486L302.02 593.534L302.101 593.586L302.02 593.633L302.101 593.681L302.02 593.728L302.101 593.776L302.02 593.823L302.101 593.871L302.02 593.918L302.101 593.966L302.02 594.013L302.101 594.061L302.02 594.108L302.101 594.156L302.02 594.203L302.101 594.251L302.02 594.303L302.101 594.351L302.02 594.398L302.101 594.446L302.02 594.493L302.101 594.541L293.983 599.229Z" fill="#001B34"/>
<path d="M309.391 540.467L298.114 538.719L293.953 547.683L305.239 549.431C305.501 551.67 306.473 553.766 308.013 555.411L299.753 560.161L311.12 566.721L319.381 561.971C322.75 562.942 326.23 563.48 329.736 563.572L332.762 570.089L348.285 567.714L345.259 561.154C346.706 560.617 348.106 559.961 349.444 559.192C350.655 558.503 351.793 557.693 352.84 556.775L364.141 558.542L368.302 549.578L357.016 547.854C356.754 545.616 355.783 543.521 354.246 541.874L362.507 537.123L351.14 530.563L342.879 535.314C339.507 534.346 336.026 533.808 332.519 533.713L329.465 527.172L313.937 529.575L316.963 536.088C315.515 536.626 314.114 537.282 312.773 538.05C311.567 538.74 310.434 539.55 309.391 540.467ZM321.908 543.318C326.995 540.382 335.241 540.382 340.329 543.318C345.416 546.253 345.411 551.017 340.329 553.953C335.246 556.889 326.995 556.889 321.908 553.953C316.82 551.017 316.82 546.248 321.908 543.313V543.318Z" fill="#0171C3"/>
<path d="M320.433 552.956C316.866 550.02 317.35 545.945 321.892 543.323C326.979 540.387 335.225 540.387 340.313 543.323C344.364 545.665 345.186 549.165 342.773 551.978C342.07 551.183 341.238 550.514 340.313 549.997C335.225 547.061 326.979 547.061 321.892 549.997C320.966 550.514 320.134 551.183 319.431 551.978C319.735 552.333 320.071 552.66 320.433 552.956Z" fill="#001B34"/>
<path d="M349.439 559.22C350.649 558.531 351.787 557.721 352.835 556.802L364.136 558.55L368.263 549.648H368.297L368.263 549.71H368.297L368.263 549.772H368.297L368.263 549.834H368.297L368.263 549.895H368.297L368.263 549.957H368.297L368.263 550.019H368.297L368.263 550.081H368.297L368.263 550.142H368.297L368.263 550.204H368.297L368.263 550.266H368.297L368.263 550.328H368.297L368.263 550.389H368.297L368.263 550.451H368.297L368.263 550.513H368.297L368.263 550.575H368.297L368.263 550.636H368.297L368.263 550.698H368.297L368.263 550.76H368.297L368.263 550.822H368.297L368.263 550.883H368.297L368.263 550.945H368.297L368.263 551.007H368.297L368.263 551.069H368.297L368.263 551.13H368.297L368.263 551.192H368.297L368.263 551.249H368.297L368.263 551.311H368.297L368.263 551.373H368.297L368.263 551.435H368.297L368.263 551.496H368.297L368.263 551.558H368.297L368.263 551.62H368.297L368.263 551.682H368.297L368.263 551.743H368.297L368.263 551.805H368.297L368.263 551.867H368.297L368.263 551.924H368.297L368.263 551.986H368.297L368.263 552.047H368.297L368.263 552.109H368.297L368.263 552.171H368.297L368.263 552.232H368.297L368.263 552.294H368.297L368.263 552.356H368.297L368.263 552.418H368.297L368.263 552.48H368.297L368.263 552.541H368.297L368.263 552.598H368.297L368.263 552.66H368.297L368.263 552.722H368.297L368.263 552.784H368.297L368.263 552.845H368.297L368.263 552.907H368.297L368.263 552.969H368.297L368.263 553.031H368.297L368.263 553.092H368.297L368.263 553.154H368.297L368.263 553.216H368.297L368.263 553.278H368.297L368.263 553.339H368.297L368.263 553.401H368.297L368.263 553.463H368.297L368.263 553.525H368.297L368.263 553.586H368.297L368.263 553.648H368.297L368.263 553.71H368.297L368.263 553.772H368.297L368.263 553.833H368.297L368.263 553.895H368.297L368.263 553.957H368.297L368.263 554.019H368.297L368.263 554.08H368.297L368.263 554.142H368.297L368.263 554.204H368.297L368.263 554.266H368.297L368.263 554.327H368.297L368.263 554.389H368.297L368.263 554.451H368.297L368.263 554.513H368.297L368.263 554.574H368.297L368.263 554.636H368.297L368.263 554.698H368.297L368.263 554.76H368.297L368.263 554.821H368.297L368.263 554.883H368.297L368.263 554.945H368.297L368.263 555.007H368.297L368.263 555.068H368.297L368.263 555.13H368.297L368.263 555.192H368.297L368.263 555.254H368.297L368.263 555.315H368.297L368.263 555.377H368.297L368.263 555.439H368.297L368.263 555.501H368.297L368.263 555.562H368.297L368.263 555.624H368.297L368.263 555.686H368.297L368.263 555.748H368.297L368.263 555.809H368.297L364.136 565.224L352.849 563.476C351.802 564.395 350.664 565.205 349.453 565.894C348.935 566.193 348.398 566.473 347.847 566.74L348.289 567.69L345.254 561.163C346.7 560.632 348.1 559.982 349.439 559.22Z" fill="#001B34"/>
<path d="M311.113 566.744L319.374 561.993C322.744 562.964 326.223 563.502 329.729 563.594L332.755 570.111L348.278 567.736H348.25L348.278 567.793H348.25L348.278 567.855H348.25L348.278 567.917H348.25L348.278 567.979H348.25L348.278 568.04H348.25L348.278 568.102H348.25L348.278 568.164H348.25L348.278 568.226H348.25L348.278 568.287H348.25L348.278 568.349H348.25L348.278 568.411H348.25L348.278 568.468H348.25L348.278 568.53H348.25L348.278 568.591H348.25L348.278 568.653H348.25L348.278 568.715H348.25L348.278 568.777H348.25L348.278 568.838H348.25L348.278 568.9H348.25L348.278 568.962H348.25L348.278 569.024H348.25L348.278 569.085H348.25L348.278 569.147H348.25L348.278 569.209H348.25L348.278 569.271H348.25L348.278 569.332H348.25L348.278 569.394H348.25L348.278 569.456H348.25L348.278 569.518H348.25L348.278 569.579H348.25L348.278 569.641H348.25L348.278 569.703H348.25L348.278 569.765H348.25L348.278 569.822H348.25L348.278 569.883H348.25L348.278 569.945H348.25L348.278 570.007H348.25L348.278 570.069H348.25L348.278 570.13H348.25L348.278 570.192H348.25L348.278 570.254H348.25L348.278 570.316H348.25L348.278 570.377H348.25L348.278 570.439H348.25L348.278 570.501H348.25L348.278 570.563H348.25L348.278 570.625H348.25L348.278 570.686H348.25L348.278 570.748H348.25L348.278 570.81H348.25L348.278 570.871H348.25L348.278 570.933H348.25L348.278 570.995H348.25L348.278 571.057H348.25L348.278 571.118H348.25L348.278 571.18H348.25L348.278 571.242H348.25L348.278 571.304H348.25L348.278 571.365H348.25L348.278 571.427H348.25L348.278 571.489H348.25L348.278 571.551H348.25L348.278 571.613H348.25L348.278 571.674H348.25L348.278 571.736H348.25L348.278 571.798H348.25L348.278 571.86H348.25L348.278 571.921H348.25L348.278 571.983H348.25L348.278 572.045H348.25L348.278 572.107H348.25L348.278 572.168H348.25L348.278 572.23H348.25L348.278 572.292H348.25L348.278 572.354H348.25L348.278 572.415H348.25L348.278 572.477H348.25L348.278 572.539H348.25L348.278 572.601H348.25L348.278 572.662H348.25L348.278 572.724H348.25L348.278 572.786H348.25L348.278 572.848H348.25L348.278 572.909H348.25L348.278 572.971H348.25L348.278 573.033H348.25L348.278 573.095H348.25L348.278 573.156H348.25L348.278 573.218H348.25L348.278 573.28H348.25L348.278 573.342H348.25L348.278 573.403H348.25L348.278 573.465H348.25L348.278 573.527H348.25L348.278 573.589H348.25L348.278 573.65H348.25L348.278 573.712H348.25L348.278 573.774H348.25L348.278 573.836H348.25L348.278 573.897H348.25L348.278 573.959L332.755 576.363L329.729 569.845C326.223 569.751 322.744 569.213 319.374 568.245L311.113 572.995L299.746 566.858L299.803 566.824L299.746 566.791L299.803 566.758L299.746 566.725L299.803 566.691L299.746 566.658L299.803 566.625L299.746 566.592L299.803 566.558L299.746 566.525L299.803 566.492L299.746 566.459L299.803 566.425L299.746 566.392L299.803 566.364L299.746 566.33L299.803 566.297L299.746 566.264L299.803 566.231L299.746 566.197L299.803 566.164L299.746 566.131L299.803 566.098L299.746 566.064L299.803 566.031L299.746 565.998L299.803 565.965L299.746 565.931L299.803 565.898L299.746 565.865L299.803 565.832L299.746 565.798L299.803 565.765L299.746 565.732L299.803 565.699L299.746 565.665L299.803 565.632L299.746 565.604L299.803 565.57L299.746 565.537L299.803 565.504L299.746 565.471L299.803 565.437L299.746 565.404L299.803 565.371L299.746 565.338L299.803 565.304L299.746 565.271L299.803 565.238L299.746 565.205L299.803 565.171L299.746 565.138L299.803 565.105L299.746 565.072L299.803 565.038L299.746 565.005L299.803 564.972L299.746 564.939L299.803 564.905L299.746 564.877L299.803 564.844L299.746 564.81L299.803 564.777L299.746 564.744L299.803 564.711L299.746 564.677L299.803 564.644L299.746 564.611L299.803 564.577L299.746 564.544L299.803 564.511L299.746 564.478L299.803 564.445L299.746 564.411L299.803 564.378L299.746 564.345L299.803 564.312L299.746 564.278L299.803 564.245L299.746 564.212L299.803 564.178L299.746 564.15L299.803 564.117L299.746 564.084L299.803 564.05L299.746 564.017L299.803 563.984L299.746 563.95L299.803 563.917L299.746 563.884L299.803 563.851L299.746 563.817L299.803 563.784L299.746 563.751L299.803 563.718L299.746 563.684L299.803 563.651L299.746 563.618L299.803 563.585L299.746 563.552L299.803 563.518L299.746 563.485L299.803 563.452L299.746 563.423L299.803 563.39L299.746 563.357L299.803 563.324L299.746 563.29L299.803 563.257L299.746 563.224L299.803 563.19L299.746 563.157L299.803 563.124L299.746 563.091L299.803 563.057L299.746 563.024L299.803 562.991L299.746 562.958L299.803 562.924L299.746 562.891L299.803 562.858L299.746 562.825L299.803 562.791L299.746 562.758L299.803 562.725L299.746 562.696L299.803 562.663L299.746 562.63L299.803 562.597L299.746 562.563L299.803 562.53L299.746 562.497L299.803 562.464L299.746 562.43L299.803 562.397L299.746 562.364L299.803 562.331L299.746 562.297L299.803 562.264L299.746 562.231L299.803 562.198L299.746 562.164L299.803 562.131L299.746 562.098L299.803 562.065L299.746 562.031L299.803 561.998L299.746 561.97L299.803 561.936L299.746 561.903L299.803 561.87L299.746 561.837L299.803 561.803L299.746 561.77L299.803 561.737L299.746 561.704L299.803 561.67L299.746 561.637L299.803 561.604L299.746 561.571L299.803 561.537L299.746 561.504L299.803 561.471L299.746 561.438L299.803 561.404L299.746 561.371L299.803 561.338L299.746 561.305L299.803 561.271L299.746 561.238L299.803 561.21L299.746 561.176L299.803 561.143L299.746 561.11L299.803 561.077L299.746 561.043L299.803 561.01L299.746 560.977L299.803 560.944L299.746 560.91L299.803 560.877L299.746 560.844L299.803 560.811L299.746 560.777L299.803 560.744L299.746 560.711L299.803 560.678L299.746 560.644L299.803 560.611L299.746 560.578L299.803 560.545L299.746 560.511L299.803 560.483L299.746 560.45L299.803 560.416L299.746 560.383L299.803 560.35L299.746 560.317L299.803 560.283L299.746 560.25L299.803 560.217L299.746 560.184L311.113 566.744Z" fill="#001B34"/>
<path d="M293.974 547.691H293.945L305.232 549.439C305.493 551.678 306.466 553.774 308.006 555.42L305.355 556.949C305.303 556.669 305.26 556.394 305.232 556.113L293.945 554.365L293.974 554.303H293.945L293.974 554.242H293.945L293.974 554.18H293.945L293.974 554.118H293.945L293.974 554.057H293.945L293.974 553.995H293.945L293.974 553.933H293.945L293.974 553.871H293.945L293.974 553.81H293.945L293.974 553.748H293.945L293.974 553.686H293.945L293.974 553.624H293.945L293.974 553.562H293.945L293.974 553.501H293.945L293.974 553.439H293.945L293.974 553.377H293.945L293.974 553.315H293.945L293.974 553.254H293.945L293.974 553.192H293.945L293.974 553.13H293.945L293.974 553.068H293.945L293.974 553.007H293.945L293.974 552.945H293.945L293.974 552.883H293.945L293.974 552.821H293.945L293.974 552.76H293.945L293.974 552.698H293.945L293.974 552.636H293.945L293.974 552.575H293.945L293.974 552.513H293.945L293.974 552.451H293.945L293.974 552.389H293.945L293.974 552.327H293.945L293.974 552.266H293.945L293.974 552.204H293.945L293.974 552.142H293.945L293.974 552.08H293.945L293.974 552.019H293.945L293.974 551.957H293.945L293.974 551.895H293.945L293.974 551.833H293.945L293.974 551.772H293.945L293.974 551.71H293.945L293.974 551.648H293.945L293.974 551.586H293.945L293.974 551.525H293.945L293.974 551.463H293.945L293.974 551.401H293.945L293.974 551.339H293.945L293.974 551.278H293.945L293.974 551.216H293.945L293.974 551.154H293.945L293.974 551.092H293.945L293.974 551.031H293.945L293.974 550.969H293.945L293.974 550.907H293.945L293.974 550.845H293.945L293.974 550.784H293.945L293.974 550.722H293.945L293.974 550.66H293.945L293.974 550.598H293.945L293.974 550.537H293.945L293.974 550.475H293.945L293.974 550.413H293.945L293.974 550.351H293.945L293.974 550.29H293.945L293.974 550.228H293.945L293.974 550.166H293.945L293.974 550.104H293.945L293.974 550.043H293.945L293.974 549.981H293.945L293.974 549.919H293.945L293.974 549.857H293.945L293.974 549.796H293.945L293.974 549.734H293.945L293.974 549.672H293.945L293.974 549.61H293.945L293.974 549.549H293.945L293.974 549.487H293.945L293.974 549.425H293.945L293.974 549.363H293.945L293.974 549.306H293.945L293.974 549.245H293.945L293.974 549.183H293.945L293.974 549.121H293.945L293.974 549.059H293.945L293.974 548.998H293.945L293.974 548.936H293.945L293.974 548.874H293.945L293.974 548.812H293.945L293.974 548.751H293.945L293.974 548.689H293.945L293.974 548.632H293.945L293.974 548.57H293.945L293.974 548.508H293.945L293.974 548.447H293.945L293.974 548.385H293.945L293.974 548.323H293.945L293.974 548.261H293.945L293.974 548.2H293.945L293.974 547.691Z" fill="#001B34"/>
<path d="M314.396 537.21L313.949 536.259H313.978L313.949 536.198H313.978L313.949 536.136H313.978L313.949 536.074H313.978L313.949 536.013H313.978L313.949 535.951H313.978L313.949 535.889H313.978L313.949 535.827H313.978L313.949 535.765H313.978L313.949 535.704H313.978L313.949 535.642H313.978L313.949 535.58H313.978L313.949 535.518H313.978L313.949 535.457H313.978L313.949 535.395H313.978L313.949 535.333H313.978L313.949 535.271H313.978L313.949 535.21H313.978L313.949 535.148H313.978L313.949 535.086H313.978L313.949 535.024H313.978L313.949 534.963H313.978L313.949 534.901H313.978L313.949 534.839H313.978L313.949 534.777H313.978L313.949 534.716H313.978L313.949 534.654H313.978L313.949 534.592H313.978L313.949 534.53H313.978L313.949 534.469H313.978L313.949 534.407H313.978L313.949 534.345H313.978L313.949 534.283H313.978L313.949 534.222H313.978L313.949 534.165H313.978L313.949 534.103H313.978L313.949 534.041H313.978L313.949 533.979H313.978L313.949 533.918H313.978L313.949 533.856H313.978L313.949 533.794H313.978L313.949 533.732H313.978L313.949 533.671H313.978L313.949 533.609H313.978L313.949 533.547H313.978L313.949 533.485H313.978L313.949 533.424H313.978L313.949 533.362H313.978L313.949 533.3H313.978L313.949 533.238H313.978L313.949 533.177H313.978L313.949 533.115H313.978L313.949 533.053H313.978L313.949 532.991H313.978L313.949 532.93H313.978L313.949 532.868H313.978L313.949 532.806H313.978L313.949 532.744H313.978L313.949 532.683H313.978L313.949 532.621H313.978L313.949 532.559H313.978L313.949 532.497H313.978L313.949 532.436H313.978L313.949 532.374H313.978L313.949 532.312H313.978L313.949 532.25H313.978L313.949 532.189H313.978L313.949 532.132H313.978L313.949 532.07H313.978L313.949 532.008H313.978L313.949 531.946H313.978L313.949 531.885H313.978L313.949 531.823H313.978L313.949 531.761H313.978L313.949 531.699H313.978L313.949 531.638H313.978L313.949 531.576H313.978L313.949 531.514H313.978L313.949 531.452H313.978L313.949 531.391H313.978L313.949 531.329H313.978L313.949 531.267H313.978L313.949 531.205H313.978L313.949 531.144H313.978L313.949 531.082H313.978L313.949 531.02H313.978L313.949 530.958H313.978L313.949 530.897H313.978L313.949 530.835H313.978L313.949 530.773H313.978L313.949 530.711H313.978L313.949 530.65H313.978L313.949 530.588H313.978L313.949 530.526H313.978L313.949 530.464H313.978L313.949 530.403H313.978L313.949 530.341H313.978L313.949 530.279H313.978L313.949 530.217H313.978L313.949 530.156H313.978L313.949 530.094H313.978L316.975 536.545C316.082 536.883 315.221 537.255 314.391 537.661L314.396 537.21Z" fill="#001B34"/>
<path d="M356.873 547.016C356.468 545.094 355.553 543.317 354.223 541.871L362.483 537.121L362.426 537.154L362.483 537.188L362.426 537.221L362.483 537.254L362.426 537.287L362.483 537.321L362.426 537.354L362.483 537.387L362.426 537.42L362.483 537.454L362.426 537.487L362.483 537.52L362.426 537.553L362.483 537.587L362.426 537.62L362.483 537.648L362.426 537.682L362.483 537.715L362.426 537.748L362.483 537.781L362.426 537.815L362.483 537.848L362.426 537.881L362.483 537.914L362.426 537.948L362.483 537.981L362.426 538.014L362.483 538.047L362.426 538.081L362.483 538.114L362.426 538.147L362.483 538.18L362.426 538.214L362.483 538.247L362.426 538.28L362.483 538.313L362.426 538.347L362.483 538.38L362.426 538.408L362.483 538.442L362.426 538.475L362.483 538.508L362.426 538.541L362.483 538.575L362.426 538.608L362.483 538.641L362.426 538.674L362.483 538.708L362.426 538.741L362.483 538.774L362.426 538.807L362.483 538.841L362.426 538.874L362.483 538.907L362.426 538.94L362.483 538.974L362.426 539.007L362.483 539.04L362.426 539.073L362.483 539.107L362.426 539.135L362.483 539.168L362.426 539.202L362.483 539.235L362.426 539.268L362.483 539.301L362.426 539.335L362.483 539.368L362.426 539.401L362.483 539.434L362.426 539.468L362.483 539.501L362.426 539.534L362.483 539.567L362.426 539.601L362.483 539.634L362.426 539.667L362.483 539.7L362.426 539.734L362.483 539.767L362.426 539.8L362.483 539.833L362.426 539.862L362.483 539.895L362.426 539.928L362.483 539.962L362.426 539.995L362.483 540.028L362.426 540.061L362.483 540.095L362.426 540.128L362.483 540.161L362.426 540.194L362.483 540.228L362.426 540.261L362.483 540.294L362.426 540.327L362.483 540.361L362.426 540.394L362.483 540.427L362.426 540.46L362.483 540.494L362.426 540.527L362.483 540.56L362.426 540.589L362.483 540.622L362.426 540.655L362.483 540.688L362.426 540.722L362.483 540.755L362.426 540.788L362.483 540.822L362.426 540.855L362.483 540.888L362.426 540.921L362.483 540.955L362.426 540.988L362.483 541.021L362.426 541.054L362.483 541.087L362.426 541.121L362.483 541.154L362.426 541.187L362.483 541.221L362.426 541.254L362.483 541.287L362.426 541.315L362.483 541.349L362.426 541.382L362.483 541.415L362.426 541.449L362.483 541.482L362.426 541.515L362.483 541.548L362.426 541.582L362.483 541.615L362.426 541.648L362.483 541.681L362.426 541.715L362.483 541.748L362.426 541.781L362.483 541.814L362.426 541.848L362.483 541.881L362.426 541.914L362.483 541.947L362.426 541.981L362.483 542.014L362.426 542.042L362.483 542.076L362.426 542.109L362.483 542.142L362.426 542.175L362.483 542.209L362.426 542.242L362.483 542.275L362.426 542.308L362.483 542.342L362.426 542.375L362.483 542.408L362.426 542.441L362.483 542.475L362.426 542.508L362.483 542.541L362.426 542.574L362.483 542.608L362.426 542.641L362.483 542.674L362.426 542.707L362.483 542.741L362.426 542.774L362.483 542.802L362.426 542.836L362.483 542.869L362.426 542.902L362.483 542.935L362.426 542.969L362.483 543.002L362.426 543.035L362.483 543.068L362.426 543.102L362.483 543.135L362.426 543.168L362.483 543.201L362.426 543.235L362.483 543.268L362.426 543.301L362.483 543.334L362.426 543.368L362.483 543.401L362.426 543.434L362.483 543.467L362.426 543.496L362.483 543.529L362.426 543.562L362.483 543.596L362.426 543.629L362.483 543.662L362.426 543.695L362.483 543.729L362.426 543.762L362.483 543.795L356.873 547.016Z" fill="#001B34"/>
<path opacity="0.47" d="M395.589 339.793C376.845 314.969 377.201 277.49 396.425 253.027C409.474 236.402 429.676 225.899 440.34 207.677C451.299 188.986 450.258 165.634 457.915 145.375C469.23 115.506 501.085 94.7621 532.967 96.4912C513.995 109.027 509.635 137.509 514.741 159.668C519.848 181.827 530.279 203.246 529.467 225.965C528.664 247.944 517.15 268.441 501.944 284.335C486.739 300.229 467.971 312.18 449.398 323.965C440.848 329.404 432.06 334.929 422.218 337.423C412.376 339.916 401.707 347.868 395.589 339.793Z" fill="#C7DAFB"/>
<path opacity="0.1" d="M424.375 347.395C437.63 329.455 449.277 310.38 459.179 290.393C459.325 290.199 459.433 289.98 459.498 289.747C462.633 283.398 465.589 276.969 468.366 270.462C482.668 263.884 495.596 254.662 506.472 243.281C506.832 242.89 507.027 242.374 507.014 241.842C507 241.31 506.78 240.804 506.4 240.431C506.209 240.249 505.983 240.106 505.736 240.01C505.489 239.915 505.225 239.869 504.96 239.876C504.696 239.883 504.435 239.941 504.193 240.049C503.951 240.156 503.733 240.311 503.55 240.503C494.06 250.436 482.945 258.678 470.684 264.876C475.884 252.097 480.384 239.045 484.165 225.777C484.254 225.721 484.338 225.658 484.417 225.587C494.798 216.021 504.333 205.576 512.917 194.369C513.078 194.159 513.196 193.919 513.264 193.664C513.332 193.408 513.349 193.142 513.313 192.879C513.278 192.617 513.192 192.364 513.059 192.135C512.927 191.907 512.75 191.706 512.54 191.546C512.33 191.385 512.09 191.267 511.834 191.199C511.578 191.131 511.312 191.114 511.05 191.149C510.787 191.185 510.535 191.271 510.306 191.404C510.077 191.536 509.876 191.713 509.716 191.923C502.54 201.285 494.686 210.108 486.217 218.32C491.336 198.895 494.903 179.094 496.886 159.105C496.939 158.573 496.778 158.042 496.44 157.629C496.101 157.215 495.612 156.953 495.081 156.901C494.549 156.848 494.018 157.008 493.605 157.347C493.192 157.685 492.93 158.174 492.877 158.706C491.654 171.056 489.826 183.299 487.39 195.433L475.202 164.838C475.104 164.592 474.958 164.368 474.774 164.179C474.589 163.989 474.369 163.838 474.126 163.733C473.883 163.628 473.622 163.573 473.357 163.569C473.093 163.566 472.83 163.614 472.584 163.712C472.338 163.81 472.114 163.956 471.925 164.14C471.735 164.325 471.584 164.545 471.479 164.788C471.375 165.031 471.319 165.292 471.316 165.557C471.312 165.821 471.361 166.084 471.458 166.33L485.657 201.955C485.722 202.127 485.813 202.287 485.927 202.43C483.022 215.598 479.411 228.601 475.111 241.381C466.052 229.703 457.95 217.313 450.886 204.33C450.761 204.096 450.59 203.888 450.385 203.719C450.179 203.551 449.942 203.425 449.687 203.348C449.433 203.272 449.165 203.246 448.901 203.274C448.636 203.301 448.38 203.381 448.146 203.508C447.912 203.635 447.706 203.807 447.539 204.014C447.373 204.221 447.248 204.459 447.174 204.714C447.1 204.97 447.077 205.237 447.106 205.502C447.136 205.766 447.218 206.022 447.347 206.254C454.932 220.199 463.695 233.47 473.539 245.923C470.961 253.285 468.154 260.569 465.117 267.773C464.914 268.04 464.782 268.354 464.732 268.685C462.348 274.293 459.825 279.846 457.165 285.344C449.143 274.833 442.258 263.501 436.626 251.537C436.398 251.053 435.988 250.68 435.485 250.498C434.982 250.317 434.428 250.343 433.944 250.571C433.461 250.798 433.087 251.208 432.906 251.711C432.724 252.214 432.75 252.768 432.978 253.252C439.014 266.081 446.46 278.197 455.18 289.377C445.463 308.853 434.072 327.448 421.136 344.953C420.85 345.34 420.713 345.817 420.747 346.297C420.782 346.777 420.987 347.228 421.326 347.57C421.398 347.643 421.476 347.71 421.559 347.77C421.982 348.092 422.516 348.234 423.044 348.164C423.572 348.093 424.051 347.817 424.375 347.395Z" fill="#001B34"/>
<path opacity="0.7" d="M529.487 225.971C529.587 223.1 529.521 220.226 529.288 217.363C500.802 219.67 473.811 231.067 452.293 249.873C423.892 274.702 406.848 306.176 406.074 342.947C411.109 341.859 416.8 338.81 422.225 337.428C432.067 334.934 440.831 329.409 449.405 323.97C467.978 312.185 486.75 300.22 501.951 284.34C517.151 268.46 528.684 247.949 529.487 225.971Z" fill="#F1F2F6"/>
<path d="M407.922 354.155C445.241 356.109 482.182 345.854 513.154 324.942C544.126 304.029 567.443 273.598 579.577 238.252C560.225 232.436 539.805 231.097 519.86 234.337C499.915 237.577 480.968 245.311 464.453 256.953C430.988 280.528 410.002 313.28 407.922 354.155Z" fill="#F1F2F6"/>
<path opacity="0.1" d="M390.597 369.543C404.897 351.293 420.778 334.339 438.056 318.878C438.208 318.678 438.396 318.509 438.612 318.38C444.103 313.484 449.724 308.742 455.475 304.153C458.1 288.003 463.755 272.496 472.143 258.447C472.434 257.983 472.892 257.649 473.423 257.515C473.954 257.38 474.516 257.456 474.993 257.725C475.462 258.011 475.801 258.47 475.935 259.003C476.069 259.537 475.988 260.101 475.71 260.575C468.392 272.836 463.214 286.254 460.4 300.253C471.761 291.502 483.591 283.377 495.836 275.913C495.867 275.809 495.907 275.707 495.955 275.609C502.664 262.564 510.488 250.123 519.34 238.425C519.691 238.033 520.177 237.787 520.701 237.736C521.226 237.686 521.75 237.835 522.169 238.154C522.589 238.472 522.873 238.937 522.965 239.456C523.056 239.975 522.949 240.509 522.665 240.953C515.268 250.742 508.599 261.062 502.714 271.828C520.756 261.325 539.604 252.271 559.079 244.753C559.339 244.638 559.619 244.578 559.902 244.574C560.186 244.571 560.467 244.626 560.728 244.735C560.99 244.843 561.227 245.004 561.425 245.207C561.623 245.41 561.778 245.651 561.88 245.915C561.982 246.18 562.029 246.462 562.019 246.746C562.008 247.029 561.94 247.307 561.819 247.563C561.698 247.82 561.527 248.049 561.315 248.237C561.102 248.425 560.854 248.568 560.585 248.657C548.552 253.306 536.795 258.531 525.316 264.333L559.345 268.066C559.886 268.143 560.376 268.427 560.71 268.859C561.044 269.291 561.196 269.836 561.134 270.378C561.072 270.921 560.801 271.417 560.378 271.763C559.955 272.108 559.414 272.275 558.87 272.227L519.235 267.881C519.051 267.857 518.871 267.809 518.699 267.739C506.308 274.297 494.279 281.518 482.664 289.371C496.867 295.206 511.518 299.886 526.475 303.364C527.012 303.494 527.477 303.83 527.767 304.301C528.057 304.771 528.15 305.338 528.025 305.876C527.899 306.415 527.566 306.882 527.098 307.176C526.63 307.469 526.064 307.566 525.525 307.445C509.453 303.71 493.73 298.611 478.527 292.202C471.877 296.825 465.364 301.653 458.99 306.685C458.779 306.965 458.499 307.186 458.177 307.326C453.253 311.246 448.408 315.305 443.642 319.501C456.397 324.628 469.661 328.386 483.21 330.711C483.487 330.751 483.754 330.846 483.993 330.99C484.233 331.135 484.441 331.326 484.606 331.552C484.771 331.778 484.888 332.035 484.952 332.308C485.016 332.58 485.024 332.863 484.977 333.138C484.93 333.414 484.827 333.678 484.677 333.913C484.526 334.149 484.329 334.352 484.099 334.511C483.868 334.669 483.608 334.78 483.334 334.836C483.06 334.893 482.777 334.893 482.503 334.839C467.972 332.349 453.764 328.248 440.141 322.612C423.32 337.739 407.846 354.3 393.894 372.108C393.586 372.502 393.147 372.773 392.656 372.872C392.166 372.97 391.656 372.89 391.22 372.645C391.129 372.592 391.041 372.534 390.958 372.469C390.525 372.128 390.244 371.628 390.176 371.08C390.108 370.533 390.26 369.98 390.597 369.543Z" fill="#667685"/>
<path opacity="0.47" d="M190.515 496.421C209.848 470.813 209.477 432.161 189.655 406.933C176.198 389.804 155.373 378.955 144.358 360.163C133.057 340.883 134.131 316.8 126.212 295.904C114.541 265.099 81.6893 243.705 48.7852 245.491C68.3462 258.416 72.8493 287.767 67.5814 310.639C62.3135 333.511 51.5592 355.584 52.4142 379.04C53.2408 401.713 65.1161 422.851 80.7962 439.244C96.4764 455.636 115.838 467.958 134.995 480.095C143.835 485.705 152.875 491.405 163.021 493.975C173.167 496.544 184.202 504.776 190.515 496.421Z" fill="#F5F8FA"/>
<path opacity="0.1" d="M160.832 504.262C147.16 485.761 135.148 466.088 124.935 445.475C124.786 445.275 124.675 445.05 124.607 444.81C121.371 438.264 118.323 431.634 115.463 424.921C100.714 418.139 87.3789 408.63 76.1609 396.895C75.7875 396.492 75.5861 395.959 75.5994 395.41C75.6127 394.861 75.8397 394.339 76.2321 393.955C76.4298 393.767 76.6626 393.62 76.9172 393.522C77.1717 393.424 77.443 393.377 77.7157 393.384C77.9883 393.392 78.2568 393.452 78.506 393.563C78.7551 393.674 78.98 393.833 79.1677 394.031C88.9571 404.273 100.42 412.772 113.065 419.164C107.702 405.985 103.061 392.523 99.161 378.84C99.0701 378.782 98.9843 378.717 98.9045 378.645C88.2048 368.778 78.3767 358.006 69.5297 346.449C69.1952 346.008 69.0496 345.452 69.1249 344.904C69.2001 344.355 69.4901 343.859 69.9311 343.525C70.372 343.19 70.9278 343.045 71.4761 343.12C72.0244 343.195 72.5203 343.485 72.8548 343.926C80.2524 353.589 88.3494 362.696 97.0804 371.173C91.7991 351.139 88.1188 330.718 86.0744 310.101C86.044 309.565 86.2219 309.038 86.5709 308.63C86.9199 308.222 87.413 307.965 87.9472 307.912C88.4813 307.86 89.0152 308.015 89.4372 308.347C89.8592 308.679 90.1367 309.161 90.2117 309.692C91.4784 322.435 93.3642 335.059 95.8691 347.565L108.438 316.015C108.641 315.502 109.04 315.092 109.546 314.874C110.052 314.656 110.624 314.647 111.136 314.851C111.648 315.054 112.058 315.453 112.277 315.959C112.495 316.465 112.503 317.037 112.3 317.549L97.6552 354.296C97.5852 354.466 97.4925 354.626 97.3797 354.771C100.374 368.355 104.097 381.768 108.533 394.952C117.871 382.914 126.223 370.142 133.509 356.761C133.639 356.522 133.816 356.31 134.028 356.139C134.24 355.967 134.484 355.839 134.745 355.762C135.007 355.685 135.281 355.66 135.552 355.689C135.824 355.718 136.086 355.8 136.326 355.93C136.565 356.06 136.777 356.237 136.948 356.449C137.12 356.661 137.248 356.905 137.325 357.166C137.402 357.428 137.427 357.702 137.398 357.973C137.37 358.244 137.288 358.507 137.157 358.747C129.327 373.126 120.283 386.81 110.124 399.65C112.791 407.25 115.687 414.756 118.812 422.166C119.022 422.445 119.159 422.771 119.211 423.116C121.672 428.901 124.272 434.627 127.011 440.292C135.29 429.453 142.391 417.764 148.197 405.422C148.304 405.161 148.463 404.926 148.664 404.729C148.866 404.532 149.105 404.378 149.367 404.276C149.63 404.174 149.91 404.127 150.191 404.136C150.473 404.146 150.749 404.213 151.004 404.332C151.259 404.452 151.487 404.622 151.674 404.833C151.861 405.043 152.004 405.289 152.093 405.556C152.182 405.823 152.216 406.106 152.193 406.386C152.17 406.667 152.09 406.94 151.959 407.189C145.734 420.419 138.054 432.914 129.063 444.444C139.077 464.536 150.819 483.72 164.157 501.778C164.453 502.176 164.597 502.668 164.561 503.163C164.525 503.658 164.313 504.124 163.962 504.476C163.89 504.552 163.81 504.62 163.725 504.68C163.285 505.006 162.734 505.145 162.192 505.067C161.65 504.988 161.161 504.699 160.832 504.262Z" fill="black"/>
<path opacity="0.1" d="M52.4217 379.042C52.3184 376.081 52.3866 373.117 52.6259 370.164C82.0042 372.544 109.841 384.299 132.034 403.695C161.328 429.303 178.903 461.761 179.706 499.691C174.514 498.565 168.643 495.416 163.033 493.99C152.882 491.421 143.843 485.72 135.007 480.111C115.85 467.955 96.4886 455.633 80.8084 439.259C65.1283 422.886 53.2482 401.714 52.4217 379.042Z" fill="#667685"/>
<path d="M177.792 511.257C139.303 513.273 101.204 502.698 69.2608 481.132C37.3175 459.566 13.2676 428.182 0.75 391.73C20.71 385.726 41.7741 384.342 62.348 387.682C82.922 391.021 102.467 398.997 119.503 411.006C153.998 435.317 175.645 469.095 177.792 511.257Z" fill="#F5F8FA"/>
<path opacity="0.1" d="M195.659 527.126C180.916 508.306 164.544 490.821 146.732 474.875C146.572 474.671 146.378 474.497 146.157 474.362C140.492 469.314 134.694 464.423 128.763 459.688C126.057 443.031 120.224 427.037 111.572 412.548C111.272 412.064 110.795 411.716 110.242 411.578C109.69 411.439 109.105 411.522 108.613 411.807C108.121 412.102 107.767 412.58 107.628 413.136C107.49 413.692 107.577 414.28 107.872 414.771C115.418 427.422 120.751 441.268 123.642 455.713C111.926 446.687 99.727 438.306 87.0992 430.608C87.0663 430.501 87.0251 430.396 86.9757 430.295C80.0569 416.841 71.9881 404.011 62.8593 391.947C62.6925 391.709 62.4795 391.508 62.233 391.354C61.9865 391.201 61.7116 391.098 61.4247 391.053C61.1378 391.008 60.8448 391.022 60.5632 391.093C60.2816 391.163 60.0172 391.29 59.7857 391.466C59.5542 391.641 59.3604 391.861 59.2159 392.113C59.0713 392.365 58.979 392.643 58.9445 392.932C58.9099 393.22 58.9338 393.512 59.0148 393.791C59.0957 394.07 59.232 394.33 59.4155 394.555C67.0454 404.646 73.9246 415.283 79.9978 426.38C61.3904 415.529 41.9503 406.174 21.861 398.402C21.3269 398.196 20.7328 398.211 20.2094 398.443C19.6861 398.675 19.2763 399.105 19.0703 399.64C18.8644 400.174 18.879 400.768 19.1111 401.291C19.3431 401.815 19.7736 402.224 20.3077 402.43C32.7246 407.228 44.85 412.611 56.6842 418.581L21.5903 422.462C21.2939 422.473 21.003 422.545 20.7357 422.673C20.4684 422.802 20.2305 422.984 20.0368 423.208C19.8432 423.433 19.6979 423.695 19.6101 423.978C19.5223 424.262 19.494 424.56 19.5267 424.855C19.5595 425.15 19.6526 425.434 19.8005 425.692C19.9483 425.949 20.1475 426.173 20.3858 426.349C20.624 426.526 20.8962 426.651 21.1851 426.718C21.4741 426.785 21.7737 426.791 22.0653 426.737L62.9448 422.257C63.1338 422.231 63.3188 422.181 63.4959 422.11C76.2744 428.879 88.6791 436.332 100.656 444.436C86.0098 450.455 70.9011 455.281 55.4777 458.867C54.9373 459.012 54.4745 459.362 54.1867 459.842C53.899 460.322 53.8087 460.895 53.9349 461.441C54.061 461.986 54.3938 462.461 54.8632 462.766C55.3326 463.071 55.9019 463.182 56.4514 463.075C73.0286 459.226 89.2461 453.966 104.926 447.352C111.795 452.121 118.512 457.103 125.076 462.296C125.297 462.581 125.584 462.808 125.912 462.956C131.027 467.023 136.043 471.214 140.961 475.53C127.803 480.807 114.122 484.673 100.148 487.063C99.8671 487.111 99.5985 487.214 99.3575 487.365C99.1164 487.517 98.9075 487.714 98.7428 487.946C98.578 488.179 98.4606 488.441 98.3973 488.719C98.334 488.996 98.3259 489.284 98.3736 489.564C98.4214 489.845 98.5239 490.114 98.6754 490.355C98.8269 490.596 99.0244 490.805 99.2567 490.969C99.4889 491.134 99.7513 491.252 100.029 491.315C100.307 491.378 100.594 491.386 100.875 491.339C115.853 488.768 130.5 484.538 144.542 478.727C161.9 494.332 177.867 511.418 192.262 529.791C192.579 530.198 193.031 530.478 193.537 530.58C194.043 530.681 194.568 530.596 195.017 530.342C195.114 530.289 195.206 530.229 195.293 530.161C195.516 529.986 195.703 529.769 195.842 529.521C195.981 529.274 196.071 529.001 196.104 528.719C196.138 528.438 196.117 528.152 196.04 527.878C195.964 527.605 195.834 527.349 195.659 527.126Z" fill="black"/>
<path fill-rule="evenodd" clip-rule="evenodd" d="M441.994 32.2006L119.826 218.201C108.426 224.776 99.125 240.84 99.125 253.903L100.674 605.361C100.674 618.428 109.989 623.739 121.375 617.165L443.542 431.164C454.942 424.59 464.243 408.525 464.243 395.462L462.695 44.0047C462.695 30.9371 453.38 25.6265 441.994 32.2006Z" fill="#C7DAF2"/>
<path fill-rule="evenodd" clip-rule="evenodd" d="M438.16 35.1605L123.726 216.701C112.61 223.118 103.523 238.794 103.523 251.543L104.046 599.252C104.046 612.001 113.138 617.184 124.248 610.766L438.706 429.24C449.822 422.823 458.909 407.143 458.909 394.393L458.386 46.6843C458.362 33.9064 449.275 28.7431 438.16 35.1605Z" fill="white"/>
<path fill-rule="evenodd" clip-rule="evenodd" d="M438.16 35.1607L123.726 216.701C112.61 223.118 103.523 238.794 103.523 251.543V309.799L458.358 104.931V46.675C458.362 33.9067 449.275 28.7433 438.16 35.1607Z" fill="#001B34"/>
<path fill-rule="evenodd" clip-rule="evenodd" d="M182.538 231.763C185.935 229.806 188.714 225.032 188.714 221.137C188.714 217.242 185.949 215.67 182.538 217.627C179.128 219.584 176.363 224.358 176.363 228.253C176.363 232.148 179.147 233.72 182.538 231.763Z" fill="#F0F4FF"/>
<path fill-rule="evenodd" clip-rule="evenodd" d="M157.886 245.996C161.282 244.039 164.061 239.265 164.061 235.374C164.061 231.484 161.297 229.902 157.886 231.859C154.476 233.816 151.711 238.595 151.711 242.485C151.711 246.376 154.495 247.958 157.886 245.996Z" fill="#F0F4FF"/>
<path fill-rule="evenodd" clip-rule="evenodd" d="M133.249 260.222C136.641 258.265 139.425 253.491 139.425 249.601C139.425 245.711 136.655 244.129 133.249 246.086C129.844 248.043 127.074 252.822 127.074 256.712C127.074 260.602 129.853 262.184 133.249 260.222Z" fill="#F0F4FF"/>
<path d="M166.917 472.395L189.134 486.028L241.067 430.404L261.782 355.276C262.215 353.702 262.125 352.029 261.525 350.51C260.925 348.992 259.849 347.709 258.457 346.854L244.824 338.489C243.685 337.79 242.379 337.408 241.043 337.384C239.706 337.36 238.388 337.694 237.224 338.352L173.178 374.614C171.272 375.694 169.686 377.26 168.583 379.153C167.48 381.045 166.899 383.197 166.898 385.387L166.917 472.395Z" fill="#D2E6F9"/>
<path d="M189.129 486.032L263.283 444.041V356.078C263.283 355.44 263.116 354.813 262.798 354.26C262.48 353.707 262.022 353.246 261.471 352.925C260.92 352.604 260.294 352.433 259.655 352.43C259.017 352.426 258.39 352.59 257.835 352.905L195.409 388.27C193.503 389.348 191.917 390.913 190.814 392.805C189.71 394.697 189.129 396.848 189.129 399.038V486.032Z" fill="#0171C3"/>
<path d="M217.297 414.67C217.297 408.139 221.468 400.482 226.607 397.57C231.747 394.658 235.917 397.57 235.917 404.13C235.917 408.752 233.808 413.906 230.768 417.573L233.756 432.569L219.458 440.644L222.446 422.266C219.406 422.062 217.297 419.292 217.297 414.67Z" fill="white"/>
<path d="M195.187 377.718C196.446 377.718 197.655 377.217 198.545 376.327C199.436 375.436 199.937 374.228 199.937 372.968V340.719C199.937 329.319 207.618 315.543 216.709 310.703C220.006 308.941 222.956 308.656 225.032 309.9C227.544 311.411 228.989 315.126 228.989 320.108V352.333C228.989 353.599 229.491 354.812 230.386 355.707C231.281 356.602 232.495 357.105 233.76 357.105C235.026 357.105 236.239 356.602 237.134 355.707C238.029 354.812 238.532 353.599 238.532 352.333V320.108C238.532 311.696 235.396 304.993 229.939 301.721C224.884 298.681 218.586 298.871 212.216 302.286C199.979 308.822 190.398 325.709 190.398 340.719V372.949C190.396 373.577 190.518 374.2 190.758 374.781C190.998 375.362 191.351 375.89 191.796 376.333C192.242 376.777 192.771 377.128 193.353 377.365C193.935 377.603 194.558 377.723 195.187 377.718Z" fill="#0171C3"/>
<path d="M362.707 275.821C367.239 269.821 370.231 262.701 370.231 256.868C370.231 247.614 362.707 245.064 353.454 251.167C344.2 257.271 336.676 269.783 336.676 279.036C336.676 284.87 339.674 288.028 344.2 288.062C333.954 298.621 326.625 313.313 326.625 324.856L331.1 321.897C331.1 309.546 341.137 292.921 353.468 284.741C365.799 276.562 375.841 279.991 375.841 292.342L380.311 289.382C380.311 277.811 372.972 272.847 362.707 275.821ZM353.454 280.262C346.671 284.746 341.151 282.879 341.151 276.091C341.151 269.303 346.671 260.14 353.454 255.666C360.237 251.191 365.756 253.049 365.756 259.836C365.756 266.624 360.251 275.778 353.468 280.262H353.454Z" fill="#001B34"/>
<path d="M440.14 290.573L284.047 380.692V358.761L440.14 268.637V290.573Z" fill="#F1F2F6"/>
<path d="M440.14 326.201L284.047 416.32V394.389L440.14 304.27V326.201Z" fill="#F1F2F6"/>
<path d="M338.063 378.904C340.653 378.904 342.752 376.805 342.752 374.216C342.752 371.626 340.653 369.527 338.063 369.527C335.474 369.527 333.375 371.626 333.375 374.216C333.375 376.805 335.474 378.904 338.063 378.904Z" fill="#001B34"/>
<path d="M355.63 368.603C358.219 368.603 360.318 366.504 360.318 363.915C360.318 361.326 358.219 359.227 355.63 359.227C353.04 359.227 350.941 361.326 350.941 363.915C350.941 366.504 353.04 368.603 355.63 368.603Z" fill="#001B34"/>
<path d="M377.875 353.747C377.785 356.331 380.364 358.354 377.775 358.259C377.149 358.254 376.53 358.123 375.955 357.874C375.381 357.625 374.861 357.264 374.429 356.811C373.996 356.358 373.658 355.823 373.435 355.238C373.213 354.653 373.109 354.028 373.132 353.402C373.154 352.777 373.302 352.161 373.566 351.594C373.831 351.026 374.206 350.516 374.67 350.096C375.135 349.676 375.678 349.352 376.27 349.146C376.861 348.939 377.488 348.853 378.113 348.892C380.697 348.987 377.97 351.158 377.875 353.747Z" fill="#001B34"/>
<path d="M390.759 347.971C393.348 347.971 395.447 345.872 395.447 343.282C395.447 340.693 393.348 338.594 390.759 338.594C388.169 338.594 386.07 340.693 386.07 343.282C386.07 345.872 388.169 347.971 390.759 347.971Z" fill="#001B34"/>
<path d="M408.317 337.654C410.907 337.654 413.006 335.555 413.006 332.966C413.006 330.376 410.907 328.277 408.317 328.277C405.728 328.277 403.629 330.376 403.629 332.966C403.629 335.555 405.728 337.654 408.317 337.654Z" fill="#001B34"/>
<path d="M422.781 393.197L315.238 455.291C314.735 455.576 314.167 455.726 313.588 455.725C313.01 455.724 312.442 455.572 311.94 455.284C311.438 454.997 311.02 454.583 310.727 454.084C310.434 453.585 310.277 453.019 310.27 452.44V431.397C310.274 430.82 310.428 430.253 310.718 429.753C311.008 429.253 311.423 428.838 311.923 428.547L419.465 366.406C419.968 366.119 420.537 365.968 421.117 365.969C421.696 365.969 422.265 366.121 422.767 366.409C423.27 366.697 423.688 367.111 423.981 367.61C424.274 368.11 424.432 368.677 424.439 369.256V390.295C424.443 390.882 424.292 391.459 424.001 391.969C423.71 392.479 423.289 392.903 422.781 393.197Z" fill="#0171C3"/>
<path d="M344.184 430.983V418.234L347.186 416.5V426.475L351.461 424.005V426.784L344.184 430.983Z" fill="white"/>
<path d="M363.618 413.344C363.659 415.331 363.184 417.295 362.241 419.044C361.29 420.721 359.897 422.105 358.212 423.043C356.471 424.05 355.134 424.261 354.203 423.675C353.272 423.089 352.807 421.723 352.807 419.576C352.768 417.595 353.246 415.639 354.194 413.899C355.147 412.22 356.542 410.834 358.227 409.89C359.994 408.869 361.338 408.655 362.25 409.235C363.162 409.814 363.618 411.192 363.618 413.344ZM355.97 417.761C355.97 420.228 356.718 421.029 358.212 420.165C358.966 419.73 359.56 419.064 359.904 418.265C360.303 417.276 360.491 416.214 360.455 415.149C360.455 413.871 360.269 413.04 359.894 412.645C359.519 412.251 358.944 412.27 358.227 412.698C356.723 413.584 355.97 415.272 355.97 417.761Z" fill="white"/>
<path d="M370.09 408.542L374.882 405.772V412.646C373.597 413.901 372.161 414.992 370.607 415.895C368.897 416.883 367.574 417.078 366.636 416.479C365.686 415.876 365.211 414.522 365.211 412.408C365.196 410.404 365.726 408.434 366.746 406.708C367.789 404.955 369.272 403.506 371.049 402.504C371.677 402.134 372.341 401.827 373.03 401.588C373.553 401.402 374.097 401.281 374.65 401.227L373.7 404.48C372.762 404.543 371.857 404.844 371.068 405.354C370.194 405.859 369.487 406.609 369.035 407.511C368.54 408.511 368.294 409.616 368.318 410.732C368.318 411.924 368.532 412.708 368.969 413.107C369.406 413.506 370.023 413.434 370.84 412.959C371.274 412.711 371.686 412.425 372.07 412.104V410.057L370.09 411.202V408.542Z" fill="white"/>
<path d="M377.148 411.95V399.196L380.17 397.453V410.207L377.148 411.95Z" fill="white"/>
<path d="M393.15 402.715L389.212 404.986L385.15 398.335L385.084 398.378C385.179 399.732 385.226 400.787 385.226 401.528V407.275L382.566 408.809V396.07L386.49 393.804L390.532 400.335L390.58 400.307C390.507 399.062 390.471 398.05 390.471 397.271V391.505L393.15 389.961V402.715Z" fill="white"/>
<path fill-rule="evenodd" clip-rule="evenodd" d="M574.297 51.0484L438.89 129.226C434.102 131.99 430.188 138.726 430.188 144.236V256.021C430.188 261.512 434.102 263.745 438.89 260.98L574.297 182.803C579.085 180.043 582.999 173.302 582.999 167.797V56.0075C582.999 50.5259 579.085 48.2838 574.297 51.0484Z" fill="#F1F2F6"/>
<path fill-rule="evenodd" clip-rule="evenodd" d="M571.872 55.2718L442.469 129.991C437.899 132.632 434.156 139.083 434.156 144.332V251.157C434.156 256.383 437.899 258.539 442.469 255.908L571.872 181.198C576.446 178.561 580.184 172.106 580.184 166.857V60.0219C580.184 54.7968 576.47 52.6402 571.872 55.2718Z" fill="#0171C3"/>
<path d="M509.201 129.654C511.847 126.153 513.595 121.992 513.595 118.586C513.595 113.185 509.201 111.693 503.8 115.261C498.399 118.828 494.001 126.134 494.001 131.535C494.001 134.94 495.749 136.788 498.395 136.798C492.41 142.973 488.125 151.523 488.125 158.283L490.738 156.554C490.738 149.352 496.594 139.619 503.8 134.855C511.006 130.091 516.863 132.081 516.863 139.282L519.476 137.553C519.461 130.803 515.186 127.905 509.201 129.654ZM503.786 132.228C499.825 134.85 496.599 133.758 496.599 129.796C496.599 125.834 499.825 120.481 503.786 117.859C507.748 115.237 510.968 116.334 510.968 120.296C510.968 124.257 507.762 129.63 503.786 132.228Z" fill="white"/>
<path d="M566.315 136.833L448.754 204.708V188.187L566.315 120.312V136.833Z" fill="white"/>
<path d="M566.315 162.715L448.754 230.59V214.074L566.315 146.199V162.715Z" fill="white"/>
<path d="M489.447 202.406C491.397 202.406 492.977 200.826 492.977 198.877C492.977 196.928 491.397 195.348 489.447 195.348C487.498 195.348 485.918 196.928 485.918 198.877C485.918 200.826 487.498 202.406 489.447 202.406Z" fill="#001B34"/>
<path d="M502.67 194.641C504.619 194.641 506.199 193.061 506.199 191.111C506.199 189.162 504.619 187.582 502.67 187.582C500.721 187.582 499.141 189.162 499.141 191.111C499.141 193.061 500.721 194.641 502.67 194.641Z" fill="#001B34"/>
<path d="M515.9 186.902C517.849 186.902 519.43 185.322 519.43 183.373C519.43 181.424 517.849 179.844 515.9 179.844C513.951 179.844 512.371 181.424 512.371 183.373C512.371 185.322 513.951 186.902 515.9 186.902Z" fill="#001B34"/>
<path d="M529.127 179.121C531.076 179.121 532.656 177.541 532.656 175.592C532.656 173.643 531.076 172.062 529.127 172.062C527.178 172.062 525.598 173.643 525.598 175.592C525.598 177.541 527.178 179.121 529.127 179.121Z" fill="#001B34"/>
<path d="M542.357 171.348C544.307 171.348 545.887 169.768 545.887 167.818C545.887 165.869 544.307 164.289 542.357 164.289C540.408 164.289 538.828 165.869 538.828 167.818C538.828 169.768 540.408 171.348 542.357 171.348Z" fill="#001B34"/>
<path d="M155.096 704.899C176.173 698.342 190.548 684.311 187.203 673.559C183.859 662.808 164.061 659.407 142.984 665.964C121.907 672.521 107.532 686.552 110.876 697.303C114.221 708.055 134.019 711.455 155.096 704.899Z" fill="#F5F8FA"/>
<path d="M509.055 656.596C535.558 648.351 553.634 630.71 549.43 617.193C545.225 603.676 520.331 599.401 493.828 607.646C467.325 615.891 449.249 633.532 453.454 647.049C457.658 660.566 482.552 664.84 509.055 656.596Z" fill="#F5F8FA"/>
<path d="M167.406 449.793C179.367 454.705 179.88 483.248 182.54 486.887C186.711 492.587 203.621 514.295 205.673 517.786C207.725 521.277 199.926 526.897 197.46 524.398C195.498 522.408 178.797 505.635 172.052 498.862C170.244 497.047 169.185 494.619 169.083 492.059L167.406 449.793Z" fill="#9EBBDB"/>
<path d="M122.996 677.125C122.996 677.125 124.611 616.01 124.611 609.502C124.611 602.994 117.766 559.364 124.036 539.371L171.594 543.789C171.594 543.789 172.544 563.963 172.544 565.483C172.544 567.858 165.343 630.754 166.26 661.321L147.639 663.084C147.639 663.084 147.297 622.56 150.912 606.771C151.092 597.27 150.361 575.866 150.361 575.866C150.361 575.866 144.081 604.514 143.412 611.188C142.742 617.862 138.595 678.317 138.595 678.317C138.595 678.317 129.337 677.125 122.996 677.125Z" fill="#073669"/>
<path d="M111.147 494.292C111.147 494.292 108.957 486.488 114.866 474.028C118.248 466.903 127.867 460.913 139.434 455.289C161.493 444.558 170.11 447.285 173.031 457.702C174.39 462.557 175.625 480.977 174.2 491.147C171.868 507.811 170.903 535.409 172.338 545.831C172.623 547.907 166.377 553.118 153.394 555.953C143.989 558.01 122.561 557.288 120.457 548.576L121.687 497.921L111.147 494.292Z" fill="#C7DAF2"/>
<path d="M159.457 458.481C159.457 462.029 154.939 464.908 149.367 464.908C143.796 464.908 139.273 462.029 139.273 458.481C139.273 454.932 143.791 452.059 149.367 452.059C154.944 452.059 159.457 454.937 159.457 458.481Z" fill="#FCAE6E"/>
<path d="M140.828 441.93H158.769V460.83C158.769 460.937 158.727 461.04 158.651 461.116C158.575 461.192 158.473 461.234 158.366 461.234H141.602C141.397 461.233 141.2 461.15 141.055 461.004C140.91 460.858 140.828 460.661 140.828 460.455V441.93Z" fill="#FCAE6E"/>
<path d="M142.777 441.93C142.777 450.147 147.622 457.453 155.403 460.094C155.785 460.224 156.193 460.261 156.592 460.202C156.991 460.143 157.37 459.989 157.698 459.754C158.026 459.519 158.293 459.21 158.477 458.851C158.661 458.492 158.757 458.094 158.757 457.691V441.93H142.777Z" fill="#F29955"/>
<path d="M165.41 434.126C164.622 446.001 162.375 455.307 156.276 455.307C147.222 455.307 140.828 445.806 140.828 433.874C140.828 421.942 141.351 415.453 150.376 415.453C159.401 415.453 166.184 422.445 165.41 434.126Z" fill="#FCAE6E"/>
<path d="M140.829 450.428C140.805 445.803 141.251 441.188 142.159 436.653C143.038 432.136 143.703 430.544 147.579 429.675C148.723 429.419 157.63 432.216 159.815 431.95C162.627 431.608 164.817 426.488 165.396 430.397C165.396 430.397 166.988 427.704 165.016 421.006C163.378 415.458 138.834 407.615 135.789 428.867C134.226 439.641 139.271 444.752 140.829 450.428Z" fill="#111B33"/>
<path d="M145.21 438.931C145.21 441.848 145.343 444.76 143.063 444.76C140.783 444.76 137.914 441.088 137.914 438.171C137.914 435.255 138.807 433.645 141.082 433.645C143.358 433.645 145.21 436.01 145.21 438.931Z" fill="#FCAE6E"/>
<path d="M167.062 544.225H166.834C161.305 544.073 160.374 537.233 165.799 536.15C168.05 535.698 170.359 535.451 172.226 534.639L175.109 530.221C175.736 529.271 178.985 526.113 179.925 526.763C180.69 527.291 178.363 530.905 178.025 531.775C178.025 531.775 175.579 535.893 178.633 534.416C181.279 533.143 187.906 522.132 187.54 530.297C187.15 539.441 174.653 544.301 167.062 544.225Z" fill="#FCAE6E"/>
<path d="M110.895 489.07C110.895 489.07 113.165 526.287 113.916 529.921C114.666 533.555 126.67 552.332 166.708 545.744C166.708 545.744 168.086 538.571 167.407 533.812C159.555 533.337 135.396 533.384 129.985 525.043C128.147 522.193 127.553 505.064 127.553 505.064C127.819 502.842 127.565 500.588 126.811 498.481C126.057 496.374 124.824 494.471 123.208 492.923C121.593 491.374 119.64 490.222 117.503 489.557C115.366 488.893 113.103 488.734 110.895 489.094V489.07Z" fill="#9EBBDB"/>
<path d="M147.767 662.158C147.767 662.158 147.914 669.43 147.767 671.32C147.619 673.211 165.095 684.098 172.942 685.409C177.265 686.126 179.953 684.492 181.492 682.711C181.809 682.327 182.045 681.884 182.187 681.407C182.329 680.931 182.375 680.43 182.321 679.936C182.267 679.442 182.114 678.963 181.872 678.528C181.631 678.094 181.304 677.712 180.913 677.405C175.029 672.674 169.709 667.282 165.057 661.336L147.767 662.158Z" fill="#111B33"/>
<path d="M124.194 676.824C124.194 676.824 122.417 685.94 122.769 688.125C123.12 690.31 124.498 704.276 136.43 703.692C148.362 703.107 140.501 688.705 139.755 686.814C139.009 684.923 137.428 676.838 137.428 676.838L124.194 676.824Z" fill="#111B33"/>
<path d="M158.647 451.393C158.5 450.89 158.498 450.356 158.641 449.852C158.783 449.347 159.066 448.894 159.455 448.543C160.158 447.859 161.497 447.484 161.935 448.358C162.372 449.232 161.298 451.16 160.699 451.554C160.101 451.949 158.752 451.93 158.647 451.393Z" fill="#FCAE6E"/>
<path d="M180.715 531.001L191.726 529.852L208.09 511.469L197.074 512.618L180.715 531.001Z" fill="url(#paint0_linear_499_907)"/>
<path d="M180.717 530.998L178.043 528.063L194.402 509.68L197.077 512.615L180.717 530.998Z" fill="#1B2851"/>
<path d="M208.088 511.47L205.414 508.539L194.398 509.684L197.073 512.619L208.088 511.47Z" fill="#1B2851"/>
<path d="M204.669 515.322C203.187 516.985 201.415 517.298 198.356 517.697C195.15 518.101 192.01 518.072 191.488 519.455C190.899 521.022 194.072 521.013 194.072 521.013C194.072 521.013 199.069 521.013 198.822 521.45C198.575 521.887 194.138 522.485 192.609 522.556C189.839 522.685 188.666 522.599 188.543 523.92C188.353 525.886 195.953 524.528 195.815 525.278C195.677 526.029 189.716 526.675 189.227 527.012C188.737 527.349 189.174 528.024 191.426 528.399C193.677 528.774 198.736 528.603 201.073 527.107C206.161 523.844 209.082 518.082 208.099 515.332L207.111 512.586L204.669 515.322Z" fill="#FCAE6E"/>
<path d="M146.577 445.49C145.243 440.944 142.853 433.653 146.577 430H142.777V441.685C142.777 442.185 142.875 442.679 143.065 443.141C143.256 443.603 143.536 444.022 143.889 444.375C144.242 444.729 144.661 445.009 145.122 445.2C145.583 445.392 146.078 445.49 146.577 445.49Z" fill="#111B33"/>
<path d="M421.311 392.903C421.311 392.903 420.836 388.343 420.432 386.842C420.028 385.341 419.211 379.427 417.639 377.479C416.067 375.532 416.067 380.329 415.635 381.678C415.202 383.027 413.117 383.778 411.545 381.811C409.972 379.845 408.395 374.629 406.97 372.102C405.545 369.575 398.833 378.311 399.674 383.027C400.515 387.744 402.424 391.283 405.935 394.361C409.322 397.33 413.426 398.081 414.732 399.586L421.311 392.903Z" fill="#FCAE6E"/>
<path d="M510.881 620.504C510.881 620.504 511.503 622.357 503.504 622.794C495.505 623.231 487.002 623.231 485.929 628.465C484.855 633.7 492.213 639.837 500.939 641.034C508.454 642.065 521.426 641.29 528.756 639.832C529.981 639.59 531.031 639.02 531.197 637.785C531.757 633.723 531.4 629.587 530.152 625.682C527.796 618.642 510.881 620.504 510.881 620.504Z" fill="#111B33"/>
<path d="M489.022 626.438C489.022 626.438 489.644 628.29 481.645 628.727C473.645 629.164 465.138 629.164 464.069 634.399C463 639.633 469.195 643.776 477.92 644.977C485.435 646.013 500.479 646.721 506.454 646.968C507.046 647 507.628 646.806 508.083 646.424C508.537 646.043 508.829 645.504 508.901 644.916C509.441 640.926 509.582 636.892 509.324 632.874C508.758 625.454 489.022 626.438 489.022 626.438Z" fill="#111B33"/>
<path d="M528.585 496.84C528.585 496.84 529.454 561.142 530.01 568.966C530.565 576.789 532.328 624.19 532.328 624.19C532.328 624.19 518.89 630.959 508.463 626.323L502.492 504.079L528.585 496.84Z" fill="#033F75"/>
<path d="M509.761 500.873V565.275C510.341 584.104 511.405 633.496 511.405 633.496C496.052 635.23 486.3 626.875 486.3 626.875C487.169 618.476 486.3 570.97 486.3 570.97C483.156 546.322 481.27 506.72 480.947 499.438C480.909 498.673 480.895 498.27 480.895 498.27L509.761 500.873Z" fill="#073669"/>
<path d="M537.85 406.016C537.85 406.016 547.701 436.673 545.573 452.895C545.573 452.895 537.66 459.654 528.582 463.901L537.85 406.016Z" fill="#9EBBDB"/>
<path d="M484.317 377.694C484.35 389.493 492.131 399.036 501.702 399.013C511.273 398.989 518.992 389.403 518.992 377.604C518.992 365.804 511.178 356.261 501.607 356.285C492.036 356.309 484.274 365.899 484.317 377.694Z" fill="#FCAE6E"/>
<path d="M514.074 394.198C514.074 394.198 501.567 393.343 491.749 400.202C491.202 401.565 490.267 402.738 489.06 403.575C487.098 404.881 472.582 410.401 472.582 410.401C472.582 410.401 481.655 471.616 476.734 499.423C476.734 499.423 497.876 515.934 530.885 499.423C530.885 499.423 535.711 423.582 537.835 406.007C537.854 406.007 532.353 399.205 514.074 394.198Z" fill="#C7DAF2"/>
<path d="M472.584 410.411L447.917 416.082L421.572 389.211C421.572 389.211 412.324 392.061 410.457 399.979L441.879 435.762L480.521 432.39C480.521 432.39 489.77 413.118 472.584 410.411Z" fill="#9EBBDB"/>
<path d="M495.348 355.309C495.348 355.309 476.433 359.186 481.682 369.27C484.746 375.155 502.849 377.127 502.849 377.127C502.849 377.127 493.258 382.39 500.34 384.836C500.34 384.836 501.466 394.165 514.306 393.353C514.306 393.353 533.625 368.178 510.031 356.269C505.282 354.787 500.249 354.458 495.348 355.309Z" fill="#111B33"/>
<path d="M229.397 52.6958L229.397 52.6958L229.396 52.6866C229.055 50.3239 227.963 48.5547 226.38 47.6764C224.787 46.7926 222.805 46.8716 220.827 47.9855C218.853 49.0976 217.252 51.0712 216.224 53.3255C215.196 55.582 214.72 58.1662 215.043 60.5398C215.367 62.9156 216.458 64.6994 218.036 65.587C219.625 66.4806 221.602 66.4051 223.55 65.2753C225.522 64.1407 227.128 62.1754 228.167 59.9253C229.206 57.6731 229.698 55.0937 229.397 52.6958ZM232.058 50.7111C232.518 54.1215 231.815 57.883 230.287 61.2018C228.757 64.5227 226.424 67.3541 223.673 68.9409C220.932 70.5217 218.352 70.5461 216.357 69.4206C214.35 68.2884 212.826 65.9309 212.348 62.5306C211.869 59.1341 212.572 55.3823 214.102 52.0731C215.633 48.7618 217.97 45.9411 220.708 44.3708C223.438 42.8059 226.036 42.7711 228.046 43.8824C230.065 44.9986 231.598 47.3302 232.058 50.7111Z" fill="#0171C3" stroke="#0171C3"/>
<path d="M61.1198 201.799C62.0698 208.839 58.2127 217.227 52.4888 220.533C46.7649 223.839 41.4068 220.771 40.4188 213.755C39.4307 206.739 43.3306 198.374 49.0307 195.092C54.7309 191.809 60.165 194.811 61.1198 201.799ZM51.8713 216.002C55.5906 213.855 58.0465 208.497 57.4669 203.913C56.8209 199.405 53.3581 197.481 49.6387 199.576C45.9194 201.671 43.4636 207.095 44.1049 211.627C44.7461 216.159 48.2137 218.116 51.8713 216.002Z" fill="#001B34"/>
<path d="M507.867 44.9501C511.591 42.8031 514.042 37.4497 513.467 32.8658C512.816 28.3532 509.358 26.4294 505.639 28.5242C501.92 30.619 499.464 36.0484 500.105 40.58C500.746 45.1116 504.214 47.0639 507.867 44.9501M517.115 30.752C518.065 37.7917 514.213 46.1804 508.489 49.4817C502.765 52.7831 497.407 49.724 496.419 42.7033C495.431 35.6826 499.326 27.3271 505.026 24.0448C510.726 20.7625 516.165 23.7646 517.115 30.752Z" stroke="#0171C3" stroke-width="4" stroke-miterlimit="10"/>
<path d="M122.54 139.534L122.54 139.535L122.552 139.528C123.172 139.132 123.898 138.932 124.633 138.954C125.062 138.992 125.425 139.115 125.777 139.265C125.879 139.308 125.989 139.358 126.103 139.411C126.355 139.526 126.629 139.651 126.884 139.733C127.258 139.855 127.66 139.948 128.135 139.907C128.608 139.865 129.109 139.695 129.702 139.361C130.393 138.971 130.992 138.436 131.457 137.793L131.465 137.781L131.473 137.769C132.088 136.805 132.647 135.806 133.148 134.778C133.766 133.568 134.712 132.556 135.878 131.859L135.885 131.855L135.892 131.85C136.51 131.453 137.234 131.252 137.968 131.273C138.396 131.309 138.759 131.432 139.112 131.583C139.211 131.626 139.319 131.676 139.431 131.727C139.686 131.844 139.963 131.971 140.219 132.053C140.591 132.172 140.992 132.264 141.467 132.222C141.938 132.181 142.439 132.012 143.03 131.68L143.031 131.679C143.721 131.289 144.319 130.755 144.785 130.113L144.794 130.101L144.802 130.088C145.417 129.124 145.976 128.125 146.477 127.097C147.091 125.889 148.034 124.879 149.197 124.182L149.216 124.171L149.223 124.227C149.239 124.37 149.216 124.515 149.156 124.646C149.098 124.771 149.009 124.88 148.896 124.96C148.216 125.351 147.625 125.879 147.16 126.512L147.149 126.527L147.139 126.543C146.536 127.507 145.983 128.502 145.482 129.524C144.849 130.755 143.879 131.781 142.684 132.48L142.676 132.485L142.668 132.49C142.069 132.872 141.369 133.063 140.66 133.039C140.233 132.999 139.865 132.877 139.509 132.728C139.399 132.681 139.277 132.627 139.152 132.57C138.908 132.459 138.647 132.341 138.413 132.262C138.04 132.136 137.637 132.044 137.163 132.086C136.692 132.127 136.191 132.295 135.605 132.622L135.602 132.624C134.912 133.017 134.311 133.549 133.838 134.186L133.826 134.202L133.815 134.219C133.212 135.185 132.659 136.182 132.158 137.204C131.523 138.434 130.552 139.46 129.359 140.162L129.352 140.166L129.345 140.17C128.744 140.551 128.042 140.742 127.331 140.72C126.903 140.678 126.539 140.553 126.186 140.401C126.089 140.359 125.985 140.311 125.877 140.261C125.62 140.143 125.339 140.014 125.075 139.931C124.703 139.813 124.303 139.719 123.83 139.76C123.358 139.801 122.858 139.97 122.265 140.304C121.572 140.695 120.969 141.228 120.498 141.869L120.488 141.882L120.479 141.897C119.867 142.858 119.313 143.855 118.819 144.882C118.183 146.111 117.213 147.136 116.02 147.838L116.013 147.842L116.006 147.847C115.405 148.229 114.703 148.421 113.991 148.397C113.565 148.359 113.201 148.235 112.846 148.084C112.746 148.042 112.638 147.992 112.526 147.941C112.271 147.825 111.994 147.699 111.738 147.617C111.367 147.498 110.967 147.405 110.491 147.446C110.018 147.488 109.515 147.658 108.917 147.995L108.917 147.995L108.913 147.998C108.909 147.999 108.906 148.001 108.904 148.003C108.897 147.985 108.891 147.961 108.886 147.929C108.874 147.792 108.899 147.655 108.956 147.53C109.015 147.405 109.105 147.296 109.218 147.216C109.834 146.821 110.555 146.621 111.286 146.64C111.714 146.678 112.078 146.801 112.431 146.952C112.531 146.995 112.639 147.044 112.751 147.095C113.005 147.212 113.281 147.338 113.538 147.42C113.912 147.539 114.316 147.629 114.792 147.586C115.266 147.542 115.77 147.372 116.363 147.037L116.363 147.037C117.054 146.646 117.652 146.112 118.118 145.47L118.127 145.458L118.135 145.445C118.748 144.481 119.305 143.483 119.804 142.455C120.427 141.246 121.375 140.235 122.54 139.534Z" fill="#0171C3" stroke="#0171C3"/>
<path d="M331.891 36.476C328.566 38.376 326.538 41.1216 325.113 43.7247C323.688 46.3277 322.685 48.6838 321.313 50.5506C320.332 51.9134 319.068 53.0478 317.608 53.8757C315.062 55.3007 313.579 55.1772 311.988 54.669C310.397 54.1607 308.834 53.0017 306.507 52.8069C305.001 52.6787 303.148 53.0967 300.987 54.3412C300.549 54.644 300.2 55.059 299.976 55.5428C299.753 56.0266 299.664 56.5615 299.719 57.0915C299.861 58.1508 300.669 58.5973 301.505 58.1176C304.079 56.6593 305.533 56.8208 307.124 57.329C308.715 57.8373 310.278 58.9868 312.606 59.1911C314.102 59.2956 315.879 58.9441 317.964 57.766C320.919 56.0183 323.324 53.4754 324.904 50.4271C326.329 47.8335 327.331 45.4632 328.704 43.6154C329.694 42.2539 330.963 41.1201 332.428 40.2903C334.984 38.8653 336.432 39.0126 338.028 39.5208C339.624 40.0291 341.178 41.1786 343.482 41.4209C345.37 41.4939 347.237 40.9974 348.84 39.9958C351.793 38.2457 354.196 35.7012 355.775 32.6521C357.243 30.0443 358.207 27.6882 359.575 25.8357C360.572 24.4789 361.842 23.3462 363.304 22.5106C365.826 21.0856 367.308 21.2328 368.876 21.7601C370.443 22.2874 372.053 23.4084 374.353 23.6221C375.849 23.7219 377.625 23.3846 379.711 22.1971C382.672 20.4548 385.078 17.9084 386.651 14.8534C388.114 12.2456 389.078 9.90378 390.451 8.04648C391.437 6.68879 392.7 5.55552 394.156 4.72139C394.606 4.41639 394.963 3.99376 395.189 3.49957C395.415 3.00539 395.501 2.4586 395.438 1.91882C395.305 0.902292 394.488 0.45578 393.638 0.945043C390.341 2.84509 388.304 5.58592 386.888 8.18423C385.473 10.7826 384.456 13.1481 383.088 15.0102C382.079 16.3379 380.798 17.4344 379.331 18.226C376.78 19.651 375.326 19.5038 373.735 18.9955C372.144 18.4873 370.581 17.3282 368.253 17.1335C366.748 17.0147 364.89 17.4232 362.757 18.6583C359.863 20.3896 357.515 22.9019 355.984 25.9069C354.521 28.5148 353.556 30.8708 352.184 32.7329C351.205 34.0952 349.942 35.2295 348.483 36.058C345.937 37.483 344.479 37.3453 342.888 36.8275C341.296 36.3097 339.738 35.1697 337.406 34.9654C335.877 34.8514 334.024 35.2457 331.891 36.476Z" fill="#001B34"/>
<defs>
<linearGradient id="paint0_linear_499_907" x1="10552.2" y1="21918.2" x2="12129.9" y2="21918.2" gradientUnits="userSpaceOnUse">
<stop stop-color="#AE53FC"/>
<stop offset="1" stop-color="#3B48ED"/>
</linearGradient>
</defs>
</svg>
