<svg width="18" height="18" viewBox="0 0 18 18" fill="none" xmlns="http://www.w3.org/2000/svg">
<path d="M7.65625 14.5768C7.76825 14.6648 7.88025 14.7448 8.00025 14.8328C8.91225 15.4968 9.83225 16.0248 10.7522 16.4168C11.6722 16.8088 12.5443 17.0008 13.3603 17.0008C13.9203 17.0008 14.4403 16.8968 14.9203 16.6968C15.4083 16.4968 15.8403 16.1848 16.2323 15.7528C16.4643 15.4968 16.6402 15.2248 16.7762 14.9368C16.9122 14.6488 16.9762 14.3528 16.9762 14.0648C16.9762 13.8408 16.9282 13.6408 16.8482 13.4408C16.7602 13.2408 16.6163 13.0728 16.4083 12.9288L13.7603 11.0488C13.5603 10.9128 13.3763 10.8088 13.2003 10.7368C13.0243 10.6648 12.8642 10.6328 12.7122 10.6328C12.5122 10.6328 12.3283 10.6888 12.1443 10.8008C11.9603 10.8968 11.7683 11.0488 11.5683 11.2488L10.9603 11.8488C10.8723 11.9368 10.7683 11.9848 10.6323 11.9848C10.5603 11.9848 10.4963 11.9768 10.4323 11.9528C10.3763 11.9288 10.3283 11.9048 10.2883 11.8888C10.1363 11.8088 9.96025 11.6968 9.76825 11.5528" stroke="#667685" stroke-width="1.2" stroke-miterlimit="10" stroke-linecap="round" stroke-linejoin="round"/>
<path d="M7.984 9.976C7.568 9.552 7.184 9.128 6.824 8.712C6.472 8.296 6.224 7.952 6.08 7.688C6.064 7.64 6.04 7.592 6.016 7.528C6 7.464 5.992 7.408 5.992 7.344C5.992 7.216 6.032 7.112 6.12 7.024L6.728 6.392C6.92 6.2 7.072 6.008 7.176 5.824C7.288 5.64 7.344 5.448 7.344 5.256C7.344 5.104 7.304 4.936 7.232 4.768C7.16 4.592 7.056 4.408 6.912 4.208L5.056 1.592C4.912 1.384 4.728 1.24 4.52 1.144C4.32 1.048 4.096 1 3.872 1C3.28 1 2.72 1.248 2.208 1.752C1.784 2.152 1.48 2.6 1.288 3.088C1.096 3.568 1 4.088 1 4.632C1 5.464 1.192 6.336 1.576 7.248C1.96 8.152 2.488 9.064 3.144 9.976C3.808 10.888 4.552 11.76 5.376 12.592" stroke="#667685" stroke-width="1.2" stroke-miterlimit="10" stroke-linecap="round" stroke-linejoin="round"/>
<path d="M17 1L1 17" stroke="#667685" stroke-width="1.2" stroke-linecap="round" stroke-linejoin="round"/>
</svg>
