<svg width="19" height="20" viewBox="0 0 19 20" fill="none" xmlns="http://www.w3.org/2000/svg">
<path d="M7.19143 9.05957C7.10056 9.05048 6.99153 9.05048 6.89158 9.05957C4.72903 8.98688 3.01172 7.21504 3.01172 5.03433C3.01172 2.80818 4.81081 1 7.04604 1C9.27219 1 11.0804 2.80818 11.0804 5.03433C11.0713 7.21504 9.35397 8.98688 7.19143 9.05957Z" stroke="#667685" stroke-width="1.2" stroke-linecap="round" stroke-linejoin="round"/>
<path d="M13.7802 2.81641C15.543 2.81641 16.9604 4.24296 16.9604 5.99662C16.9604 7.71393 15.5975 9.11323 13.8984 9.17683C13.8257 9.16774 13.7439 9.16774 13.6621 9.17683" stroke="#667685" stroke-width="1.2" stroke-linecap="round" stroke-linejoin="round"/>
<path d="M2.64917 12.4112C0.450278 13.8831 0.450278 16.2819 2.64917 17.7448C5.14791 19.4167 9.24584 19.4167 11.7446 17.7448C13.9435 16.2728 13.9435 13.8741 11.7446 12.4112C9.25492 10.7484 5.15699 10.7484 2.64917 12.4112Z" stroke="#667685" stroke-width="1.2" stroke-linecap="round" stroke-linejoin="round"/>
<path d="M15.5332 17.3541C16.1874 17.2178 16.8053 16.9543 17.3141 16.5636C18.7316 15.5005 18.7316 13.7469 17.3141 12.6838C16.8144 12.3021 16.2056 12.0477 15.5605 11.9023" stroke="#667685" stroke-width="1.2" stroke-linecap="round" stroke-linejoin="round"/>
</svg>
