<svg width="18" height="20" viewBox="0 0 18 20" fill="none" xmlns="http://www.w3.org/2000/svg">
<path d="M4.15039 19.0016V13.6016" stroke="#001B34" stroke-width="1.5" stroke-miterlimit="10" stroke-linecap="round" stroke-linejoin="round"/>
<path d="M4.15039 4.6V1" stroke="#001B34" stroke-width="1.5" stroke-miterlimit="10" stroke-linecap="round" stroke-linejoin="round"/>
<path d="M7.3 8.20078C7.3 9.94048 5.8897 11.3508 4.15 11.3508C2.4103 11.3508 1 9.94048 1 8.20078C1 6.46108 2.4103 5.05078 4.15 5.05078C5.8897 5.05078 7.3 6.46108 7.3 8.20078Z" stroke="#001B34" stroke-width="1.5" stroke-miterlimit="10" stroke-linecap="round" stroke-linejoin="round"/>
<path d="M14.0508 18.9984V15.3984" stroke="#001B34" stroke-width="1.5" stroke-miterlimit="10" stroke-linecap="round" stroke-linejoin="round"/>
<path d="M14.0508 6.4V1" stroke="#001B34" stroke-width="1.5" stroke-miterlimit="10" stroke-linecap="round" stroke-linejoin="round"/>
<path d="M17.2004 11.7984C17.2004 13.5381 15.7901 14.9484 14.0504 14.9484C12.3107 14.9484 10.9004 13.5381 10.9004 11.7984C10.9004 10.0587 12.3107 8.64844 14.0504 8.64844C15.7901 8.64844 17.2004 10.0587 17.2004 11.7984Z" stroke="#001B34" stroke-width="1.5" stroke-miterlimit="10" stroke-linecap="round" stroke-linejoin="round"/>
</svg>
