<svg width="204" height="45" viewBox="0 0 204 45" fill="none" xmlns="http://www.w3.org/2000/svg">
<path d="M22.5 45C34.9264 45 45 34.9264 45 22.5C45 10.0736 34.9264 0 22.5 0C10.0736 0 0 10.0736 0 22.5C0 34.9264 10.0736 45 22.5 45Z" fill="#0171C3"/>
<path d="M33.9845 19.0293V18.9528C33.9845 15.6225 32.5845 12.522 30.1295 10.4741C29.9953 10.3592 29.8419 10.2444 29.6885 10.1295C26.9651 8.04333 24.0882 7.69883 22.6116 7.67969H22.5923H22.5732C21.0964 7.69883 18.2196 8.06248 15.4962 10.1295C15.3428 10.2444 15.2086 10.3592 15.0743 10.4741C12.6194 12.522 11.2194 15.6225 11.2194 18.9528V19.0677C8.87954 19.5844 7.13428 21.6707 7.13428 24.1587C7.13428 26.6469 8.87954 28.7331 11.2194 29.2499V31.0298C11.2194 31.9103 11.4111 32.7141 11.7755 33.4222C12.0057 33.8433 12.2742 34.2452 12.6386 34.6089C13.4441 35.451 14.5756 35.9104 15.7263 35.9104H15.7456H16.9155V37.3267C16.9155 37.6138 17.1456 37.8626 17.4525 37.8626H24.7404C25.028 37.8626 25.2774 37.633 25.2774 37.3267V32.5801C25.2774 32.293 25.0473 32.0442 24.7404 32.0442H17.4525C17.1647 32.0442 16.9155 32.2739 16.9155 32.5801V34.1304H15.7456C15.7456 34.1304 15.7456 34.1304 15.7263 34.1304C15.0551 34.1304 14.3838 33.8433 13.9044 33.3457C13.6934 33.116 13.5016 32.8672 13.3674 32.5993C13.1372 32.1399 13.0222 31.6232 13.0222 31.0107V29.3456H14.9401V18.9528H13.0222C13.0222 16.1585 14.1921 13.5555 16.2442 11.8521C16.3593 11.7564 16.4936 11.6607 16.6085 11.565C18.9292 9.80417 21.3649 9.49793 22.6116 9.4788C23.8773 9.49793 26.313 9.80417 28.6145 11.565C28.7487 11.6607 28.8638 11.7564 28.9788 11.8521C31.0118 13.5555 32.1818 16.1585 32.2009 18.9528H30.6283V29.4029H33.179C36.075 29.4029 38.4148 27.068 38.4148 24.1779C38.4148 21.5559 36.4969 19.4122 33.9845 19.0293Z" fill="#F4FEFE"/>
<path d="M64.933 31.8682C63.1528 31.8682 62.0532 30.4959 62.0008 28.9164C65.9541 28.2951 68.0486 24.3595 68.0486 19.6472C68.0486 14.3134 65.7708 10.4297 60.9013 10.4297C56.2411 10.4297 53.7803 14.5724 53.7803 19.7248C53.7803 24.2818 55.6652 28.2951 59.7493 28.9164C60.2991 31.8423 62.446 32.9297 65.352 32.9297L67.8653 31.8164L67.4988 30.962C66.8181 31.3245 65.6923 31.8682 64.933 31.8682ZM56.0841 19.6213C56.0841 15.401 57.7858 11.5948 61.006 11.5948C64.2 11.5948 65.7446 15.6339 65.7446 19.7507C65.7446 23.8416 64.0691 27.8549 60.8489 27.8549C57.7858 27.8549 56.0841 23.8158 56.0841 19.6213Z" fill="black"/>
<path d="M71.8901 24.1964C71.8901 27.2217 73.0779 28.536 75.4288 28.536C77.1116 28.536 78.4479 27.6929 79.3882 26.2793L79.6357 28.3128H81.2194V15.9141H79.314V24.5435C78.7448 26.1058 77.2601 27.3953 76.0228 27.3953C74.4142 27.3953 73.7956 26.4034 73.7956 24.246V15.9141H71.8901V24.1964Z" fill="black"/>
<path d="M90.0266 15.3672C88.0203 15.3672 86.7412 16.4096 85.8636 18.215L87.594 18.4437C88.0203 17.3505 88.6974 16.4352 89.9513 16.4352C91.8574 16.4352 92.4592 17.8844 92.4592 19.8167V21.3932C91.5313 20.8592 90.6786 20.605 89.55 20.605C87.3181 20.605 85.061 22.3848 85.061 24.8002C85.061 27.2412 86.6661 28.5379 88.6473 28.5379C90.2523 28.5379 91.6567 27.5716 92.5345 26.224L92.7853 28.309H94.3903V19.8167C94.3903 17.0199 92.7601 15.3672 90.0266 15.3672ZM92.4592 24.3934C92.1332 25.7155 90.4028 27.3937 89.1237 27.3937C87.6691 27.3937 87.0673 26.1224 87.0673 24.724C87.0673 23.0966 88.4466 21.6728 90.0015 21.6728C90.9795 21.6728 91.6567 21.9017 92.4592 22.4356V24.3934Z" fill="black"/>
<path d="M102.478 27.3042C102.134 27.4069 101.876 27.4326 101.503 27.4583C100.757 27.4583 100.441 27.0729 100.441 26.3793V8.78125H98.2314V25.8655C98.2314 27.7409 99.3218 28.5373 101.302 28.5373C101.79 28.5373 102.191 28.4602 102.622 28.3317L102.478 27.3042Z" fill="black"/>
<path d="M107.155 15.5483H105.199V28.5394H107.155V15.5483ZM107.561 11.8327C107.561 11.0533 106.952 10.4297 106.215 10.4297C105.427 10.4297 104.817 11.0533 104.817 11.8327C104.817 12.6382 105.427 13.2618 106.215 13.2618C106.952 13.2618 107.561 12.6382 107.561 11.8327Z" fill="black"/>
<path d="M117.519 26.9873C117.076 27.2666 116.581 27.4442 116.008 27.4442C114.497 27.4442 114.028 26.5812 114.028 25.3375V16.7583H117.467V15.6162H114.028V12.6211H112.778L112.022 15.6162H109.756V16.7583H112.022V25.1852C112.022 27.5457 113.637 28.5357 115.695 28.5357C116.503 28.5357 117.31 28.3326 117.988 27.9011L117.519 26.9873Z" fill="black"/>
<path d="M128.622 15.9141L124.766 27.4116L121.425 15.9141H119.317L123.198 28.6046H124.329L123.661 30.5081C122.556 33.7824 121.502 34.5184 120.473 34.5184C120.165 34.5184 119.702 34.4169 119.394 34.3408L119.085 36.2189C122.247 36.2189 123.507 34.6961 124.869 30.8128L130.061 15.9141H128.622Z" fill="black"/>
<path d="M156.025 10.4297L152.607 26.9355L149.162 10.4297H146.522L143.078 26.9355L139.867 10.4297H137.744L141.446 28.5394H144.036L147.557 12.3959L151.104 28.5394H153.564L157.5 10.4297H156.025Z" fill="black"/>
<path d="M167.984 21.978C167.984 25.2833 166.602 27.4954 164.308 27.4954C162.039 27.4954 160.735 25.1308 160.735 21.8763C160.735 18.5708 162.117 16.4096 164.412 16.4096C166.628 16.4096 167.984 18.7235 167.984 21.978ZM170.122 21.9017C170.122 18.4437 168.193 15.3672 164.334 15.3672C160.684 15.3672 158.598 18.4946 158.598 21.9526C158.598 25.4105 160.553 28.5379 164.334 28.5379C168.037 28.5379 170.122 25.3595 170.122 21.9017Z" fill="black"/>
<path d="M180.549 15.6001C180.141 15.4448 179.789 15.3672 179.355 15.3672C177.62 15.3672 176.263 16.428 175.422 17.7736L175.123 15.6001H173.415V28.5379H175.504V19.5849C176.019 18.2654 177.213 16.8679 178.433 16.8679C179.029 16.8679 179.437 17.0492 179.897 17.2561L180.549 15.6001Z" fill="black"/>
<path d="M192.622 28.5373L186.459 21.0509L192.002 15.54H189.983L184.816 20.8428V8.78125H182.744V28.5373H184.816V21.9347L190.173 28.5373H192.622Z" fill="black"/>
<path d="M198.544 28.5379C201.05 28.5379 203.049 27.3174 203.049 25.1562C203.049 22.9696 201.05 21.7491 199.304 20.8337C197.887 20.0965 196.596 19.5626 196.596 18.2912C196.596 17.0453 197.609 16.3842 198.747 16.3842C199.962 16.3842 200.898 17.0962 201.101 18.4692L202.72 18.2658C202.416 16.3334 200.822 15.3672 198.722 15.3672C196.672 15.3672 194.622 16.5114 194.622 18.4946C194.622 20.1473 196.216 21.1897 197.811 22.0034C199.431 22.817 201.025 23.5797 201.025 25.2833C201.025 26.8598 199.962 27.5208 198.57 27.5208C197.001 27.5208 196.216 26.3513 195.964 24.7748L194.269 24.9783C194.723 27.2666 196.165 28.5379 198.544 28.5379Z" fill="black"/>
</svg>
