<svg width="19" height="20" viewBox="0 0 19 20" fill="none" xmlns="http://www.w3.org/2000/svg">
<path d="M11.6201 3.59998V2C11.6201 1.45 11.1701 1 10.6201 1L2.00012 1C1.45012 1 1.00012 1.45 1.00012 2V3.59998C1.00012 4.14998 1.45012 4.59998 2.00012 4.59998H10.6201C11.1701 4.59998 11.6201 4.14998 11.6201 3.59998Z" stroke="#001B34" stroke-width="1.5" stroke-linecap="round" stroke-linejoin="round"/>
<path d="M14.8101 10.7992V9.19922C14.8101 8.64922 14.3601 8.19922 13.8101 8.19922H2.00006C1.45006 8.19922 1.00006 8.64922 1.00006 9.19922V10.7992C1.00006 11.3492 1.45006 11.7992 2.00006 11.7992H13.8101C14.3601 11.7992 14.8101 11.3492 14.8101 10.7992Z" stroke="#001B34" stroke-width="1.5" stroke-linecap="round" stroke-linejoin="round"/>
<path d="M18 17.9984V16.3984C18 15.8484 17.55 15.3984 17 15.3984H2C1.45 15.3984 1 15.8484 1 16.3984V17.9984C1 18.5484 1.45 18.9984 2 18.9984H17C17.55 18.9984 18 18.5484 18 17.9984Z" stroke="#001B34" stroke-width="1.5" stroke-linecap="round" stroke-linejoin="round"/>
</svg>
