<svg width="18" height="22" viewBox="0 0 18 22" fill="none" xmlns="http://www.w3.org/2000/svg">
<path d="M9.04597 1.96875C5.73597 1.96875 3.04597 4.65875 3.04597 7.96875V10.8588C3.04597 11.4688 2.78597 12.3987 2.47597 12.9187L1.32597 14.8288C0.615967 16.0088 1.10597 17.3188 2.40597 17.7588C6.71597 19.1988 11.366 19.1988 15.676 17.7588C16.886 17.3588 17.416 15.9288 16.756 14.8288L15.606 12.9187C15.306 12.3987 15.046 11.4688 15.046 10.8588V7.96875C15.046 4.66875 12.346 1.96875 9.04597 1.96875Z" stroke="#001B34" stroke-width="1.4" stroke-miterlimit="10" stroke-linecap="round"/>
<path d="M10.896 2.26C10.586 2.17 10.266 2.1 9.93604 2.06C8.97604 1.94 8.05604 2.01 7.19604 2.26C7.48604 1.52 8.20605 1 9.04605 1C9.88605 1 10.606 1.52 10.896 2.26Z" stroke="#001B34" stroke-width="1.4" stroke-miterlimit="10" stroke-linecap="round" stroke-linejoin="round"/>
<path d="M12.0459 18.1211C12.0459 19.7711 10.6959 21.1211 9.0459 21.1211C8.2259 21.1211 7.4659 20.7811 6.9259 20.2411C6.3859 19.7011 6.0459 18.9411 6.0459 18.1211" stroke="#001B34" stroke-width="1.4" stroke-miterlimit="10"/>
</svg>
