<svg width="45" height="45" viewBox="0 0 45 45" fill="none" xmlns="http://www.w3.org/2000/svg">
<path d="M22.5 45C34.9264 45 45 34.9264 45 22.5C45 10.0736 34.9264 0 22.5 0C10.0736 0 0 10.0736 0 22.5C0 34.9264 10.0736 45 22.5 45Z" fill="#0171C3"/>
<path d="M33.985 19.0293V18.9528C33.985 15.6225 32.585 12.522 30.13 10.4741C29.9958 10.3592 29.8424 10.2444 29.689 10.1295C26.9656 8.04333 24.0887 7.69883 22.6121 7.67969H22.5928H22.5736C21.0969 7.69883 18.2201 8.06248 15.4967 10.1295C15.3433 10.2444 15.2091 10.3592 15.0748 10.4741C12.6199 12.522 11.2198 15.6225 11.2198 18.9528V19.0677C8.88003 19.5844 7.13477 21.6707 7.13477 24.1587C7.13477 26.6469 8.88003 28.7331 11.2198 29.2499V31.0298C11.2198 31.9103 11.4116 32.7141 11.776 33.4222C12.0062 33.8433 12.2747 34.2452 12.6391 34.6089C13.4446 35.451 14.5761 35.9104 15.7268 35.9104H15.7461H16.916V37.3267C16.916 37.6138 17.1461 37.8626 17.453 37.8626H24.7409C25.0285 37.8626 25.2779 37.633 25.2779 37.3267V32.5801C25.2779 32.293 25.0478 32.0442 24.7409 32.0442H17.453C17.1652 32.0442 16.916 32.2739 16.916 32.5801V34.1304H15.7461C15.7461 34.1304 15.7461 34.1304 15.7268 34.1304C15.0555 34.1304 14.3843 33.8433 13.9049 33.3457C13.6939 33.116 13.5021 32.8672 13.3679 32.5993C13.1377 32.1399 13.0226 31.6232 13.0226 31.0107V29.3456H14.9406V18.9528H13.0226C13.0226 16.1585 14.1926 13.5555 16.2447 11.8521C16.3598 11.7564 16.4941 11.6607 16.609 11.565C18.9296 9.80417 21.3654 9.49793 22.6121 9.4788C23.8778 9.49793 26.3135 9.80417 28.615 11.565C28.7492 11.6607 28.8643 11.7564 28.9793 11.8521C31.0123 13.5555 32.1823 16.1585 32.2014 18.9528H30.6288V29.4029H33.1795C36.0755 29.4029 38.4153 27.068 38.4153 24.1779C38.4153 21.5559 36.4974 19.4122 33.985 19.0293Z" fill="#F4FEFE"/>
</svg>
