<svg width="22" height="22" viewBox="0 0 22 22" fill="none" xmlns="http://www.w3.org/2000/svg">
<path d="M10.833 13.912V13.16C10.8543 12.744 10.9343 12.3653 11.073 12.024C11.2223 11.672 11.3983 11.3893 11.601 11.176C11.8143 10.9627 12.033 10.7387 12.257 10.504C12.4917 10.2693 12.705 10.0507 12.897 9.848C13.0997 9.64533 13.2597 9.38933 13.377 9.08C13.4943 8.77067 13.5423 8.43467 13.521 8.072C13.4783 7.48533 13.2863 7.02667 12.945 6.696C12.6143 6.36533 12.161 6.2 11.585 6.2C10.849 6.2 10.2943 6.44533 9.92102 6.936C9.54768 7.42667 9.36102 8.06133 9.36102 8.84H8.00102C7.97968 7.73067 8.29435 6.81333 8.94502 6.088C9.60635 5.36267 10.4863 5 11.585 5C12.5983 5 13.4143 5.28267 14.033 5.848C14.6517 6.41333 14.961 7.19733 14.961 8.2C14.961 8.616 14.8863 9.00533 14.737 9.368C14.5877 9.72 14.433 9.992 14.273 10.184C14.113 10.376 13.8837 10.6213 13.585 10.92C13.3503 11.144 13.1743 11.3147 13.057 11.432C12.9503 11.5493 12.8117 11.7147 12.641 11.928C12.481 12.1307 12.3637 12.344 12.289 12.568C12.225 12.792 12.193 13.032 12.193 13.288V13.912H10.833ZM10.609 16.696V14.92H12.385V16.696H10.609Z" fill="#001B34"/>
<path d="M11 21C16.5228 21 21 16.5228 21 11C21 5.47715 16.5228 1 11 1C5.47715 1 1 5.47715 1 11C1 16.5228 5.47715 21 11 21Z" stroke="#001B34" stroke-width="1.4" stroke-miterlimit="10" stroke-linecap="round"/>
</svg>
