<svg width="16" height="16" viewBox="0 0 16 16" fill="none" xmlns="http://www.w3.org/2000/svg">
    <path d="M6.00065 9.16667C4.44065 9.16667 1.33398 9.94667 1.33398 11.5L1.33398 12.6667L10.6673 12.6667V11.5C10.6673 9.94667 7.56065 9.16667 6.00065 9.16667ZM2.89398 11.3333C3.45398 10.9467 4.80732 10.5 6.00065 10.5C7.19398 10.5 8.54732 10.9467 9.10732 11.3333L2.89398 11.3333ZM6.00065 8C7.28732 8 8.33398 6.95334 8.33398 5.66667C8.33398 4.38 7.28732 3.33334 6.00065 3.33334C4.71398 3.33334 3.66732 4.38 3.66732 5.66667C3.66732 6.95334 4.71398 8 6.00065 8ZM6.00065 4.66667C6.55398 4.66667 7.00065 5.11334 7.00065 5.66667C7.00065 6.22 6.55398 6.66667 6.00065 6.66667C5.44732 6.66667 5.00065 6.22 5.00065 5.66667C5.00065 5.11334 5.44732 4.66667 6.00065 4.66667ZM10.694 9.20667C11.4673 9.76667 12.0007 10.5133 12.0007 11.5V12.6667H14.6673V11.5C14.6673 10.1533 12.334 9.38667 10.694 9.20667ZM10.0007 8C11.2873 8 12.334 6.95334 12.334 5.66667C12.334 4.38 11.2873 3.33334 10.0007 3.33334C9.64065 3.33334 9.30732 3.42 9.00065 3.56667C9.42065 4.16 9.66732 4.88667 9.66732 5.66667C9.66732 6.44667 9.42065 7.17334 9.00065 7.76667C9.30732 7.91334 9.64065 8 10.0007 8Z" fill="black"/>
</svg>
