<svg width="24" height="24" viewBox="0 0 24 24" fill="none" xmlns="http://www.w3.org/2000/svg">
    <rect width="24" height="24" rx="12" fill="#CEE3F2" fill-opacity="0.64"/>
    <path d="M8.36 7.33333C8.4 7.92667 8.5 8.50667 8.66 9.06L7.86 9.86C7.58667 9.06 7.41333 8.21333 7.35333 7.33333H8.36V7.33333ZM14.9333 15.3467C15.5 15.5067 16.08 15.6067 16.6667 15.6467V16.64C15.7867 16.58 14.94 16.4067 14.1333 16.14L14.9333 15.3467V15.3467ZM9 6H6.66667C6.3 6 6 6.3 6 6.66667C6 12.9267 11.0733 18 17.3333 18C17.7 18 18 17.7 18 17.3333V15.0067C18 14.64 17.7 14.34 17.3333 14.34C16.5067 14.34 15.7 14.2067 14.9533 13.96C14.8867 13.9333 14.8133 13.9267 14.7467 13.9267C14.5733 13.9267 14.4067 13.9933 14.2733 14.12L12.8067 15.5867C10.92 14.62 9.37333 13.08 8.41333 11.1933L9.88 9.72667C10.0667 9.54 10.12 9.28 10.0467 9.04667C9.8 8.3 9.66667 7.5 9.66667 6.66667C9.66667 6.3 9.36667 6 9 6Z" fill="#0070C0"/>
</svg>
