<svg width="24" height="24" viewBox="0 0 24 24" fill="none" xmlns="http://www.w3.org/2000/svg">
    <rect width="24" height="24" rx="12" fill="#E3FCF2"/>
    <path d="M11.9933 5.33333C8.31325 5.33333 5.33325 8.31999 5.33325 12C5.33325 15.68 8.31325 18.6667 11.9933 18.6667C15.6799 18.6667 18.6666 15.68 18.6666 12C18.6666 8.31999 15.6799 5.33333 11.9933 5.33333ZM11.9999 17.3333C9.05325 17.3333 6.66659 14.9467 6.66659 12C6.66659 9.05333 9.05325 6.66666 11.9999 6.66666C14.9466 6.66666 17.3333 9.05333 17.3333 12C17.3333 14.9467 14.9466 17.3333 11.9999 17.3333ZM14.3333 11.3333C14.8866 11.3333 15.3333 10.8867 15.3333 10.3333C15.3333 9.77999 14.8866 9.33333 14.3333 9.33333C13.7799 9.33333 13.3333 9.77999 13.3333 10.3333C13.3333 10.8867 13.7799 11.3333 14.3333 11.3333ZM9.66659 11.3333C10.2199 11.3333 10.6666 10.8867 10.6666 10.3333C10.6666 9.77999 10.2199 9.33333 9.66659 9.33333C9.11325 9.33333 8.66659 9.77999 8.66659 10.3333C8.66659 10.8867 9.11325 11.3333 9.66659 11.3333ZM11.9999 15.6667C13.5533 15.6667 14.8733 14.6933 15.4066 13.3333H8.59325C9.12659 14.6933 10.4466 15.6667 11.9999 15.6667Z" fill="#3BD999"/>
</svg>
