<svg width="16" height="16" viewBox="0 0 16 16" fill="none" xmlns="http://www.w3.org/2000/svg">
    <path d="M3.38719 7.33332C3.68052 5.29332 5.29385 3.67999 7.33385 3.38666L7.33385 1.36666C4.18719 1.67999 1.68052 4.18666 1.36719 7.33332L3.38719 7.33332ZM8.66719 3.38666C10.7072 3.67999 12.3205 5.29332 12.6139 7.33332L14.6339 7.33332C14.3205 4.18666 11.8139 1.67999 8.66719 1.36666L8.66719 3.38666ZM12.6139 8.66666C12.2872 10.9267 10.3472 12.6667 8.00052 12.6667C5.65385 12.6667 3.71385 10.9267 3.38719 8.66666L1.36719 8.66666C1.70052 12.0333 4.54052 14.6667 8.00052 14.6667C11.4605 14.6667 14.3005 12.0333 14.6339 8.66666L12.6139 8.66666Z" fill="black"/>
</svg>
