<svg width="23" height="16" viewBox="0 0 23 16" fill="none" xmlns="http://www.w3.org/2000/svg">
    <path d="M11.1729 0.5C6.17285 0.5 1.90285 3.61 0.172852 8C1.90285 12.39 6.17285 15.5 11.1729 15.5C16.1729 15.5 20.4429 12.39 22.1729 8C20.4429 3.61 16.1729 0.5 11.1729 0.5ZM11.1729 13C8.41285 13 6.17285 10.76 6.17285 8C6.17285 5.24 8.41285 3 11.1729 3C13.9329 3 16.1729 5.24 16.1729 8C16.1729 10.76 13.9329 13 11.1729 13ZM11.1729 5C9.51285 5 8.17285 6.34 8.17285 8C8.17285 9.66 9.51285 11 11.1729 11C12.8329 11 14.1729 9.66 14.1729 8C14.1729 6.34 12.8329 5 11.1729 5Z" fill="white"/>
</svg>
