<svg width="22" height="22" viewBox="0 0 22 22" fill="none" xmlns="http://www.w3.org/2000/svg">
    <path d="M10.8448 0.655174C8.10216 0.658258 5.4727 1.74915 3.53334 3.68851C1.59397 5.62787 0.503084 8.25733 0.5 11C0.504663 13.7422 1.59606 16.3707 3.53508 18.3097C5.4741 20.2488 8.10264 21.3402 10.8448 21.3448C13.5884 21.3448 16.2197 20.2549 18.1597 18.3149C20.0998 16.3749 21.1897 13.7436 21.1897 11C21.1897 8.25638 20.0998 5.62514 18.1597 3.6851C16.2197 1.74507 13.5884 0.655174 10.8448 0.655174V0.655174ZM17.137 16.9692C16.556 15.7975 15.6591 14.8114 14.5474 14.1222C13.4358 13.4331 12.1537 13.0683 10.8458 13.069C9.53787 13.0697 8.25617 13.4359 7.14529 14.1262C6.03441 14.8166 5.13855 15.8037 4.55878 16.9761C3.0118 15.3718 2.14977 13.2286 2.15517 11C2.15517 8.69536 3.07069 6.48511 4.70031 4.85549C6.32994 3.22586 8.54019 2.31035 10.8448 2.31035C13.1495 2.31035 15.3597 3.22586 16.9893 4.85549C18.619 6.48511 19.5345 8.69536 19.5345 11C19.5396 13.2254 18.68 15.3657 17.137 16.9692V16.9692ZM10.8448 4.79311C10.1083 4.79311 9.38824 5.01152 8.77581 5.42074C8.16338 5.82995 7.68604 6.41158 7.40417 7.09208C7.1223 7.77257 7.04855 8.52138 7.19225 9.24379C7.33594 9.9662 7.69063 10.6298 8.21146 11.1506C8.7323 11.6714 9.39587 12.0261 10.1183 12.1698C10.8407 12.3135 11.5895 12.2398 12.27 11.9579C12.9505 11.676 13.5321 11.1987 13.9413 10.5863C14.3505 9.97383 14.569 9.25381 14.569 8.51724C14.569 8.02818 14.4726 7.54391 14.2855 7.09208C14.0983 6.64024 13.824 6.2297 13.4782 5.88388C13.1324 5.53806 12.7218 5.26374 12.27 5.07659C11.8182 4.88943 11.3339 4.79311 10.8448 4.79311V4.79311Z" fill="#D9D9D9"/>
</svg>
