<svg width="145" height="32" viewBox="0 0 145 32" fill="none" xmlns="http://www.w3.org/2000/svg">
    <ellipse cx="16.0115" cy="16" rx="16.0115" ry="16" fill="#0171C3"/>
    <path d="M24.0157 13.4609V13.407C24.0157 11.0603 23.0282 8.87551 21.2965 7.43245C21.2018 7.35153 21.0936 7.27061 20.9854 7.18969C19.0644 5.71965 17.0351 5.4769 15.9935 5.46341H15.9799H15.9664C14.9247 5.4769 12.8955 5.73314 10.9745 7.18969C10.8663 7.27061 10.7716 7.35153 10.6769 7.43245C8.94525 8.87551 7.95769 11.0603 7.95769 13.407V13.4879C6.30724 13.852 5.07617 15.3221 5.07617 17.0753C5.07617 18.8286 6.30724 20.2986 7.95769 20.6628V21.917C7.95769 22.5374 8.09297 23.1038 8.35001 23.6028C8.51234 23.8995 8.70174 24.1827 8.95878 24.439C9.52696 25.0324 10.3251 25.3561 11.1368 25.3561H11.1504H11.9756V26.3541C11.9756 26.5564 12.1379 26.7317 12.3544 26.7317H17.4951C17.698 26.7317 17.8739 26.5699 17.8739 26.3541V23.0094C17.8739 22.8071 17.7116 22.6318 17.4951 22.6318H12.3544C12.1514 22.6318 11.9756 22.7936 11.9756 23.0094V24.1018H11.1504C11.1504 24.1018 11.1504 24.1018 11.1368 24.1018C10.6633 24.1018 10.1898 23.8995 9.85164 23.5489C9.70283 23.387 9.56755 23.2117 9.47285 23.0229C9.31051 22.6992 9.22934 22.3351 9.22934 21.9035V20.7302H10.5822V13.407H9.22934C9.22934 11.438 10.0546 9.60378 11.5021 8.40348C11.5833 8.33604 11.678 8.26861 11.7591 8.20118C13.396 6.96042 15.1141 6.74463 15.9935 6.73115C16.8863 6.74463 18.6044 6.96042 20.2278 8.20118C20.3225 8.26861 20.4037 8.33604 20.4848 8.40348C21.9188 9.60378 22.7441 11.438 22.7576 13.407H21.6483V20.7706H23.4475C25.4903 20.7706 27.1407 19.1253 27.1407 17.0888C27.1407 15.2412 25.7879 13.7307 24.0157 13.4609Z" fill="#F4FEFE"/>
    <path d="M46.2266 22.4907C44.981 22.4907 44.2116 21.5205 44.1749 20.4038C46.9411 19.9645 48.4066 17.182 48.4066 13.8504C48.4066 10.0794 46.8128 7.33358 43.4056 7.33358C40.1448 7.33358 38.4229 10.2625 38.4229 13.9053C38.4229 17.1271 39.7418 19.9645 42.5995 20.4038C42.9842 22.4724 44.4864 23.2412 46.5198 23.2412L48.2784 22.4541L48.0219 21.85C47.5456 22.1063 46.7579 22.4907 46.2266 22.4907ZM40.0349 13.8321C40.0349 10.8483 41.2256 8.15734 43.4788 8.15734C45.7137 8.15734 46.7945 11.013 46.7945 13.9236C46.7945 16.8159 45.6221 19.6533 43.3689 19.6533C41.2256 19.6533 40.0349 16.7976 40.0349 13.8321Z" fill="white"/>
    <path d="M51.0051 17.2736C51.0051 19.5069 51.8844 20.4771 53.6247 20.4771C54.8704 20.4771 55.8596 19.8547 56.5557 18.8112L56.7389 20.3123H57.9113V11.1595H56.5008V17.5298C56.0794 18.6831 54.9803 19.635 54.0644 19.635C52.8736 19.635 52.4157 18.9028 52.4157 17.3102V11.1595H51.0051V17.2736Z" fill="white"/>
    <path d="M63.9764 10.9947C62.5109 10.9947 61.5766 11.7452 60.9355 13.045L62.1995 13.2097C62.5109 12.4226 63.0055 11.7636 63.9214 11.7636C65.3137 11.7636 65.7533 12.807 65.7533 14.1982V15.3332C65.0755 14.9487 64.4527 14.7657 63.6283 14.7657C61.998 14.7657 60.3493 16.0471 60.3493 17.7861C60.3493 19.5435 61.5217 20.4771 62.9689 20.4771C64.1413 20.4771 65.1671 19.7814 65.8083 18.8112L65.9915 20.3123H67.1639V14.1982C67.1639 12.1846 65.9731 10.9947 63.9764 10.9947ZM65.7533 17.4932C65.5152 18.4451 64.2512 19.6533 63.3169 19.6533C62.2544 19.6533 61.8148 18.738 61.8148 17.7312C61.8148 16.5596 62.8223 15.5345 63.9581 15.5345C64.6725 15.5345 65.1671 15.6993 65.7533 16.0837V17.4932Z" fill="white"/>
    <path d="M72.6961 19.5984C72.4763 19.6716 72.3114 19.6899 72.0733 19.7082C71.597 19.7082 71.3955 19.4336 71.3955 18.9394V6.39999H69.985V18.5733C69.985 19.9096 70.6811 20.4771 71.9451 20.4771C72.2565 20.4771 72.5129 20.4221 72.7877 20.3306L72.6961 19.5984Z" fill="white"/>
    <path d="M76.0676 11.1595H74.6571V20.3123H76.0676V11.1595ZM76.3607 8.54176C76.3607 7.99259 75.9211 7.55325 75.3899 7.55325C74.822 7.55325 74.3823 7.99259 74.3823 8.54176C74.3823 9.10923 74.822 9.54857 75.3899 9.54857C75.9211 9.54857 76.3607 9.10923 76.3607 8.54176Z" fill="white"/>
    <path d="M83.4531 19.3604C83.1417 19.5618 82.7936 19.6899 82.3906 19.6899C81.3281 19.6899 80.9984 19.0675 80.9984 18.1705V11.9832H83.4165V11.1595H80.9984V8.9994H80.1191L79.5879 11.1595H77.9941V11.9832H79.5879V18.0607C79.5879 19.7631 80.7236 20.4771 82.1708 20.4771C82.7387 20.4771 83.3066 20.3306 83.7829 20.0194L83.4531 19.3604Z" fill="white"/>
    <path d="M91.5662 11.1595L88.8184 19.4519L86.4369 11.1595H84.9348L87.7009 20.3123H88.5069L88.0307 21.6852C87.243 24.0467 86.4919 24.5775 85.7591 24.5775C85.5393 24.5775 85.2096 24.5043 84.9897 24.4494L84.7699 25.804C87.0231 25.804 87.9207 24.7057 88.8916 21.9049L92.592 11.1595H91.5662Z" fill="white"/>
    <path d="M110.93 7.49833L108.512 19.1774L106.075 7.49833H104.207L101.77 19.1774L99.4988 7.49833H97.9966L100.616 20.3123H102.448L104.939 8.88957L107.449 20.3123H109.189L111.974 7.49833H110.93Z" fill="white"/>
    <path d="M119.487 15.7542C119.487 18.1339 118.516 19.7265 116.904 19.7265C115.31 19.7265 114.394 18.0241 114.394 15.681C114.394 13.3012 115.365 11.7452 116.977 11.7452C118.534 11.7452 119.487 13.4111 119.487 15.7542ZM120.989 15.6993C120.989 13.2097 119.634 10.9947 116.922 10.9947C114.358 10.9947 112.892 13.2463 112.892 15.7359C112.892 18.2255 114.266 20.4771 116.922 20.4771C119.524 20.4771 120.989 18.1888 120.989 15.6993Z" fill="white"/>
    <path d="M128.313 11.1595C128.038 11.0496 127.8 10.9947 127.507 10.9947C126.335 10.9947 125.419 11.7452 124.851 12.6971L124.649 11.1595H123.495V20.3123H124.906V13.9785C125.254 13.045 126.06 12.0564 126.884 12.0564C127.287 12.0564 127.562 12.1846 127.873 12.331L128.313 11.1595Z" fill="white"/>
    <path d="M136.784 20.3123L132.589 15.0403L136.362 11.1595H134.988L131.471 14.8938V6.39999H130.061V20.3123H131.471V15.6627L135.117 20.3123H136.784Z" fill="white"/>
    <path d="M141.084 20.4771C142.898 20.4771 144.345 19.5984 144.345 18.0424C144.345 16.4681 142.898 15.5894 141.634 14.9304C140.608 14.3996 139.674 14.0152 139.674 13.0999C139.674 12.2029 140.407 11.7269 141.231 11.7269C142.11 11.7269 142.788 12.2395 142.935 13.228L144.107 13.0816C143.887 11.6903 142.733 10.9947 141.213 10.9947C139.729 10.9947 138.245 11.8185 138.245 13.2463C138.245 14.4362 139.399 15.1867 140.553 15.7725C141.726 16.3583 142.88 16.9074 142.88 18.1339C142.88 19.2689 142.11 19.7448 141.103 19.7448C139.967 19.7448 139.399 18.9028 139.216 17.7678L137.989 17.9143C138.318 19.5618 139.362 20.4771 141.084 20.4771Z" fill="white"/>
</svg>
