<svg width="181" height="40" viewBox="0 0 181 40" fill="none" xmlns="http://www.w3.org/2000/svg">
    <ellipse cx="20.0143" cy="20" rx="20.0143" ry="20" fill="#0171C3"/>
    <path d="M30.02 16.8262V16.7588C30.02 13.8254 28.7855 11.0944 26.621 9.29058C26.5027 9.18943 26.3674 9.08828 26.2321 8.98713C23.8308 7.14959 21.2943 6.84614 19.9922 6.82928H19.9753H19.9584C18.6563 6.84614 16.1197 7.16645 13.7185 8.98713C13.5832 9.08828 13.4648 9.18943 13.3464 9.29058C11.1819 11.0944 9.94746 13.8254 9.94746 16.7588V16.8599C7.8844 17.3151 6.34557 19.1526 6.34557 21.3442C6.34557 23.5358 7.8844 25.3733 9.94746 25.8285V27.3963C9.94746 28.1718 10.1166 28.8798 10.4379 29.5036C10.6408 29.8744 10.8775 30.2285 11.1988 30.5488C11.9091 31.2905 12.9068 31.6951 13.9214 31.6951H13.9383H14.9698V32.9426C14.9698 33.1955 15.1727 33.4147 15.4433 33.4147H21.8692C22.1229 33.4147 22.3427 33.2124 22.3427 32.9426V28.7618C22.3427 28.5089 22.1398 28.2898 21.8692 28.2898H15.4433C15.1897 28.2898 14.9698 28.4921 14.9698 28.7618V30.1273H13.9383C13.9383 30.1273 13.9383 30.1273 13.9214 30.1273C13.3295 30.1273 12.7377 29.8744 12.3149 29.4361C12.1289 29.2338 11.9598 29.0147 11.8414 28.7787C11.6385 28.3741 11.537 27.9189 11.537 27.3794V25.9128H13.2281V16.7588H11.537C11.537 14.2975 12.5686 12.0047 14.378 10.5044C14.4794 10.4201 14.5978 10.3358 14.6993 10.2515C16.7454 8.70054 18.893 8.43081 19.9922 8.41396C21.1083 8.43081 23.2559 8.70054 25.2851 10.2515C25.4035 10.3358 25.5049 10.4201 25.6064 10.5044C27.3989 12.0047 28.4304 14.2975 28.4473 16.7588H27.0607V25.9633H29.3098C31.8632 25.9633 33.9263 23.9066 33.9263 21.361C33.9263 19.0515 32.2352 17.1634 30.02 16.8262Z" fill="#F4FEFE"/>
    <path d="M57.7834 27.9859C56.2263 27.9859 55.2646 26.7731 55.2188 25.3773C58.6764 24.8281 60.5083 21.35 60.5083 17.1855C60.5083 12.4718 58.5161 9.03948 54.257 9.03948C50.1811 9.03948 48.0286 12.7006 48.0286 17.2542C48.0286 21.2814 49.6773 24.8281 53.2495 25.3773C53.7304 27.963 55.608 28.924 58.1498 28.924L60.348 27.9401L60.0274 27.185C59.4321 27.5053 58.4475 27.9859 57.7834 27.9859ZM50.0437 17.1626C50.0437 13.4328 51.5321 10.0692 54.3486 10.0692C57.1422 10.0692 58.4932 13.6388 58.4932 17.277C58.4932 20.8924 57.0277 24.4391 54.2112 24.4391C51.5321 24.4391 50.0437 20.8695 50.0437 17.1626Z" fill="#262626"/>
    <path d="M63.7565 21.4645C63.7565 24.2561 64.8556 25.4688 67.031 25.4688C68.5881 25.4688 69.8246 24.6908 70.6947 23.3866L70.9237 25.2629H72.3892V13.8218H70.626V21.7848C70.0994 23.2264 68.7255 24.4162 67.5805 24.4162C66.0921 24.4162 65.5197 23.501 65.5197 21.5102V13.8218H63.7565V21.4645Z" fill="#262626"/>
    <path d="M79.9706 13.6159C78.1387 13.6159 76.9709 14.5541 76.1694 16.1787L77.7494 16.3846C78.1387 15.4007 78.757 14.5769 79.9019 14.5769C81.6422 14.5769 82.1917 15.8812 82.1917 17.6203V19.039C81.3445 18.5584 80.5659 18.3296 79.5355 18.3296C77.4975 18.3296 75.4367 19.9314 75.4367 22.1052C75.4367 24.3018 76.9022 25.4688 78.7112 25.4688C80.1767 25.4688 81.459 24.5993 82.2604 23.3866L82.4894 25.2629H83.9549V17.6203C83.9549 15.1032 82.4665 13.6159 79.9706 13.6159ZM82.1917 21.739C81.8941 22.9289 80.3141 24.4391 79.1462 24.4391C77.8181 24.4391 77.2686 23.295 77.2686 22.0365C77.2686 20.5721 78.528 19.2907 79.9477 19.2907C80.8407 19.2907 81.459 19.4966 82.1917 19.9771V21.739Z" fill="#262626"/>
    <path d="M90.8703 24.3705C90.5955 24.462 90.3894 24.4849 90.0917 24.5078C89.4963 24.5078 89.2445 24.1645 89.2445 23.5467V7.8725H87.4813V23.0891C87.4813 24.7595 88.3514 25.4688 89.9314 25.4688C90.3207 25.4688 90.6413 25.4002 90.9847 25.2858L90.8703 24.3705Z" fill="#262626"/>
    <path d="M95.0846 13.8218H93.3215V25.2629H95.0846V13.8218ZM95.451 10.5497C95.451 9.86324 94.9015 9.31407 94.2374 9.31407C93.5275 9.31407 92.978 9.86324 92.978 10.5497C92.978 11.259 93.5275 11.8082 94.2374 11.8082C94.9015 11.8082 95.451 11.259 95.451 10.5497Z" fill="#262626"/>
    <path d="M104.316 24.073C103.927 24.3247 103.492 24.4849 102.988 24.4849C101.66 24.4849 101.248 23.7069 101.248 22.5857V14.8515H104.271V13.8218H101.248V11.1218H100.149L99.4849 13.8218H97.4927V14.8515H99.4849V22.4484C99.4849 24.5764 100.905 25.4688 102.714 25.4688C103.423 25.4688 104.133 25.2858 104.729 24.8968L104.316 24.073Z" fill="#262626"/>
    <path d="M114.458 13.8218L111.023 24.1874L108.046 13.8218H106.169L109.626 25.2629H110.634L110.038 26.979C109.054 29.9308 108.115 30.5944 107.199 30.5944C106.924 30.5944 106.512 30.5029 106.237 30.4342L105.962 32.1275C108.779 32.1275 109.901 30.7546 111.115 27.2536L115.74 13.8218H114.458Z" fill="#262626"/>
    <path d="M138.662 9.24542L135.64 23.8442L132.594 9.24542H130.258L127.213 23.8442L124.374 9.24542H122.496L125.77 25.2629H128.06L131.174 10.9845L134.312 25.2629H136.487L139.967 9.24542H138.662Z" fill="#262626"/>
    <path d="M149.359 19.5652C149.359 22.5399 148.145 24.5307 146.13 24.5307C144.138 24.5307 142.993 22.4026 142.993 19.4737C142.993 16.499 144.207 14.5541 146.222 14.5541C148.168 14.5541 149.359 16.6363 149.359 19.5652ZM151.237 19.4966C151.237 16.3846 149.542 13.6159 146.153 13.6159C142.947 13.6159 141.115 16.4304 141.115 19.5424C141.115 22.6543 142.833 25.4688 146.153 25.4688C149.405 25.4688 151.237 22.6086 151.237 19.4966Z" fill="#262626"/>
    <path d="M160.391 13.8218C160.048 13.6845 159.75 13.6159 159.384 13.6159C157.918 13.6159 156.773 14.5541 156.064 15.7439L155.812 13.8218H154.369V25.2629H156.132V17.3457C156.567 16.1787 157.575 14.9431 158.605 14.9431C159.109 14.9431 159.453 15.1032 159.842 15.2863L160.391 13.8218Z" fill="#262626"/>
    <path d="M170.98 25.2629L165.736 18.6728L170.453 13.8218H168.736L164.339 18.4898V7.8725H162.576V25.2629H164.339V19.4508L168.896 25.2629H170.98Z" fill="#262626"/>
    <path d="M176.356 25.4688C178.623 25.4688 180.432 24.3705 180.432 22.4255C180.432 20.4576 178.623 19.3593 177.043 18.5356C175.76 17.872 174.592 17.3914 174.592 16.2473C174.592 15.1261 175.508 14.5312 176.539 14.5312C177.638 14.5312 178.485 15.1719 178.668 16.4075L180.134 16.2245C179.859 14.4854 178.416 13.6159 176.516 13.6159C174.661 13.6159 172.806 14.6456 172.806 16.4304C172.806 17.9177 174.249 18.8559 175.692 19.5881C177.157 20.3204 178.6 21.0068 178.6 22.5399C178.6 23.9586 177.638 24.5535 176.379 24.5535C174.959 24.5535 174.249 23.501 174.02 22.0823L172.486 22.2653C172.898 24.3247 174.203 25.4688 176.356 25.4688Z" fill="#262626"/>
</svg>
