<svg width="9" height="11" viewBox="0 0 9 11" fill="none" xmlns="http://www.w3.org/2000/svg">
<path fill-rule="evenodd" clip-rule="evenodd" d="M0.722262 0.0135939C0.583203 0.045945 0.426823 0.141772 0.318603 0.260937C0.152255 0.444138 0.0532224 0.71112 0.0196329 1.06702C-0.0065443 1.3442 -0.0065443 9.65196 0.0196329 9.92914C0.0532224 10.285 0.152255 10.552 0.318603 10.7352C0.609575 11.0557 1.04661 11.0866 1.52681 10.8207C1.67435 10.739 8.26933 6.57151 8.44309 6.45016C8.50358 6.40791 8.61898 6.29982 8.69952 6.20995C9.00925 5.8644 9.08096 5.47902 8.90802 5.08939C8.83518 4.92531 8.61096 4.66324 8.44309 4.54601C8.26933 4.42465 1.67435 0.257151 1.52681 0.175457C1.45396 0.135125 1.33729 0.0818021 1.26756 0.0569581C1.12251 0.0053126 0.850749 -0.0163049 0.722262 0.0135939Z" fill="white"/>
</svg>
