<svg width="20" height="20" viewBox="0 0 20 20" fill="none" xmlns="http://www.w3.org/2000/svg">
    <path d="M17.313 10.936C17.349 10.636 17.373 10.324 17.373 9.99999C17.373 9.67599 17.349 9.36399 17.301 9.06399L19.329 7.47999C19.509 7.33599 19.557 7.07199 19.449 6.86799L17.529 3.54399C17.409 3.32799 17.157 3.25599 16.941 3.32799L14.553 4.28799C14.049 3.90399 13.521 3.59199 12.933 3.35199L12.573 0.807994C12.537 0.567994 12.333 0.399994 12.093 0.399994H8.25296C8.01296 0.399994 7.82096 0.567994 7.78496 0.807994L7.42496 3.35199C6.83696 3.59199 6.29696 3.91599 5.80496 4.28799L3.41696 3.32799C3.20096 3.24399 2.94896 3.32799 2.82896 3.54399L0.908958 6.86799C0.788958 7.08399 0.836958 7.33599 1.02896 7.47999L3.05696 9.06399C3.00896 9.36399 2.97296 9.68799 2.97296 9.99999C2.97296 10.312 2.99696 10.636 3.04496 10.936L1.01696 12.52C0.836958 12.664 0.788958 12.928 0.896958 13.132L2.81696 16.456C2.93696 16.672 3.18896 16.744 3.40496 16.672L5.79296 15.712C6.29696 16.096 6.82496 16.408 7.41296 16.648L7.77296 19.192C7.82096 19.432 8.01296 19.6 8.25296 19.6H12.093C12.333 19.6 12.537 19.432 12.561 19.192L12.921 16.648C13.509 16.408 14.049 16.084 14.541 15.712L16.929 16.672C17.145 16.756 17.397 16.672 17.517 16.456L19.437 13.132C19.557 12.916 19.509 12.664 19.317 12.52L17.313 10.936ZM10.173 13.6C8.19296 13.6 6.57296 11.98 6.57296 9.99999C6.57296 8.01999 8.19296 6.39999 10.173 6.39999C12.153 6.39999 13.773 8.01999 13.773 9.99999C13.773 11.98 12.153 13.6 10.173 13.6Z" fill="white" fill-opacity="0.6"/>
</svg>
