<svg width="16" height="16" viewBox="0 0 16 16" fill="none" xmlns="http://www.w3.org/2000/svg">
    <path d="M12.76 8.62398C12.784 8.42398 12.8 8.21598 12.8 7.99998C12.8 7.78398 12.784 7.57598 12.752 7.37598L14.104 6.31998C14.224 6.22398 14.256 6.04798 14.184 5.91198L12.904 3.69598C12.824 3.55198 12.656 3.50398 12.512 3.55198L10.92 4.19198C10.584 3.93598 10.232 3.72798 9.84003 3.56798L9.60003 1.87198C9.57603 1.71198 9.44003 1.59998 9.28003 1.59998H6.72003C6.56003 1.59998 6.43203 1.71198 6.40803 1.87198L6.16803 3.56798C5.77603 3.72798 5.41603 3.94398 5.08803 4.19198L3.49603 3.55198C3.35203 3.49598 3.18403 3.55198 3.10403 3.69598L1.82403 5.91198C1.74403 6.05598 1.77603 6.22398 1.90403 6.31998L3.25603 7.37598C3.22403 7.57598 3.20003 7.79198 3.20003 7.99998C3.20003 8.20798 3.21603 8.42398 3.24803 8.62398L1.89603 9.67998C1.77603 9.77598 1.74403 9.95198 1.81603 10.088L3.09603 12.304C3.17603 12.448 3.34403 12.496 3.48803 12.448L5.08003 11.808C5.41603 12.064 5.76803 12.272 6.16003 12.432L6.40003 14.128C6.43203 14.288 6.56003 14.4 6.72003 14.4H9.28003C9.44003 14.4 9.57603 14.288 9.59203 14.128L9.83203 12.432C10.224 12.272 10.584 12.056 10.912 11.808L12.504 12.448C12.648 12.504 12.816 12.448 12.896 12.304L14.176 10.088C14.256 9.94398 14.224 9.77598 14.096 9.67998L12.76 8.62398ZM8.00003 10.4C6.68003 10.4 5.60003 9.31998 5.60003 7.99998C5.60003 6.67998 6.68003 5.59998 8.00003 5.59998C9.32003 5.59998 10.4 6.67998 10.4 7.99998C10.4 9.31998 9.32003 10.4 8.00003 10.4Z" fill="#0070C0"/>
</svg>
