<svg width="24" height="24" viewBox="0 0 24 24" fill="none" xmlns="http://www.w3.org/2000/svg">
    <rect width="24" height="24" rx="12" fill="#CEE3F2" fill-opacity="0.64"/>
    <path d="M9.99998 13.1667C8.43998 13.1667 5.33331 13.9467 5.33331 15.5V16.6667H14.6666V15.5C14.6666 13.9467 11.56 13.1667 9.99998 13.1667ZM6.89331 15.3334C7.45331 14.9467 8.80665 14.5 9.99998 14.5C11.1933 14.5 12.5466 14.9467 13.1066 15.3334H6.89331ZM9.99998 12C11.2866 12 12.3333 10.9534 12.3333 9.66671C12.3333 8.38004 11.2866 7.33337 9.99998 7.33337C8.71331 7.33337 7.66665 8.38004 7.66665 9.66671C7.66665 10.9534 8.71331 12 9.99998 12ZM9.99998 8.66671C10.5533 8.66671 11 9.11337 11 9.66671C11 10.22 10.5533 10.6667 9.99998 10.6667C9.44665 10.6667 8.99998 10.22 8.99998 9.66671C8.99998 9.11337 9.44665 8.66671 9.99998 8.66671ZM14.6933 13.2067C15.4666 13.7667 16 14.5134 16 15.5V16.6667H18.6666V15.5C18.6666 14.1534 16.3333 13.3867 14.6933 13.2067ZM14 12C15.2866 12 16.3333 10.9534 16.3333 9.66671C16.3333 8.38004 15.2866 7.33337 14 7.33337C13.64 7.33337 13.3066 7.42004 13 7.56671C13.42 8.16004 13.6666 8.88671 13.6666 9.66671C13.6666 10.4467 13.42 11.1734 13 11.7667C13.3066 11.9134 13.64 12 14 12Z" fill="#0070C0"/>
</svg>
