<svg width="48" height="48" viewBox="0 0 48 48" fill="none" xmlns="http://www.w3.org/2000/svg">
    <rect width="48" height="48" rx="24" fill="#F5F8FA"/>
    <path d="M13.3333 25.3333C14.8 25.3333 16 24.1333 16 22.6667C16 21.2 14.8 20 13.3333 20C11.8667 20 10.6667 21.2 10.6667 22.6667C10.6667 24.1333 11.8667 25.3333 13.3333 25.3333ZM14.84 26.8C14.3467 26.72 13.8533 26.6667 13.3333 26.6667C12.0133 26.6667 10.76 26.9467 9.62667 27.44C8.64 27.8667 8 28.8267 8 29.9067V32H14V29.8533C14 28.7467 14.3067 27.7067 14.84 26.8ZM34.6667 25.3333C36.1333 25.3333 37.3333 24.1333 37.3333 22.6667C37.3333 21.2 36.1333 20 34.6667 20C33.2 20 32 21.2 32 22.6667C32 24.1333 33.2 25.3333 34.6667 25.3333ZM40 29.9067C40 28.8267 39.36 27.8667 38.3733 27.44C37.24 26.9467 35.9867 26.6667 34.6667 26.6667C34.1467 26.6667 33.6533 26.72 33.16 26.8C33.6933 27.7067 34 28.7467 34 29.8533V32H40V29.9067ZM29.6533 26.2C28.0933 25.5067 26.1733 25 24 25C21.8267 25 19.9067 25.52 18.3467 26.2C16.9067 26.84 16 28.28 16 29.8533V32H32V29.8533C32 28.28 31.0933 26.84 29.6533 26.2ZM18.76 29.3333C18.88 29.0267 18.9333 28.8133 19.9733 28.4133C21.2667 27.9067 22.6267 27.6667 24 27.6667C25.3733 27.6667 26.7333 27.9067 28.0267 28.4133C29.0533 28.8133 29.1067 29.0267 29.24 29.3333H18.76ZM24 18.6667C24.7333 18.6667 25.3333 19.2667 25.3333 20C25.3333 20.7333 24.7333 21.3333 24 21.3333C23.2667 21.3333 22.6667 20.7333 22.6667 20C22.6667 19.2667 23.2667 18.6667 24 18.6667ZM24 16C21.7867 16 20 17.7867 20 20C20 22.2133 21.7867 24 24 24C26.2133 24 28 22.2133 28 20C28 17.7867 26.2133 16 24 16Z" fill="#2294E6"/>
</svg>
