<svg width="48" height="48" viewBox="0 0 48 48" fill="none" xmlns="http://www.w3.org/2000/svg">
    <rect width="48" height="48" rx="24" fill="#FAF6F0"/>
    <path d="M24 13.3333V9.33333L18.6667 14.6667L24 20V16C28.4134 16 32 19.5867 32 24C32 25.3467 31.6667 26.6267 31.0667 27.7333L33.0134 29.68C34.0534 28.04 34.6667 26.0933 34.6667 24C34.6667 18.1067 29.8934 13.3333 24 13.3333ZM24 32C19.5867 32 16 28.4133 16 24C16 22.6533 16.3334 21.3733 16.9334 20.2667L14.9867 18.32C13.9467 19.96 13.3334 21.9067 13.3334 24C13.3334 29.8933 18.1067 34.6667 24 34.6667V38.6667L29.3334 33.3333L24 28V32Z" fill="#FAB143"/>
</svg>
