<svg width="24" height="24" viewBox="0 0 24 24" fill="none" xmlns="http://www.w3.org/2000/svg">
    <rect width="24" height="24" rx="12" fill="#FCE8EA"/>
    <path d="M12.6667 5.3667V7.3867C14.9267 7.71337 16.6667 9.6467 16.6667 12C16.6667 12.6 16.5467 13.1667 16.3467 13.6934L18.08 14.7134C18.4534 13.8867 18.6667 12.9667 18.6667 12C18.6667 8.5467 16.0334 5.70003 12.6667 5.3667V5.3667ZM12 16.6667C9.42004 16.6667 7.33337 14.58 7.33337 12C7.33337 9.6467 9.07337 7.71337 11.3334 7.3867V5.3667C7.96004 5.70003 5.33337 8.54003 5.33337 12C5.33337 15.68 8.31337 18.6667 11.9934 18.6667C14.2 18.6667 16.1534 17.5934 17.3667 15.94L15.6334 14.92C14.78 15.9867 13.4734 16.6667 12 16.6667Z" fill="#DE5050"/>
</svg>
