<svg width="22" height="22" viewBox="0 0 22 22" fill="none" xmlns="http://www.w3.org/2000/svg">
    <path d="M10.8448 0.655182C8.10216 0.658266 5.4727 1.74915 3.53334 3.68852C1.59397 5.62788 0.503084 8.25734 0.5 11C0.504663 13.7422 1.59606 16.3707 3.53508 18.3098C5.4741 20.2488 8.10264 21.3402 10.8448 21.3448C13.5884 21.3448 16.2197 20.2549 18.1597 18.3149C20.0998 16.3749 21.1897 13.7436 21.1897 11C21.1897 8.25639 20.0998 5.62514 18.1597 3.68511C16.2197 1.74508 13.5884 0.655182 10.8448 0.655182ZM17.137 16.9692C16.556 15.7975 15.6591 14.8114 14.5474 14.1222C13.4358 13.4331 12.1537 13.0683 10.8458 13.069C9.53787 13.0697 8.25617 13.4359 7.14529 14.1262C6.03441 14.8166 5.13855 15.8037 4.55878 16.9761C3.0118 15.3718 2.14977 13.2286 2.15517 11C2.15517 8.69537 3.07069 6.48512 4.70031 4.8555C6.32994 3.22587 8.54019 2.31035 10.8448 2.31035C13.1495 2.31035 15.3597 3.22587 16.9893 4.8555C18.619 6.48512 19.5345 8.69537 19.5345 11C19.5396 13.2254 18.68 15.3657 17.137 16.9692ZM10.8448 4.79311C10.1083 4.79311 9.38824 5.01153 8.77581 5.42074C8.16338 5.82996 7.68604 6.41159 7.40417 7.09209C7.1223 7.77258 7.04855 8.52138 7.19225 9.24379C7.33594 9.96621 7.69063 10.6298 8.21146 11.1506C8.7323 11.6714 9.39587 12.0261 10.1183 12.1698C10.8407 12.3135 11.5895 12.2398 12.27 11.9579C12.9505 11.676 13.5321 11.1987 13.9413 10.5863C14.3505 9.97384 14.569 9.25382 14.569 8.51725C14.569 8.02819 14.4726 7.54392 14.2855 7.09209C14.0983 6.64025 13.824 6.22971 13.4782 5.88389C13.1324 5.53807 12.7218 5.26375 12.27 5.0766C11.8182 4.88944 11.3339 4.79311 10.8448 4.79311Z" fill="white" fill-opacity="0.87"/>
</svg>
