<svg width="58" height="24" viewBox="0 0 58 24" fill="none" xmlns="http://www.w3.org/2000/svg">
<path d="M3.41176 8.44376V15.0152C3.41176 15.4509 3.23204 15.8688 2.91212 16.1769C2.59221 16.485 2.15831 16.658 1.70588 16.658C1.25345 16.658 0.819557 16.485 0.499642 16.1769C0.179727 15.8688 0 15.4509 0 15.0152V8.44376C0 8.00805 0.179727 7.59018 0.499642 7.28209C0.819557 6.97399 1.25345 6.80091 1.70588 6.80091C2.15831 6.80091 2.59221 6.97399 2.91212 7.28209C3.23204 7.59018 3.41176 8.00805 3.41176 8.44376ZM10.2353 5.15805V18.3009C10.2353 18.7366 10.0556 19.1545 9.73565 19.4626C9.41574 19.7707 8.98184 19.9438 8.52941 19.9438C8.07698 19.9438 7.64309 19.7707 7.32317 19.4626C7.00326 19.1545 6.82353 18.7366 6.82353 18.3009V5.15805C6.82353 4.72234 7.00326 4.30447 7.32317 3.99637C7.64309 3.68828 8.07698 3.51519 8.52941 3.51519C8.98184 3.51519 9.41574 3.68828 9.73565 3.99637C10.0556 4.30447 10.2353 4.72234 10.2353 5.15805ZM30.7059 8.44376V15.0152C30.7059 15.4509 30.5262 15.8688 30.2062 16.1769C29.8863 16.485 29.4524 16.658 29 16.658C28.5476 16.658 28.1137 16.485 27.7938 16.1769C27.4738 15.8688 27.2941 15.4509 27.2941 15.0152V8.44376C27.2941 8.00805 27.4738 7.59018 27.7938 7.28209C28.1137 6.97399 28.5476 6.80091 29 6.80091C29.4524 6.80091 29.8863 6.97399 30.2062 7.28209C30.5262 7.59018 30.7059 8.00805 30.7059 8.44376ZM23.8824 5.15805V18.3009C23.8824 18.7366 23.7026 19.1545 23.3827 19.4626C23.0628 19.7707 22.6289 19.9438 22.1765 19.9438C21.724 19.9438 21.2901 19.7707 20.9702 19.4626C20.6503 19.1545 20.4706 18.7366 20.4706 18.3009V5.15805C20.4706 4.72234 20.6503 4.30447 20.9702 3.99637C21.2901 3.68828 21.724 3.51519 22.1765 3.51519C22.6289 3.51519 23.0628 3.68828 23.3827 3.99637C23.7026 4.30447 23.8824 4.72234 23.8824 5.15805ZM17.0588 1.87233V21.5866C17.0588 22.0223 16.8791 22.4402 16.5592 22.7483C16.2393 23.0564 15.8054 23.2295 15.3529 23.2295C14.9005 23.2295 14.4666 23.0564 14.1467 22.7483C13.8268 22.4402 13.6471 22.0223 13.6471 21.5866V1.87233C13.6471 1.43662 13.8268 1.01875 14.1467 0.710659C14.4666 0.402563 14.9005 0.229477 15.3529 0.229477C15.8054 0.229477 16.2393 0.402563 16.5592 0.710659C16.8791 1.01875 17.0588 1.43662 17.0588 1.87233ZM37.5294 5.15805V18.3009C37.5294 18.7366 37.3497 19.1545 37.0298 19.4626C36.7099 19.7707 36.276 19.9438 35.8235 19.9438C35.3711 19.9438 34.9372 19.7707 34.6173 19.4626C34.2974 19.1545 34.1176 18.7366 34.1176 18.3009V5.15805C34.1176 4.72234 34.2974 4.30447 34.6173 3.99637C34.9372 3.68828 35.3711 3.51519 35.8235 3.51519C36.276 3.51519 36.7099 3.68828 37.0298 3.99637C37.3497 4.30447 37.5294 4.72234 37.5294 5.15805ZM58 8.44376V15.0152C58 15.4509 57.8203 15.8688 57.5004 16.1769C57.1804 16.485 56.7465 16.658 56.2941 16.658C55.8417 16.658 55.4078 16.485 55.0879 16.1769C54.768 15.8688 54.5882 15.4509 54.5882 15.0152V8.44376C54.5882 8.00805 54.768 7.59018 55.0879 7.28209C55.4078 6.97399 55.8417 6.80091 56.2941 6.80091C56.7465 6.80091 57.1804 6.97399 57.5004 7.28209C57.8203 7.59018 58 8.00805 58 8.44376ZM51.1765 5.15805V18.3009C51.1765 18.7366 50.9967 19.1545 50.6768 19.4626C50.3569 19.7707 49.923 19.9438 49.4706 19.9438C49.0182 19.9438 48.5843 19.7707 48.2643 19.4626C47.9444 19.1545 47.7647 18.7366 47.7647 18.3009V5.15805C47.7647 4.72234 47.9444 4.30447 48.2643 3.99637C48.5843 3.68828 49.0182 3.51519 49.4706 3.51519C49.923 3.51519 50.3569 3.68828 50.6768 3.99637C50.9967 4.30447 51.1765 4.72234 51.1765 5.15805ZM44.3529 1.87233V21.5866C44.3529 22.0223 44.1732 22.4402 43.8533 22.7483C43.5334 23.0564 43.0995 23.2295 42.6471 23.2295C42.1946 23.2295 41.7607 23.0564 41.4408 22.7483C41.1209 22.4402 40.9412 22.0223 40.9412 21.5866V1.87233C40.9412 1.43662 41.1209 1.01875 41.4408 0.710659C41.7607 0.402563 42.1946 0.229477 42.6471 0.229477C43.0995 0.229477 43.5334 0.402563 43.8533 0.710659C44.1732 1.01875 44.3529 1.43662 44.3529 1.87233Z" fill="white" fill-opacity="0.87"/>
</svg>
